<mxfile host="app.diagrams.net" modified="2022-09-14T11:09:14.369Z" agent="5.0 (Windows NT 10.0; Win64; x64) AppleWebKit/537.36 (KHTML, like Gecko) Chrome/104.0.5112.102 Safari/537.36 OPR/90.0.4480.100" etag="PEBQLorKqWCFO-g-1Emx" version="20.3.0" type="github">
  <diagram id="oQkY7TFzzU90C_UorAgv" name="Страница 1">
    <mxGraphModel dx="385" dy="242" grid="0" gridSize="10" guides="1" tooltips="1" connect="1" arrows="1" fold="1" page="0" pageScale="1" pageWidth="827" pageHeight="1169" backgroundImage="{&quot;src&quot;:&quot;data:image/jpeg;base64,/9j/4QC8RXhpZgAASUkqAAgAAAAGABIBAwABAAAAAQAAABoBBQABAAAAVgAAABsBBQABAAAAXgAAACgBAwABAAAAAgAAABMCAwABAAAAAQAAAGmHBAABAAAAZgAAAAAAAADAJwkA6AMAAMAnCQDoAwAABgAAkAcABAAAADAyMTABkQcABAAAAAECAwAAoAcABAAAADAxMDABoAMAAQAAAP//AAACoAQAAQAAAAAFAAADoAQAAQAAAD0DAAAAAAAA/9sAQwAIBgYHBgUIBwcHCQkICgwUDQwLCwwZEhMPFB0aHx4dGhwcICQuJyAiLCMcHCg3KSwwMTQ0NB8nOT04MjwuMzQy/9sAQwEJCQkMCwwYDQ0YMiEcITIyMjIyMjIyMjIyMjIyMjIyMjIyMjIyMjIyMjIyMjIyMjIyMjIyMjIyMjIyMjIyMjIy/8IAEQgDPQUAAwERAAIRAQMRAf/EABoAAQEBAQEBAQAAAAAAAAAAAAAFBAMCAQb/xAAXAQEBAQEAAAAAAAAAAAAAAAAAAQID/9oADAMBAAIQAxAAAAH9+AAAAAAAAAAAAAAAAAAAAAAAAAAAAAAAAAAAAAAAAAAAAAAAAAAAAAAAAAAAAAAAAAAAAAAAAAAAAAAAAAAAAAAAAAAAAAAAAAAAAAAAAAAAAAAAAAAAAAAAAAAAAAAAAAAAAAAAAAAAAAAAAAAAAAAAAAAAAAAAAAAAAAAAAAAAAAAAAAAAAAAAAAAAAAAAAAAAAAAAAAAAAAAAAAAAAAAAAAAAAAAAAAAAAAAAAAAAAAAAAAAAAAAAAAAAAAAAAAAAAAAAAAAAAAAAAAAAAAAAAAAAAAAAAAAAAAAAAAAAAAAAAAAAAAAAAAAAAAAAAAAAAAAAAAAAAAAAAAAAAAAAAAAAAAAAAAAAAAAAAAAAAAAAAAAAAAAAAAAAAAAAAAAAAAAAAAAAAAAADjrIAAAAAAAAAAAAAAwns9S8rNJ1AAAAAAAAAAAAAAAAAAABjOR6PsvmzUdgAAAAAAAAAAAAAAAAAAAAADEej3Lys0HUAAAAAAAAAAAAAA7Z0AAAAAAAAAAAAABNKJ9AMZ1O4AAAAAAAAAAAAAAAAAAJZuOwAMR9NgAAAAAAAAAAAAAAAAAAAABMKR9AMR2O4AAAAAAAAAAAAAAAAAAAAAAAAAAAMZrPoABhNwAAAAAAAAAAAAAAAAABPNp7AABhNB2AAAAAAAAAAAAAAAAAAAAMRrPQABgN4AAAAAAAAAAAAAAAAAAAAAAAAAAAMRtAABiNoAAAAAAAAAAAAAAAAABNKQAAAJpSAAAAAAAAAAAAAAAAAAAAMJuAABiNoAAAAAAAAAAAAAOWsgAAAAAAAAAAAACLm21klU6Eo1mAoaz1AAAAAAAAAAAAAAAAABIzfK1TSCSbjQCZZusAAAAAAAAAAAAAAAAAAAAlS2pQABMNOs9QAAAAAAAAAAAAD4AAAAAAAAAAAAAD85LblgFI7EYpGcuaz6AAAAAAAAAAAAAAAAABOlly/pDueSKdyqCVZvsAAAAAAAAAAAAAAAAAAAA/Py/ppQABBKWs9gAAAAAAAAAAAAD6AAAAAAAAAAAAAD8zL+ml6ng4GoH5NP0up6AAAAAAAAAAAAAAAAAMkvaUageSEWTsCTrNEAAAAAAAAAAAAAAAAAAAA/Py/pZQABAStqdAAAAAAAAAAAAAD4AAAAAAAAAAAAADIa867E4G06EqzfYAAAAAAAAAAAAAAAAAMxkza64igDkdQTzvrPsAAAAAAAAAAAAAAAAAAAAyGzOuoABLs3WAAAAAAAAAAAAAD5YAAAAAAAAAAAAAPJkxqiuE8Gw6E3Wd9gAAAAAAAAAAAAAAAAAEnG6p2PRjNgBLs26yAAAAAAAAAAAAAAAAAAAAPhhxqgvE+HQ0EbWadgAAAAAAAAAAAAA+ygAAAAAAAAAAAAAQ82kvQ4G0/OH6HWfQAAAAAAAAAAAAAAAAABgzaqjKYysYDeS7N1gAAAAAAAAAAAAAAAAAAAAGTNoqAMZ01n0AAAAAAAAAAAAAD5YAAAAAAAAAAAAABgzrnL3PhlO5Q3gAAAAAAAAAAAAAAAAAAYpemdZbNEvkqE89ng77x6AAAAAAAAAAAAAAAAAAAABkzqlKAJ5p3gAAAAAAAAAAAAAD7KAAAAAAAAAAAAAOZKze6+zqYDuaNZ1AAAAAAAAAAAAAAAAAAAAky65aIJR0MNlmwAAAAAAAAAAAAAAAAAAADwYc6rnI6nMynjWdYAAAAAAAAAAAAAO2dAAAAAAAAAAAADEcT2YyqYzUZj4D4ezeegAAAAAAAAAAAAAAAAADAbweD4dCaeCqAAAAAAAAAAAAAAAAAACeczobTkdT2ZDWYzOfCkewAAAAAAAAAAADjrIAAAAAAAAAAymc9y841r0PBiNRoB4MZ2Ox9MZ5T7qKowAAAAAAAAAAAAAAABxJctOXaAAQTZrOwAAAAAAAAAAAAAAAAzGc8S+ZbB0AMJuBgN4AJRzT1qejeAAAAAAAAAADtnQAAAAAAAAAE9Oq6wAAD4Yj6az0AAAeCUWAAAAAAAAAAAAAAAfCSaTcczoAACKWgAAAAAAAAAAAAAAAYToagcjqADyeDqcDuADkdQeCYVgAAAAAAAAAAAAAAAAAAADKnldh8OR2AAB4PB2AAAOJ2PhMSooAAAAAAAAAAAAAEcsAGA3gAHMnm47AAAAAAAAAAAAAAA4HI2AHwyn01AAAA5mY0nQA+E8ogAAAAAAAAAAAAAAAAAAAmpSXKZimAAAcySWT6AACYbzyY7KUoAAAAAAAAAAAAAwHc0AE4onE7AE0Hs3gAAAAAAAAAAAAAAnFEGQ1gHk9AHwH0A8noAyGsE4ogAAAAAAAAAAAAAAAAAAAmp0XaQi8AAAfCYUz6AACCXjAeSgn1QAAAAAAAAAAAAJJWABMKZNKQBgMBtKIAAAAAAAAAAAAAAJxRBNKQAMpqBwPhoB5OJoAMBsPZhNZ7AAAB8PoAAAAAAAAAAAAAAJh6KJJKwAABnJ5XPoAAJBXMZwKB7AAAAAAAAAAAABnORtABNN5OKgOB5PzR+pOoAAAAAAAAAAAAAAJxRBGLIOR1MZsBnPJqBmNBzOoI5XPplPZ3AAAAAAAAAAAAAAAAAAAJp6NhLLAAAB5MBRAAAJZrNJ+dP0QAAAAAAAAAAAABKKoAAPzhVPJQJZOO5eAAAAAAAAAAAAAAAJ5rMxxKgPhlPBuBxMxvBlPR9O4JhqPJzNx9AAAAAAAAAOO8gAAAAAAAACJm8JbhxKQAAAJpSAAAJpsMJ+bP2W8gAAAAAAAAAAAATc2xKABjOZ8IxoN54PFlPUAAAAAAAAAAAAAAAhZtmXUSyoAZjKUwZDGVwYjwUACWVDkfny9vP0AAAAAAAAA+IAAAAAAAAB5I2N/ogcTGaj0dgAcjMbgAeDMaSaVQShrO6wAAAAAAAAAAAATJd2daz6ASjsbyIaiiRzzrNOwAAAAAAAAAAAAAAeTNjdIHIyA+n0xFsHEylAE48nQ+GkxlMHklazQsAAAAAAAAA742AAAAAAAABHT0tYAhHY0m4AxHk0k8rAHMkHY7G8HA/P2fp5QAAAAAAAAAAAByJJbBgN5JKR0JRvOJCP1IAAAAAAAAAAAAAABMKR9OJ2JpSAMJuB8JxSBhNwBzMpoOwJZUAAAAAAAAAOG8AAAAAAAAAQZbOdbACIajMdAezYdwfCccweTocigaQD8jZ+n1kAAAAAAAAAAAACTLqzrwVD0SSsCYUz82e7m1qAAAAAAAAAAAAAAATpbGdDGbCWVADicDaCYUzwYSiATSiZDYCVZu1kAAAAAAAADvjYAAAAAAAAH5s/Rn0HE/MWXJeJtNQOJyOpyNYORhOZks3S1AD84foj6AAAAAAAAAAAACWVAASSsCYUD8UftT2AAAAAAAAAAAAAAATCmD8+foD8ufpz6AfAczKbzyegAQSmZTUaycbz0AAAAAAAAAAAAAAAAAAfnj9CATxZgl3mwzHE6HQkFgyHU2mYxnUz2W5QJh7SgoAAAAAAAAAAAAiHcHo3kwrAnH0yFsAAAAAAAAAAAAAAAEUtEY6Gs5mAugAxGs8Hk9HUAxmU9H0+G48GcogAAAAAAAAAAAAAAAAAH54/QgEiyvLGK56Ph9AJ5QB8B9IZcJNlaUDAcymAAAAAAAAAAAACSVgASSsDAbSUVwAAAAAAAAAAAAAAAST0Uj4Ry2SSsACaazyTi0ACSViWajUYDsYyqAAAAAAAAAAAAAAAAADGDWfTkYbKcvA5ms5HA2HMiF84HM1gmFM8JOKijySysAAAAAAAAAAAACMUjuASSsfD4YjMWAAAAAAAAAAAAAAADIeDcDMcCgZQagDAD6cDYaQCWVD4SCufQRiyAAAAAAAAAAAAAAAAACWlRfB7IiW1AlpUUcjKfSebzqagCWlRRMNZ1PZON6elAAAAAAAAAAAAlmk0noEMuAH44/TmoAAAAAAAAAAAAAAAllQGYhn6UAllQGQ0HA8HQ5G4AllQEc1HQ1E82HQAAAAAAAA47yAAAAAAABlT1jW5ZZMNus1KAwZtWXwewCSVgeD2cifvG9Qj87m+V/VHkj7xUUAAAAAAAAAAACbFjOgBKKoB+RT9RuAAAAAAAAAAAAAAAZI0Z1pBIOWs1qHww4tVRPKBxORoMRQAI+s0qHyPzWdfqj0CPc0tAAAAAAAAO2NAAAAAAAAS7KkoEg62UpQJZUPhMO5zJ5UOJtOx4MJRAIaUF2AmWUpfoAAAAAAAAAAAPJDKBuPBGLgB+dP0QAAAAAAAAAAAAAABMKYBlOJQAJZUBgN4MhrMx0OoJhTAJZuOwJxvPQAAAAAAAOG8AAAAAAADyTsatKBkOPTGqAImNb1+nkA+H0+nw+H04azUsAwZtaaAzk/WaNgAAAAAAAAAAAEbOtkvonn6IA4n4RP3W8gAAAAAAAAAAAAAD4TcatKBlOW86EAjY1QUD6DmdD4D4fTLrNOwDDnVWUDOT9Zo2AAAAAAADvjYAAAAAAAmApgEmytKBzMRRAAAAAJRVAJVlSX6CecCuAAAAAAAAAAAATCmczGUACWYyydwAAAAAAAAAAAAACacysARywAeSaVAAAAACSVgCWUDoCeZywAAAAAAAAAAAAAAACWdTeDCZdZsZ0BLSmv0AAAAAk2VpQMdmGLSj4fnj9EAAAAAAAAAAAD4TyiSCuAD88WzAVQAAAAAAAAAAAAACYCmDgTC0ATjUdwAAAACOWADIYyuAfmT9MAAAAAAAAAAAAAAACIWD2eT8zrP6aX1KBKSqoAAAAAlJVUAQN5o41uBJNxoAAAAAAAAAAAM5zNhCLoBnJBfJRVAAAAAAAAAAAAAAIpUOwPzR+iPYBLKgAAAAAJZUAB+cLx1BKNZqAAAAAAAAAAAAAAAJBXB+fK1mqUAQjWbTqAAAATjMUjQAfE/Ln6lR4JxUAAAAAAAAAAAMZ0NBLKgBJNBuJZUAAAAAAAAAAAAAAJZUBhBuABLKgAAAAAMZ0NAAIhbB5J5SAAAAAAAAAAAAAABlPppORILgABKsqyzzuaQAAeSWVD0SrKsoAzGAsAllQAAAAAAAAAAAzng0kUuAEMrHYxnQ0AAAAAAAAAAAAAGc+Gk8k4pgAEMuAAHwzGoAAEMuAA4HE2gmlIAAAAAAAAAAAAAAEsqAkFcAA5XOCWoownIpgAzGAsAEbWbOdAASCuCWVAAAAAAAAAAAD4TjkdCmDOczIVzAajqAAAAAAAAAAAAATiiCUVQADwQT9CAACQVwADgSi4AASiqCcUQAAAAAAAAAAAAAATEpr5JxTAAJdztmu4B+dLRoAPyh+rABEubc0AB5JxTJaVFAAAAAAAAAAAEw8HUogllQ4mU5FUAAAAAAAAAAAAAE8oHwmlMAAnnArgAAjlgAAmnMrAAHgwlEnlAAAAAAAAAAAAAAAE9KC4TcAACTZWlAAhF0Ew1GkAEiyvKAAJhTJ6UFAAAAAAAAAAAEs+gpnwnFIEkFYAAAAAAAAAAAAAGA3ksqAAAlmMrmkAHw/On6MAA/PHYtgAAllQwG8AAAAAAA5ayAAAAAAPJnzreYLNVgAAnZtZQAPBKOx1NoABhPWs9wACcVs65mSzVYAAAAAAAAAABAivNDaTCiczESj9BrPsAAAAAAAAAAAAA+GbOt5IspWAACfm6l/Pn6U7A8kknl80gH500mw9az2AAJhYzrkZbNVgAAAAAA650AAAAAAJxRBOKIAB8JZVAAB8JhUAAAJKVlAA8GEomA3gAAAAAAAAAAEY7lIEkrAEspn0AAAAAAAAAAAAAnFEEcsAAHwmlME85n09FEmGgzg8lI9gllQAAmmw9GApgAAAAAAAAAAAAAnlAE8oAAGBNK9gAAZyMfoQAACSlZQABiOx9PJoAAAAAAAAAABCKhpBNKQBjPRqAAAAAAAAAAAAAJ5QOBiKgABPNh0AAAJRVAAAJZUAAJpuJ5QMhvAAAAAAAAAAAABhPRrOBxNwABKKoAABIIqfrV6AAAlFUAAGMzm05GwAAAAAAAAAAzkAqmk5mAuAHEylAAAAAAAAAAAAAHEynoznc3gAEwpgAAHgiF4AAAllQAAwA0nI4FIAAAAAAAAAAAAGAnm8znQqAAEoqgAAH5VKVdJagAAJRVAABJPBpPRuAAAAAAAAAAIp2OR0OxnK4B8JhUAAAAAAAAAAAAB8PzRvOJQNoABLKgAABMPBVPoAAJhTAAMBgNhkNBVAAAAAAAAAAAABxIhoNRIP0h6ABKKoB8OZ1JxiTuFrg5HUAmm89gA4EYqGA0lIAAAAAAAAAAyksxHY6FU2AAklYAAAAAAAAAAAAHk/Hlg0ns3AAEsqAAAnHIHUogAAnG49gAnHQlnIqlEAAAAAAAAAAAAA/MnctnM0AAEsqAGQ1giHlK6/lD9iDIawDkZTeAACeYSgbgAAAAAAAAADgQTsczwfpgAfCYVAAAAAAAAAAAAAD82dD9AAAATCmAACMdDaQD9OAADkZjcADOaD88C6dAAAAAADxYAAAAAAJpjLwAABMisoGA3g/KJ+g1NEv48/ZyjGaj0ASLKgAAMBOKZtAAAAAAAAAAMp+fl9nwtFEAHAyWbwAAAAAAAAAAAAD8sbi2AAATpagAAPzJZs1H5GP2KgAASbKYAAJpjLwAAAAAAPiAAAAAAAoIAABNWtKPhgKAIVllBFW9KBPKABGuaoAAB9B8AAAAAAAAAABNlrKAABiPtmhAAAAAAAAAAAAAPp8AAABOmqoAAIRZuRFlvKAABIspoAAAUgAAAAAA6TQAAAAAAAAAAEpKqjCbD0CSlZRJKwBPKABKSqoAAAAAAAAAAAAAAEoqgAAEoqH0AAAAAAAAAAAAAAAAAEwpgAAjlgEcsAAAEsqAAAAAAAAAAAAAAAAAAAAAAEpKqieUACPZYlEqynL6BgN4BKSqoAAAAAAAAAAAAAAEkrAA8noEkrAAAAAAAAAAAAAAAAAAEwpgAAlFUEspn0AAEsqAAAAAAAAAAAAAAAAAAAAAAElKy+TEbwCNZZlHCzLLRBgNh7PhLSqoAAAAAAAAAAAAAAE42nQAxG0EkrAAAAAAAAAAAAAAAAAAEwpgAAlFUHA4G4AA8mAogAAAAAAAAAAAAAAAAAAAAAEmytL4JpVB5JdlaUCPZYlGE9msxHSzTKAAAAAAAAAAAAAAB5JxTB5MJQBJKwAAAAAAAAAAAAAAAAABMKYAB8JhUAJRVAAMBrOgAAAAAAAAAAAAAAAAAAAAABIsryiKWgSLKselAjWWZRjPJuI9liUAAAAAAAAAAAAAAACSVgTCmASSsAAAAAAAAAAAAAAAAAATSkAATTeewCSVgACaUgAAAAAAAAAAAAAAAAAAAAAASLK0v0jFkEW5tTQAjXNmaGQ8G4jXNmaAAAAAAAAAAAAAAAAjFkEoqgnmo7AAAAAAAAAAAAAAAAAAGA1nQAEkrAAlFUAAmFMAAAAAAAAAAAAAAAAAAAAAAHlPytfqZcBSPBK1mxnQA5pMqvLwOByM+s286AAAAAAAAAAAAAAAA4n5w1F09A/PH6EAAAAAAAAAAAAAAAAAAAllQA+EsqgA5mEpAHwmlMAAAAAAAAAAAAAAAAAAAAAAA/NJpXQUj84forPcoAH5az9TLIOpKL6aFAAAAAAAAAAAAAAAAEs6FAA/NH6UAAAAAAAAAAAAAAAAAAAllQAmFE9AAEoqgGI7nYAAAAAAAAAAAAAAAAAAAAAAAlGk0n509H6MAAEYyFY9mQrAAAAAAAAAAAAAAAAAEo3nI1gkFcAAAAAAAAAAAAAAAAAAAlFUAllQAAEsqAEoqgAAAAAAAAAAAAAAAAAAAAAAAlHQokcJYUAASE+LYJxyKwAAAAAAAAAAAAAAAABKKpOKIJJWAAAAAAAAAAAAAAAAAAAJRtNB4JJZAABLNhoBCLh9AAAAAAAAAAAOO8AAAAAAAAAAACZnXyXeYjxrNWwAASDrjdIjGs1bx0AAAAAAAAAAAAAAAABMlq51gKYJx71nRYAAAAAAAAAAAAAAAAAAJuNal7Gc42UNZAAE2XVnXYGI7azpsAAAAAAAAAAA7Y2AAAAAAAAAAAIFm2WkTTNc25oAAR7nfNeDiaDJZVlAAAAAAAAAAAAAAAAAknQpAyGAtAAAAAAAAAAAAAAAAAAAlG00GYylMAAE00Go+GYzFMAAAAAAAAAAAAAAAAAAAAAAGKzFLXPZmJNl+UAAQktrwOx7PzFz+nmgAAAAAAAAAAAAAAAAPzZ+iPQBBLwAAAAAAAAAAAAAAAAABwOBtPp5JpUAABLKR6B8JZVAAAAAAAAAAAAAAAAAAAAAABHsqy+wCPZYgoAEeyxKAIdlyUAAAAAAAAAAAAAAAACKWgASCuAAAAAAAAAAAAAAAAAASiqACUVQAASSsACUVQAAAAAAAAAAAAAAAAAAAAAAR7LEoAzHGzfKABHssSgCOldfoAAAAAAAAAAAAAAAAJZUABzJ5UAAAAAAAAAAAAAAAAABJKwAOJmN4ABKKoAJZTPoAAAAAAAAAAAAAAAAAAAAABISuoAEkrAA5mApgA4GVKKgAAAAAAAAAAAAAAACWVAACOWAAAAAAAAAAAAAAAAAASSsAASiqADyTimADwTymAAAAAAAAAAAAAAAAAAAAAAR7LEoAEgrgAwGg7gAEayzKAAAAAAAAAAAAAAAAJZUAAIxZAAAAAAAAAAAAAAAAABKKoPh9BKKoAMJoOx8PoBJKwAAAAAAAAAAAAAAAAAAAAACRywoAyGNK6gDGn1RrABHSwoAAAAAAAAAAAAAAAAlFUAAjlgAAAAAAAAAAAAAAAAA8k4pgyGsEoqgAyH01GQ1gEoqgAAAAAAAAAAAAAAAAAAAAAEgrgHMzGSyxKAPhITQtAAEgrgAAAAAAAAAAAAAAAAllQAAkFcAAAAAAAAAAAAAAAAA+EsqgmFMEoqgAEoqmQ9mgEoqgAAAAAAAAAAAAAAAAAAAAAEkrAGMmpaOigARrOstQA8E4qAAAAAAAAAAAAAAAAAlFUAHknFMAAAAAAAAAAAAAAAAAEAvEIoHQ4Gw6gAEkqko+mk6GArgAAAAAAAAAAAAAAAAAAAAAEkrAEk4pcUAARzyWgCabjoAAAAAAAAAAAAAAAACWVAAfmz9IAAAAAAAAAAAAAAAAAAQjUUj6SDGfowAARjyVjqYjGbTYAAAAAAAAAAAAAAAAAAAAAASTWawQjqWAAAeT8efsgZTGVgAAAAAAAAAAAAAAAACWVADETy6AAAAAAAAAAAAAAAAAASiqACUVQAAfCYVACUVQAAAAAAAAAAAAAAAAAAAAAAfnjUVwQC4ewAAD84fowcD8qfsQAAAAAAAAAAAAAAAACUVQCWeSsAAAAAAAAAAAAAAAAAASyoATjadAAACSVgCWVAAAAAAAAAAAAAAAAAAAAAAASSqfQSCuAAACQVwCQVwAAAAAAAAAAAAAAAACUVQCWajUAAAAAAAAAAAAAAAAAATCmASiqAAACUVQCYUwAAAAAAAAAAAAAAAAAAAAAAZzibgR0sKAAAJKVF9AklYAAAAAAAAAAAAAAAAAmm89gklYAAAAAAAAAAAAAAAAAAHA5msEoqgAAAmFE9AmFMAAAAAAAAAAAAAAAAAAAAAAAklYEdLCgAADOmdaAJJWAAAAAAAAAAAAAAAAAPBhKIJJWAAAAAAAAAAAAAAAAAAAJpSBKKoAAAPBgKQJpSAAAAAAAAAAAAAAAAAAAAAAAJJWBGssygAAAkcsL8JZVAAAAAAAAAAAAAAAAABKKoJJWAAAAAAAAAAAAAAAAAAAJRVBLKgAAABLKh8JZVAAAAAAAAAAAAAAAAAAAAAAAJRVBEubc0AAABFstS5jwbAAAAAAAAAAAAAAAAAATSkCMWQAAAAAAAAAAAAAAAAAACUVQTCmAAAATCmcDgbgAAAAAAAAAAAAAAAAAAAAAACSVgRdZtZ0AAABE1m3nU42nQAAAAAAAAAAAAAAAAAEsqAlFUAAAAAAAAAAAAAAAAAAAlG00EwpgAAAEw1nE0HYAAAAAAAAAAAAAAAAAAAAAAAjlg8EfWbedAAAAQdZvZ1MN50AAAAAAAAAAAAAAAAAOBnNp5JxVAAAAAAAAAAAAAAAAAAAJJrPZjKgAAABKPZ5KR6AAAAAAAAAAAOO8gAAAAAAAAAACZm2ZfhE3isoAAA8pgzqvLOO2s9aAAAAAAAAAAAAAAAAAnZteUSj5ZQ1AAAAAAAAAAAAAAAAAAAJubql+mDWa1AAAATca8nY2bz6AAAAAAAAAAAO2NAAAAAAAAAAACMWQSiqAAADyTimTDYdwAAAAAAAAAAAAAAADkTjcaAST6VQAAAAAAAAAAAAAAAAAACUUziTywAAAARzceDqaAAAAAAAAAAAAAAAAAAAAAAAczMbQTiiAAADmZTcCcUQAAAAAAAAAAAAAAAYDwUgDCbDMfTUAAAAAAAAAAAAAAAAAAeTMawSyoAAADgcjYDCbgAAAAAAAAAAAAAAAAAAAAAATzYfTwYSoAAADAagfDIUQAAAAAAAAAAAAADIZj4bTQAAASiqAAAAAAAAAAAAAAAAAAYTcATygAAACeUADCbgAAAAAAAAAAAAAAAAAAAAAAfnD0Zzqdy6AAACYTzyeD6fojqAAAAAAAAAAAAciOYTmVzeaQAAD4SyqAAAAAAAAAAAAAAAAAASyoAYTcAAADEbQDAajqAAAAAAAAAADhvAAAAAAAAAAAEaXnGo7zXzWdtgAAAzryxrhZ9MtlStKAAAAAAAAAAAAcCVLzl1x01Ph0zfS+bPFg6Z0OOs07AAAAAAAAAAAAAAAAAABHl1y8pR11nbYAAAOJhxr0vVM2pvs7gAAAAAAAAAA742AAAAAAAAAAAAAAAAAAAAAAAAAAAAAAAAAAAAAAAAAAAAAAAAAAAAAAAAAAAAAAAAAAAAAAAAAAAAAAAAAAAAAAAAAAAAAAAAAAAAAAAAAAAAAAAAAAAAAAAAAAAAAAAAAAAAAAAAAAAAAAAAAAAAAAAAAAAAAAAAAAAAAAAAAAAAAAAAAAAAAAAAAAAAAAAAAAAAAAAAAAAAAAAAAAAAAAAAAAAAAAAAAAAAAAAAAAAAAAAAAAAAAAAAAAAAAAAAAAAAAAAAAAAAAAAAAAAAAAAAAAAAAAAAAAAAAAAAAAAAAAAAAAAAAAAAAAAAAAAAAAAAAAAAAAAAAAAAAAAAAAAAAAAAAAAAAAAAAAAAAAAAAAAAAAAAAAAAAAAAAAAAAAAAAAAAAAAAAAAAAAAAAAAAAAAAAAAAAAAAAAAAAAAAAAAAAAAAAAAAAAAAAAAAAAAAAAAAAAAAAAAAAAAAAAAAAAAAAAAAAAAAAAAAAAAAAAAAAAAAAAAAAAAAAAAAAAAAAAAAAAAAAAAAAAAAAAAAAAAAAAAAAAAAAAAAAAAAAAAAAAAAAAAAAAAAAAAAAAAAAAAAAAAAAAAAAAAAAAAAAAAAAAAAAAAAAAAAAAAAAAAAAAAAAAAAAAAAAAAAAAAAAAAAAAAAAAAAAAAAAAAAAAAAAAAAAAAAAAAAAAAAAAAAAAAAAAAAAAAAAAAAAAAAAAAAAAAAAAAAAAAAAAAAAAAAAAAAAAAAAAAAAAAAAAAAAAAAAAAAAAAAAAAAAAAAAAAAAAAAAAAAAAAAAAAAAAAAAAAAAAAAAAAAAAAAAAAAAAAAAAAAAAAAAAAAAAAAAAAAAAAAAAAAAAAAAAAAAAAAAAAAAAAAAAAAAAAAAAAAAAAAAAAAAAAAAAAAAAAAAAAAAAAAAAAAAAAAAAAAAAAAAAAAAAAAAAAAAAAAAAAAAAAAAAAAAAAAAAAAAAAAAAAAAAAAAAAAAAAAAAAAAAAAAAAAAAAAAAAAAAAAAAAAAAAAAAAAAAAAAAAAAAAAAAAAAAAAAAAAAAAAAAAAAAAAAAAAAAAAAAAAAAAAAAAAAAAAAAAAAAAAAAAAAAAAAAAAAAAAAAAAAAAAAAAAAAAAAAAP//EADIQAAEDBAEDAwMEAwEAAgMAAAABAgMEERITBRAgIyEiUBQ0QDAxMzUVJDIlQUNEkLD/2gAIAQEAAQUC/wD2QYKYKYKYKYKYKYKYKYKYKYKYKYKYKYKYKYKYKYKYKYKYKYKYKYKYKYKYKYKYKbXPEiqVFhmP9iMYqStwUwUwUwUwUwUwUwUwUwUwUwUwUwUwUwUwUwUwUwUwUwUwUwUwUwUwUwUwUwUwUwUwUwUwUwUwUwUwUwUlmbG69W801amirMqiMjc2ZuCmCmCmCmCmCmCmCmCmCmCmCmCmCmCmCmCmCmCmCmCmCmCmCmCmCmCmCmCmCmCmCmCmCmCmCmCmCmCmCmCmCmCmCmCmxzxIqlR0Ux/sRjFSRuCmCmCmCmCmCmCmCmCmCmCmCmCmCmCmCmCmCmCmCmCmCmCmCmCmCmCmCmC/nIn1a/t2SQ+6KRJWfDK59U+OJkLeyWnR7oZlevxf3bkSydZYVyikSVnzFSviRERO3/is+FqXKoxrWM7qmJXpFIk0XxNUq6kRGt7f46z5ib+fum/m+FZ7uQ/QpvZP8TN9x3T+kn5l3l3l3l3l3l3l3l3l3l3l3l3l3l3l3l3l3l3l3l3l3l3l3l3l3l3l3l3k07vqlc2Nn+Woc2SMlb+xLydHEsFTDUpVSOZPHI98d3l3l3l3l3l3l3l3l3l3l3l3l3l3l3l3l3l3l3l3l3l3l3l3l3l3l3l3l3l3l3l3l3l3l3l3iTMp6lOXpnENRFUM6OrbrDKkrenqnI3eXeXeXeXeXeXeXeXeXeXeXeXeXeXeXeXeXeXeXeXeXeXeXeXeXeXeXeXeXeXeXeXeXeXeXeXeXeXeXeXebtnI91c/XHHI6SO7y7y7y7y7y7y7y7y7y7y7y7y7y7y7y7y7y7y7y7y7y7y7y7y7y7y7y0haQtIWkLSFpC0haQtIWkLSFpC0haQtIWkLSFpC0haQtIWkLSFpC0haQtIWkHPtzlTBuasMrXUlI1ktbGlQmmVG01KqP5mTXAiPtaQtIWkLSFpC0haQtIWkLSFpC0haQtIWkLSFpC0haQtIWkLSFpC0haQtIWkLSFpC0haQtIWkLSFpC0gxN1bS086RxsVqCpdIXthKNtl6NydX2kLSFpC0haQtIWkLSFpC0haQtIWkLSFpC0haQtIWkLSFpC0haQtIWkLSFpC0haQtIWkLSFpC0haQtIWkLSFpC0haQRFbzXdy3rTRNfptIWkLSFpC0haQtIWkLSFpC0haQtIWkLSFpC0haQtIWkLSFpC0haQtIWkLSGw2Gw2Gw2Gw2Gw2Gw2Gw2Gw2Gw2Gw2Gw2Gw2Gw2Gw2FdE7bG/ZGZJlJZJelU11VWI6ybDYbDYbDYbDYbDYbDYbDYbDYbDYbDYbDYbDYbDYbDYbDYbDYbDYbCaZRqR0sEsupejls10SfTws1Q9KR92bDYbDYbDYbDYbDYbDYbDYbDYbDYbDYbDYbDYbDYbDYbDYbDYbDYbDYbDYbDYbCozjq+6v2PkYuDNhsNhsNhsNhsNhsNhsNhsNhsNhsNhsNhsNhsNhsNheQvIXkLyF5C8heQvIXkLyF5C8heQvIXkLyF5C8heQvIXkLyF5C8heQvIXkLyFVsWljREQWOZsrkqZCNuEZCjmz3kLyF5C8heQvIXkLyF5C8heQvIXkLyF5C8heQvIXkLyF5C8heQvIXkLyF5C8heQvIXkLyF5C8heQvITROma36qZiNRGQ3hf01sR3SscqU7Ucxl5C8heQvIXkLyF5C8heQvIXkLyF5C8heQvIXkLyF5C8heQvIXkLyF5C8heQvIXkLyF5C8heQvIXkLyF5C8heQvIXkKnY6ljeksXaxyurLyF5C8heQvIXkLyF5C8heQvIXkLyF5C8heQvIXkLyF5C8heQvIXkLyF5C8heQykMpDKQykMpDKQykMpDKQykMpDKQykMpDKQykMpDKQykMpDKQykMpDKQykMpDKQykHZubRS3Y7JEd9W8RtaisWUke2KOl2KzKQykMpDKQykMpDKQykMpDKQykMpDKQykMpDKQykMpDKQykMpDKQykMpDKQykMpDKQykMpDKQykMpDKQykMpDJ5SOqFpo3SKtkVSeVW9lRf6vKQykMpDKQykMpDKQykMpDKQykMpDKQykMpDKQykMpDKQykMpDKQykMpDKQykMpDKQykMpDKQykMpDKQykMpDKQykMpDKQykMpC71OPR0cDmKor5mm2ZTF7z9koUlSDKQykMpDKQykMpDKQykMpDKQykMpDKQykMpDKQykMpDKQykMpDKQykMpDKQykMpDKQ1RmqM1RmqM1RmqM1RmqM1RmqM1RmqM1RmqM1RmqM1RmqM1RmqM1RmqM1RmqM1RmqM1RmqM1RiQ/+jTVbahZaWCcZx1JG6SRkMVU9anjmwRtbqjNUZqjNUZqjNUZqjNUZqjNUZqjNUZqjNUZqjNUZqjNUZqjNUZqjNUZqjNUZqjNUZqjNUZqjNUZqjNUZqjNUZqjNUZqjKNjUd0mnbClO16VJt11BUIn1eqM1RmqM1RmqM1RmqM1RmqM1RmqM1RmqM1RmqM1RmqM1RmqM1RmqM1RmqM1RmqM1RmqM1RmqM1RmqM1RmqM1RmqM1RmqM1RmqM1RmqM1RmqMiRGVnZVrjRthjRuqM1RmqM1RmqM1RmqM1RmqM1RmqM1RmqM1RmqM1RmqM1RmqM1RmqM1RmqM1RmqM1RmqM1RnlPKeU8p5TynlPKeU8p5TynlPKeU8p5TynlPKeU8p5TynlPKeU8p5SO/wDkpIGrWf7bVV1YhUQq5vIIjeN8p5TynlPKeU8p5TynlPKeU8p5TynlPKeU8p5TynlPKeU8p5TynlPKeU8p5TynlPKeU8p5TTM2T/bH/XsihYyNVW3IlVHk2mkyjrWqtO1z3t8p5TynlPKeU8p5TynlPKeU8p5TynlPKeU8p5TynlPKeU8p5TynlPKeU8p5TynlPKeU8p5TynlPKeUZl9f2V32XlPKeU8p5TynlPKeU8p5TynlPKeU8p5TynlPKeU8p5TynlPKeU8p5Ta02tNrTa02tNrTa02tNrTa02tNrTa02tNrTa02tNrTa02tNrTa02tNrTa02tNrTa0fURRpSzx1HJ1vtEdpJZWPd7lreU9OMiraeY2tNrTa02tNrTa02tNrTa02tNrTa02tNrTa02tNrTa02tNrTa02tNrTa02tNrTa02tNrTa02tNrTa02tNrTa02tNrTa02tGe2qmau7os1IyX62JSjqYmu2tNrTa02tNrTa02tNrTa02tNrTa02tNrTa02tNrTa02tNrTa02tNrTa02tNrTa02tNrTa02tNrTa02tNrTa02tNrTa02tNrR9RFG2mmZU1ZE/ZGNfkViXooq6nmNrTa02tNrTa02tNrTa02tNrTa02tNrTa02tNrTa02tNrTa02tNrTa02tNrTa02tNrfy3VLUdrqZhlFTsWmb/AOjK3KOFrXMkxYU8dn8izZQMginp/pHRn1D4xHI5PhZvSq6Oa16NYxiFYxisparb8PJVtR+qplGUVO1yNRqzuxgY3Bgz0qB9LBIz6R0Z9TJCNc17fycFMFMFMFMFMFMFMFMFMFMFMFMFMFMFMFMFMFMFMFMFMFJpWQiJWymipRG09Q8ZC5rdTzCca2qhe2sjyez1cxXSyzxQEj56iNkdTbVIa5BaV6DYapRYq1o2o92CmCmCmCmCmCmCmCmCmCmCmCmCmCmCmCmCmCmCmCmCmCmCmCmCmCmCmCmCmCmCmCmCkjmwt89TM2Bb9tXQZOpZPqYMFMFMFMFMFMFMFMFMFMFMFMFMFMFMFMFMFMFMFMFMFMFMFMFMFMFMFMFMFMFMFMFMFJZGwn+48dFVMa2kmlVjGxt61Lfb0emdV2S0SKrYapTXWtGzWdgpgpgpgpgpgpgpgpgpgpgpgpgpgpgpgpgpgpgpgpgpgv400zlfDTsh/QVEVH7I5ptrlxRF73sbI33UK/nKtkSWaqI6SKNxl5O57fpq/wCAmmdnDA2Lq6RjF7FTJI24xjGYu7HSsavRzGvbd1GvxNRLogp4dMZ+xG7Nnc5cWMkR698b8uioipTXhl/Nk/3J+tP7pO3NuzkUvx8T9kX500iQxU8Sxs6qiKiwIRyLl+g96RtSN8o2NjOxUulP4n/ES+SsIpHSvqXrfvV7Djnf637p3Sv1VMmeEUm1lV7HfmVczoooIWwQ9aNbtHvxd1x/9LkFx46hXKg/Ol8lX0qFXV1VEXsvYv2WRV63VKrpVex3xEfryFQ5VERGo9c+Z77IhQKjqX9u/lVwgHeGpr/sE9U/Lj89f2QeyrKtceyH3T8v60NAluP/ADo/dXdHuzrOyL0XpN6M/wDv6OXFsKKkXWpXAat2lYmVE1cm/Dw/fR++sEb/AOv3ukUpHOZCi37+TTKgKpivpql6ScY3/n8qeVIIKSJYaXsqmuarHtkZyHpR9JpNUUEaxQ1Mv1DIm4RfnQ/edGpbmOj34dGfddJ/4GLlP0qPSmT9lf7+nKX/AMcnohU/aw/w/D/88lR+sL5GRpHI1/Jd6rYpH3h7+Q+zZURPUX+r/Lrvczup9saJJDWQ0b1dTl0nmrp3zUlTE2Om/Pb7a+SRsTbSzIvt5LoqXSJytdH930l/igX3dKn7VZEjhiaqJ0rvWB8bsmTXdWLajT0T8PNxm4zcZuM3GbjNxm4zcZuM3GbjNxm4zcZuM3GbjNxm4qXyfWcelXNTMpoo1qV1SfoUL86bvmXOrkijlR1PLGkck7oc3GbjNxm4zcZuM3GbjNxm4zcZuM3GbjNxm4zcZuM3GbjNxm4zcZuM3GbjNxOqrWdtVLppWp9JQ/RxrHVb+PkmqKqWRlExG1/8T12clm4zcZuM3GbjNxm4zcZuM3GbjNxm4zcZuM3GbjNxm4zcZuM3GbjNxm4zcZuM3GbjNxm4qWzVHIMgRris9idZo1e2CRJKjpVfa0t9/SrW1I3zTdZfLXEkbZW10M8Zm4zcZuM3GbjNxm4zcZuM3GbjNxm4zcZuM3GbjNxm4zcbDYbDYbDYbDYbDYbDYbDYbDYbDYbBZka1EWVnSWNs0VHUbY5HKisddeyRVxhi+n7XrizN2b3tjZReVOkzUZUUsqtj2Gw2Gw2Gw2Gw2Gw2Gw2Gw2Gw2Gw2Gw2Gw2Gw2GwrH2SWVWuT1TrW+4qfd05ZP/ORE/yJXOai0Srr2Gw2Gw2Gw2Gw2Gw2Gw2Gw2Gw2Gw2Gw2Gw2Gw2Gw2Gw2GwWZGpRIqxdJGJLHSO20mE8R9U1p9ZTlMrHV3SX+GmtfpX+lDHUU0cX1kJnUSkceCUnvf0VEc2lkVjNhsNhsNhsNhsNhsNhsNhsNhsNhsNn4nJSYUlG1V7I6dssjnyRFPNTvTrNUJGsEDmulibMxsz6der3sY1s8SqtOqpRJah6TR7oaSZVr/AMqSNsscSo5eiVkL3kvu5NWIrzkkvQYeapk1x1afVcr+fX/Z/shK/XGU3tm6y+OfoqXSj/j6VHvd1kdhHRtwos/N0/55P8PWazWazWazWazWazWazWazWazWazWci33UrcKXrTO/383xNRKasX/HQofQiUSEcMcKdFS6LRRn0J/j2C0lHTJHUPkSqdr42n9IOrmYcrrNZrNZrNZrNZrNZrNZrNZrNZrNZrNZrNZrNZrNZrKuFks30EJ/jaQa1rGjfdyvSv8AWmORqtU/HU3i1ms1ms1ms1ms1ms1ms1ms1ms1ms1ms1ms1ms1ms1ms1ms1lSzy9JlRXjVx5PrLE2aKne+3Sh9IR7kYynjer+vIOxoUSySqjJulSn+3rNZrNZrNZrNZrNZrNZrNZrNZrNZr/Eq/JN1ldhGi6quRNRdGNZGrXdHyxxIyqp5FfLHEMqqeRej2uci4ROa17lrmfUFHLsb1rG2ei3T8p3ryfZT/2HSr9XOcjGVWX0zWoxv56eTkelPMs3JkjsalFv2/uSLjHTenT0d21ifVyU0u6m5L7Gml3Qlci/StVHN+F/6Z1q36oYaZG0VO1cmskhRqNa19SxiLHUTkdFTxrJTQSt42kiSnfTQSIlIsQ2ocjmua8VFRZI2wQUcLmNgbrq+r2o6soXZUP5VW58VZrq3mmrQSeoQauTab73o5M6+u+zqGI7kPgIZMHD3/WrUNSF1TLop4qZraOge9kvY1dUzkya1mKyya2xswZ1qpUgpaGFzWQeKqn8tVMx8M0UrJmSPTOgW9D8Kl1ous3nrSvi9W3x7aK303bLEs9eVnid1bda7j/sfyqlf9zsg9OQ6U/vcqI5EXLlvgKO0kX0ECjWo1r2tezBXVRVpqk7K1FdHDIk0MDs2I/PkOyoTfVFZ7EiiRij6OF74oGQnHLeh+EqZVihgp0hg/bpJI2KOijcjCaPbBSybqUkbmxlTGqj3tjbxNSk9KSTRxEXkXpTe+Ye1HsonKjOlkRadPppvyuRXCNk0Uidf+OWF9Ua1GtlmxqqJM5Pz6mXTBSU/wBND0mnZDHSMckRUx7aamk203WHyyUvo2lS0MEWyhgkWSLrT+6sFS6Ukmpf360jPpZfhEVJuQM25GxtfUdaH/jo+NkifRwiUdO11JBFNT/RwoMpoY168d9h0qmuYsM8dRE5zW9K1LQNcjm/k19lgfTQSKiI1OlauFX15mR8UlNFopvz/wCet6QOc+JifWzdaD0p+lS5Uga1GMhtnTfwU9vpm+yr60HrTdK2PFaV+UULlVpVsdgx7ZGfg2kLSFpC0haQtIWkLSFpC0haQtIWkLSFpC0haQqJHwQ0tP8ATsK6l+phpKWWopqBi/S2kLSFpCj9JB7sG9eO+06Ze8k/iomv+htIWkLSFNRpqoaWV9SOTJtOj4JbSFpC0haQtIWkLSFpC0haQtIWkLSFpC0haQtIWkLSFpC0haQtIWkLSFc1303Y5UfyPXk0y5K0haQtIWkLSFpC0haQtIWkLSFpC0haQtIWkLSFpC0haQtIWkLSFpC0haQtIWkLSFpC0hUSSQxQRaYelVK5XcfGqU9pC0haQovReky3qBrMXxpeBjcGVC4SdaBH/QWkLSGL1Slc6mEsvWNHQVFpC0haQtIWkLSFpC0haQtIWkLSFpC0haQtIWk/Cd5q/qjHR8dx/wDX9aP1cfuOllpj6uAdWMKOqVkP1cAtW5yxtxaP/wCKBb8f1orpVU8axp0rUxZ+/wCS5Ec2CpWFWVcbnDnIxtBE569apGP5b8/+av6sjbCygS1B1o/36Rsf9T0p1vEVDNlPHlq6cd/X9aZEzijSJvSsaulrkc38DF5i8xeYvMXmLzF5i8xeYvMXmLzF5i8xeYvFRyJSqqU/WpfrpqeJ7KbF5i8xeUkEsjPpHC0lz6Fii8fTuP8AHUlv8bRof46mv9DHf6M+jdf6WVDj2OShxeYvMXlL7anq5U2UaP1YvMXmLzF5i8xeYvMXmLzF5i8xeYvMXmLzF5i8xeYvMXmLzF5i8xeYvI4ZJKn6Nx9GSU2dT1lfrhhZM6qxeYvMXmLzF5i8xeYvMXmLzF5i8xeYvMXmLzF5i8xeYvMXmLzF5i8xeYvMXmLzF5i8VHIlKq6utS7Glgje2nxeYvMXlI2oWPXVKaqg+nlPp3n07xlGsafTvPp5DTOaqkxqzj2v+kxeYvMXlPdKzq92L6NHpHi8xeYvMXmLzF5i8xeYvMXmLzF5i8xeYvMX/g1y3ga3Ku61i7E6vcjI6BuND+nR+jusvi5C9+tY1XU6LhX/AJND60496Rx0jFSLrXe6NI/qOPhkSaD82tW8Mfv5DrVP2x9VWycd/X/p0S+vV/j5Bjs2dK1rnUjH/wC38A/38lSp7OlQ8pfPN15Bb0yJZP0/4uT61MO6CGpyXoqXR3spPyFWyUCWoCuddeyoeqyxRpFFRexPzX+/kKBP9fpNJrio2Zv61zlSjhjSGH9OJunkutRDuho5suxPHRfANuszWoxgqo1t31kjWoxvWXycj+pW+3tq49L6WbbF0niyjgk20/4862p6X0oy23mes8zYIIY7zD/FyH5qf9xMSKHpO91ZXtajG9ZvJXfqVnsXsr2Op3RyNlj6OiutM/ZS/n0KZ0/TkZlc6CBsEfYyN81YrqiEjkZKz9H6h0q1FNNLTwSbafr+47/za7oqetB6Uv49X9nB9uUyXqetVir6WNzIjkPSl/No0R8HSqmdFHS0zaWHsh99b+pVx7qSCTdB1/cgb9DP0sl6H0pvzql+ulp2aqYkkbFFx8Lu7j/WnJYFR8MzZm9yqiJ7q0REahx3pR9k8DKmDj5H6+lN7ar8edL09Kt6Rzka3jZGyt61TnyTRSsmjKtMqOBcqf8ALnfqp6dmqmFVGtpmrK7t4t+yn7V/aCXc3u4l+VD2TRNmippVe3pB7ar87kPWj6VH+xU9sjsIuO/r+k0CudBUZydk0muONi1fZQv9/bVeCXonpyf46+qcet6Cq89RSfydJ5Uhhpolhhf/AKlSVrsaGNuEX5dd60vSo883a5cW8T7Ye7jlvS9sz9cHGN1s7anwS9P25H86r9zhzka2haurt5Bf9WJmuLryccjGwTMqIOquWv5Psjbp5Ptc1HtolVIiX0r/AMij9qU/vq6f+fo7z1pLG2aKjkdJBW+9v5lV6uFVGpRormdtatqRGJTVHdxn2nbWe9sbdXI9rmo9lG5dRN6Vf5z/AHVxVe9ndP5K/tbH9BUdKt71KeCOmh7K32Sdz/FXFV6J+Q1ddfx6L9FSerhVslD60/RPFyUP+xVfmP8AfWFZ707qn31MyYEEu6LsVbJwsyTUfa6dXTyMSB3dJ4a4qvan6+2M2xm2M2xm2M2xm2M2xm2M2xm2M2xm2M2xizRolMiqgrm/WbYzbGbYzbGbYzbGQeWt7XsbIxk30g+uhKeFY07ayNZaOKojlh2xm2M2xm2M2xla9n05IxJI4JvZtjNsZtjNsZtjNsZtjNsZtjNsZtjNsZtjNsZtjNsZtjNsZtjNsZtjNsZtjOTkRrHvZSUtJEsVMV6r9IiI1r5WRH10albtmVromN2xm2M2xm2M2xm2M2xm2M2xm2M2xm2M2xm2M2xm2M2xm2M2xm2M2xm2M2xm2M2xm2M2xm2NEpUyQza7kdsZtjNsZtjNsZtjIfLXVFO2ojyqOOljljmZ0VyNRz1rSlY+JsNRHOnWqrNrqWiWN1XHtpIqiOSLbGbYzbGbYzbGV8jPoyRiSxwT3j2xm2M2xm2M2xm2M2xm2M2xm2M2xm2M2xm2P9efyydIvvO7j/Wj76BUWl7+P9IO1zUc2ge59ESprn/H5F7WxxwrI/pW/v15FP8Az/3/ADKjyO6ce32d1B60vR9FTvf9JI0+lkUSihuUCY00tNFMv0iofTTH0EThrWsb0ofbF21/9fG9JI2vR5N4J/zKX39f+K7trX66KJmqHuz89DJjx3fB7K/upf4M/PKzbFC/ZD+Msl6iBmEfSr7KtMqOmXKl/Lp/fITSaoqBqspe2ufhRRsSOPv49b0vfH7OR7a73U92sFelPWPY2RlI5Vi/Kq7/AE8crcLpd8mMtR6O7a33foZ2nomP/wAbG9JI+6X2cl3U/wC0EuyrlcrI4vbN+LPLoggjWWOaR8dPtRroqhHxum3r1lS8VCt6D8qZyshp1bHROn1U9OjqlKP7TtrfVO97kYzivSDvl9vIdsvrVVSojZI2ypsYyNPbyP5VZ6U9NkrmLlWyufJJVSx4dsnv5LvVc+MRNPJ8f9r3V3o3uppvHisdNWKuin9XfizvWaqobKyDGarkcj62a2UEbfq+q+qcd/XflKl0pv8AY4dr1qKmGR8M1L/H2ye/kO+vd/qNRIeR7630b2yfdSSfVOldks12kaO+u/KljSWLj3e6jVJKmj9aVzMmtXJvZF7uR6/ska5MK56x0LWtWur/AGMgXGv6Mdfs5BuVA12TOybPTgsjqr7SeV7qSlc1XfiyU8UrqaPGh41tQ+mp1e+t+oektNGscXZxn9d+U5bNhxhbRojJpGvjqIMlk7Y/dyXdXPwpJfJyFd7EytyPdXtyoGuyb2ZJ9TTIuvNv09vq6qmal/y5o20nJxIyOgY3CN8EUq9tJ6y9Z1unTknWj433tljSaGimc6q6L7KnrImUVCuVB3VnrA1zk46jY1lL+LMqtge2VnHU06Q0FG+Onjjek0PYvonG/wBd+Wq++jSOKTvpvWo7uRX2UvknniSaCGZZKrulTKKiW9D2Ogie8qlc2RWXp2MSNn6ubTNpm0zaZtM2mbTNpm0zaZtM2mbTNpXYup6Z8Uhm0zaZtM2mbTNpm0of26t8lZ05tyo2BrIIM2jm6uf6VSLoa5HN68c5P8fm0zaZtM2mbTNpVptp7vhKRWtp82mbTNpm0zaZtM2mbTNpm0zaZtM2mbTNpm0zaZtM2mbTNpUuRaVZGvpG6n0qxvdBBTuZJ2TLaCiVraDNpm0zaZtM2mbTNpm0zaZtM2mbTNpm0zaZtM2mbTNpm0zaZtM2mbTNpm0zaIqPZTRK2pzaZtM2mbTNpm0zaUfqvdy8uopmNp6bNo/xcz38e5P8fm0zaZtM2mbTNpV2Kd0clVm0zaZtM2mbTNpm0zaZtM2mbTNpm0zaYNMGmDTBpg0waYNMGmDTBpg0waYNMGmthrYhg0waYNMGmDTBpg04/wDh6L6JR/b9Ktm3ksGmDSujRs/Wj9IuvGtb9Bg0waYNMGmDTBpg0waYNMGmDTBpg0waYNMGmDTBpg0waYNMGmDTBpg0waYNMGmDTBpg0kszke+sW1FBG1KfBpg0waYNMGmDTBpg0waYNMGmDTBpg0waYNMGmDTBpg0waYNMGmDTBpg0waYNMGmDTBpg0waYNMGmDSh/burI0mr8GmDSuhb9R38e1q0ODTBpg0waYNMGmDTWwwaYNMGmDTBpg0waYNMGmDTBpg0waYN/I4/7bpWKv0qIjU6L68v05H0purfZXdeO+z/PqvSp7+S/rvhaL/nud68x05L0pe/jvsvjeP8AtelR7pesXu5XpySX45q5N6TelT1477P8+v8ASLsv69K/1j+Fov8AnuZ68p05JL8cnqndx32PxtD+w5cWr613Wi903SZmyCgfsoOlV/wi+4X0Tjf678+vbnQRuzj6sXOp6VHurfhaT0f3UvuqukzNkFE/Oi7VXFKBLUHxtN7a0emTKZc5ejnI1vGtVKDrx/tj6Vn2kK5PKx+qjp2aqb89zcm8et6Ho5Ua2ibam6M8nKfCx+3kO1fROP8AWk60Hti7a12NExuEfxr/AB8r0of+unJOX6RrUa3qnh5XpV/aUnrEch7ovgabx1fSt9zOvH+6L4Wb2VnbXuVKRjUYzq3xcn21fvX47kEVIEVHIUf3HR/m5Xs5H2R9Kr7Wj+0F83KfA1S6KrpB/sVHSukWKiijSKH4WsYrqaN6SR9knl5DsrvYztb5a/45Uybx9akbnORrKVL9HORjOPRXR9j2JJHx8irATNzjpnJjWVjKWPi7upPgZYmzRfW1EStZVVYiI1OnKvXH4ei9jOyh97ex7EkjoXqtP1VbJQIv0nx60kc9U2hdlVTLTPa5HN5iRywMajGdr3fS8yS1GdVUUu101Hohgj00/wAE305Sse+KHrUe+p+Hh9K/ryF/omtRre1qa+T61jsaKFuMPx7f7X/8xzWvZMyo46mkg1yd1Uxq1jfq2VNNSspm1K2h5L+v+Dd6cpKzZDTP2UvStRET4dvpynWq903dUe2q68kv/nfIN/tb25E5D3Mk93K93IejJPZypWr4OT/r/g6r21BQfY9OR9tH8Oz15SL9hzsWJ61vdX+kDF8nSr93EJ6p+PtabWm1ptabWm1ptabWm1ptabWm1ptabWm1ptabWm1ptabWm1ptabWm1pTuz5KrcsVXHUMlevl5VHJ/l9rTa02tNrTa02tOTkavH8j6U8kjYo5pt9RyKX41kzVZtabWm1ptabWm1ptabWm1ptabWm1ptabWm1ptabWm1ptabWm1ptabWm1ptabWm1ptabWm1ptabWm1ptaV7kdRsekkdD6U/SvbnQQVDXwbWm1ptabWm1ptabWm1ptabWm1ptabWm1ptabWm1ptabWm1ptabWm1ptabWm1ptabWm1ptabWm1ptabWm1ptabWm1pTLlXMcrXbFJ5FWFHInJbWm1ptabWm1ptaV72uoFfjUbFNjiRuXFQTNWn2tNrTa02tNrTa02tNrTa02tNrTa02tNrTa02tNrTa02tNrTa02tNrfyeOXZPMl6wpkvNEv8A6/dyq24x7NtPSrlSVKeWpbnS8bJt474Og9jG3irelTGslPxUmzjvhqP1fH/0Tf8ADPTku7kFtx/7VB/8RplS8et+P+Oq5tFLxUOmixTMhZgx7dXK93JJtYn/ADAzXE5qOQ4m8C/BtXXyypfspm/Tch8LNIkMNHGsVJboqXJfZyHdW+pb3dESyUvsn+OrffMxuDOvJelL3fycv2TN01/wcce2XsrvGnwtd72dnIelP3O8nJ9knj5H45PJy/ZUR7qeik20XbR++o7OT9KP4Oi/fsexJI+PerqT4T+TlOyZmyGifsou2l91R2cgn+oi3T42i90vbQ+3te7BnHtxoOyaPbDQP2UHwVD/AA9tN7K74Si9zu2h9vaq4t49F+i7HtR7OPcrqD43jPWi7af+w7K5bUEKWg7eM9KX4Lj/ALPt/bmfhON+w6Ktk6QenIdlauNDC3GEv69aH0b8bxf9b2Uy5U9L61vZVtzo6V2dJTuu3s4//j4LjfsO1/8Ab/Br/wA8d/XdJlu7pT+td2VTc6SmdnSki4TdaP8Ak+N430oer1tHS+lFxvrTdi+qcatqSm/k7OO+2+C477DtYmfK/Ccb/XdIXNkqelB7ou3jvSkKlGughk2R9KL1X42h9F61a40dSqs4tjEjj7WeHlKf7zq52LeObjx3wXHfY9jnIxtCjtPwnHTsRL2Tc+vdPF4aeoZUR1sispoo0ii7W+Hkf2In/VzzslifTVLKmKWaOBnGLlRfGw+3kuvJux4z+fkO7kEwZA7/ANTryDsOPjbrj+CofRnZWSLU1PwrII5KlOPphEREHUbmTxMnl5Pu5NjlpFgqaqOONsUZJSQSukp6ekipI9VJ8a728q9b1HTmVtxXHJlB3Oajm8W5U5HpMuJyHrD8HT+2s61cjoqenia2u+Fd7OT7KD3RdypdKBV+m68h7oPjuVc6FtDskTpzLVfx7Goxne2PXz/SaPbDDNNPyXwa+zlOtQt6qg90XwtX7X9a56so42JHH3s8fJdZ/dW/Hckn+h1qfJW/oVnsn6t9/LfB1ntd1rPGymj00vwvIfZdar31P6FV7Kjqnu5P46dmyno37KLoz38t+hyaf+ei3TpSe6o+Dr25UDHZs6cj60vw07NkFK/ZSdG+/lP0OQRfokVHN6U/rVfH8b9h0o/dUfoTs2U9C/Og6cf6w/BvbmygdlQdKr3Vfw9D6UvSj9z/ANB7Uezj3ZUHSi/i+PoP+enG+sX6PFf13Tjf674Tjvs+jvdy3w9D14/7P9Gh/i6cb/X/AB9L6VXTivsP0eM+2Kh2NNSNxo/hKFLQdG/3Hw9L6VXTj/sP0aPpMtoKJMaH4+D+w6cT/W/o8Z/EV/px7PSP4Tj1youjf7X4eH+wV1qg4/7H9GjJnYtrFtQxJjD8fE9E5Ec7FnE/1v6PFuuwr3I2iZ/H8HM/XDQxrFQuWzWOR7L/APq/Dxutyjl/245M4OO+w/RolQkkybyTseOT/n8fYhsQ2IbENiGxDYhsQ2IbENiGxDYhsQ2IbENiGxDYhsQ2IbENiGxCnajuQ6cf4INiGxDYhsQ2IbENiGxBZUtxseFIV8aS0EcqLHsQ2IbENiGxDYhsQ2IbENiGxDYhsQ2IbENiGxDYhsQ2IbENiGxDYhsQ2IbENiGxDYhsQ2IbENiGxCdyVD+lP4p5Fw5LYhsQ2IbENiGxDYhsQ2IbENiGxDYhsQ2IbENiGxDYhsQ2IbENiGxDYhsQ2IbENiGxDYhsQ2IbENiGxDYhsQ2IQrlyT0/2qSy0XHORlDsQ2IbENiGxDYhsQ2IbEOO9Yl9ycil+OSVMdiGxDYhsQ2IbENiGxDYhsQ2IbENiGxDYhsQ2IbENiGxDYhsQ2J+TGjl5LpQuSRv6CpdOPfsoSvjfLSwuR8HwMkjIWbJ6khgZA3pB56ms9i/DwtX6+yXhj0wcb9v+jxn2TIUYVcbpqSB2cHxz3pGylYrYelN7ZP0Huwjo240fSl8fwM1UkboqVc+tVk6FqI1tVFvpaaXfTfCucjW0zVSHpTe2q/QnfrgpGa6PpT+34+s9Ys25NejiORJGxe3kP0K12NDG3CKORJG7WLG5UbXfmzVMcBtq3mmqlIoI4G99D6N+Fqfc3r+3IfoVvrS9X+yr+Oq5mvmfWRtf9c1kDnOUjnSSt/QrlRIHzOmd9ZpmSqY9Jahkjo3tlj/JkkZFG/lImqvJTPIaprXNWqlVjJGr3qtkofVnwqP2V3Vfvv0Kr+LrV31RyJLH+NeQvIXkLyF5C8heQvIXkLyF5C8heQvIXkLyF5C8heQvIXkLyF5BKFzZEo52xTR1ci7asa2d015C8heQvIXkLyF5C8hM2WVmyrQcysllfFUyTfQyYwRvgivIXkLyF5C8heQvIXkLyF5C8heQvIXkLyF5C8heQvIXkLyF5C8heQvITMfNE6iqXK+krHJHHVRmFe41VqCPrmpvqhXVzjVWKYVzDdVobatRaeomLyF5C8heQvIXkLyF5C8heQvIXkLyF5C8heQvIXkLyF5C8heQvIXkLyF5C8heQvIXkLyF5C8heQvIXkLyF5B9LU2Ra5DfXjpK9yQxztfeQvIXkLyF5C8heQvIStfLEi18blnrhJK5UWKufNEx8Ud5C8heQvIXkLyF5C8heQvIXkLyF5C8heQvIXkLyF5C8heQvJ//AAwf/8QAKBEAAQQDAQACAgMBAQEBAQAAAAECERIiUWEhIDBAcBAxQYCQYKCw/9oACAEDAQE/Af8A0gjpHSOkdI6R0jpHSOkdI6R0jpHSOkdI6R0jpHSOkdI6R0jpHSOkdI6R0jpHSCOkdI6R0jpHSOkdI6R0jpHSOkdI6R0jpHSOkdI6R0jpHSOkdI6R0jpHSOkdI6R0jpHSOkdI6R0jpHSOkdI6QR0jpHSOkdI6R0jpHSOkdI6R0jpHSOkdI6R0jpHSOkdI6R0jpHSOkdI6R0jpHSOkdI6R0jpHSOkdI6R0jpHSOkdI6R0gjpHSOkdI6R0jpHSOkdI6R0jpHSOkdI6R0jpHSOkdI6R0jpHSOkdI6R0jv/cPp6enp6enp6enp6enp6enp6enp6enp6enp6env0+np6enp6enp6enp6enp6enp6enp6enp6enp6enp6enp6enp6e/Usnp6enp6enp6enp6enp6enp6enp6enp6enp6enp6enp6enp6enp6enp79Pp6enp6enp6enp6enp6enp6enp6enp6enp6enpkZGRkZGRkZGRkZGRkZGRkZGRkZGRkZGRkZGRkJ9GRkZGRkZGRkZGRkZGRkZGRkZGRkZGRkZGRkZGRkZGRkZGRkZGQk/79Kz/AIZGRkZGRkZGRkZGRkZGRkZGRkZGRkZGRkZGRkZGRkZGRkZGRkZGRkZGQn0ZGRkZGRkZGRkZGRkZGRkZGRkZGRkZGRkZGRkZFixYsWLFixYsWLFixYsWLFixYsWLFixYsT9FixYsWLFixYsWLFixYsWLFixYsWLFixYsWLFixYsWLCL9UlixYsWLFixYsWLFixYsWLFixYsWLFixYsWLFixYsWLFixYsWJ+ixYsWLFixYsWLFixYsWLFixYsWLFixYsWMjIyMjIyMjIyMjIyMjIyMjIyMjIyMjIyMjIyMj35rP8AhkZGRkZGRkZGRkZGRkZGRkZGRkZGRkZGRkZGRkZGRkZGRkZGRl9WRkZGRkZGRkZGRkZGRkZGRkZGRkZGRkZGRkZGRkZGRkZGRkZGRkZGRkZHvzWf8MjIyMjIyMjIyMjIyMjIyMjIyMjIyMjIyMjIyMiXaJdol2iXaJdol2iXaJdol2iXaJdol2iXaJdol2iXaJdol2iXaJdol2iXaJdol2iXaJdol2iXaJdr5ypLtEu0S7RLtEu0S7RLtEu0S7RLtEu0S7RLtEu0S7RLtEu0S7RLtEu0S7RLtEu0S7RLtEu0S7RLtEu0S7RLtEu0S7RLtEu0S7RLtfSpLtEu0S7RLtEu0S7RLtEu0S7RLtEu0S7RLtEu0S7RLtEu0S7RLtEu0S7RLtEu0S7RLtEu0S7RLtEu0S7RLtEu0S7RLtEu0S7RLtEu0S7RLtEu0S7RLtfOVJdol2iXaJdol2iXaJdol2iXaJdol2iXaJdol2iXaJdol2iXaJdol2iXaJdol2iXaJdol2iXaJdoq3RVuirdFW6Kt0Vboq3RVuirdFW6Kt0Vboq3RVuirdFW6Kt0Vboq3RVuirdFW6Kt0Vboq3RVuirdFW6Kt186oVboq3RVuirdFW6Kt0Vboq3RVuirdFW6Kt0Vboq3RVuirdFW6Kt0Vboq3RVuirdFW6Kt0Vboq3RVuirdFW6Kt0Vboq3RVuirdFW6Kt0Vbr6VSSrdFW6Kt0Vboq3RVuirdFW6Kt0Vboq3RVuirdFW6Kt0Vboq3RVuirdFW6Kt0Vboq3RVuirdFW6Kt0Vboq3RVuirdFW6Kt0Vboq3RVuirdFW6Kt0Vboq3RVuirdER8qoVboq3RVuirdFW6Kt0Vboq3RVuirdFW6Kt0Vboq3RVuirdFW6Kt0Vboq3RVuirdFW6Kt0Vboq3RVuirdGRkZGRkZGRkZGRkZGRkZGRkZGRkZGRkZGRkZGRkJP+/LIyMjIyMjIyMjIyMjIyMjIyMjIyMjIyMjIyMjIyMjIyMjIyMjIyMvpyMjIyMjIyMjIyMjIyMjIyMjIyMjIyMjIyMjIyMjIyMjIyMjIyMjIyMjIyEn/AH5ZGRkZGRkZGRkZGRkZGRkZGRkZGRkZGRkZGRkZGRZCyFkLIWQshZCyFkLIWQshZCyFkLIWQshZCyFkLIWQshZCyFkLIWT52QshZCyFkLIWQshZCyFkLIWQshZCyFkLIWQshZCyFkLIWQshZCyFkLIWQshZCyFkLIWQshZCyFkEWfkqwWQshZCyFkLIWQshZCyFkLIWQshZCyFkLIWQshZCyFkLIWQshZCyFkLIWQshZCyFkLIWQshZCyFkLJ87IWQshZCyFkLIWQshZCyFkLIWQshZCyFkLIWQshZCyFkLIWQshZCyfqGOkdI6R0jpHSOkdI6R0jpHSOkdI6R0jpHSOkdI6R0jpHfwY6R0jpHSOkdI6R0jpHSOkdI6R0jpHSOkdI6R0jpHSOkdI6R0jpHSOkdI6R0jpHSOkdET6I6R0jpHSOkdI6R0jpHSOkdI6R0jpHSOkdI6R0jpHSOkdI6R0jpHSOkdI6R0jpHSOkd/BjpHSOkdI6R0jpHSOkdI6R0jpHSOkdI6R0jpHSOkdI6R3/3BldEroldEroldEroldEroldEroldEroldEroldEroldEroldEroT8iV0SuiV0SuiV0SuiV0SuiV0SuiV0SuiV0SuiV0SuiV0SuiV0SuiV0SuiV0SuiV0SuiV0Iv2qSuiV0SuiV0SuiV0SuiV0SuiV0SuiV0SuiV0SuiV0SuiV0SuiV0SuiV0SuiV0SuiV0SuiV0SuiV0SuhPyJXRK6JXRK6JXRK6JXRK6JXRK6JXRK6JXRK6JXRK6JXRK6JXRK6LFixYsWLFixYsWLFixYsWLFvyVWCxYsWLFixYsWLFixYsWLFixYsWLFixYR322LFixYsWLFixYsWLFixYsWLFixYsWLFixYsWLfkqsFixYsWLFixYsWLFixYsWLFv1DXpXpXpXpXpXpXpXpXpXpXpXpXpXpXpXpXpXpXoifkqkleleleleleleleleleleleleleleleleleleleleleleleleleleleiJ9apJXpXpXpXpXpXpXpXpXpXpXpXpXpXpXpXpXpXpXpXpXpXpXpXpXpXpXpXpXpXpXoifkqV6V6V6V6V6V6V6V6V6V6V6V6V6V6V6V6V6V6V7+T/v3r+kU/AT/i9P+KYcQ4hxDiHEOIcQ4hxDiHEOIcQ4hxDiHC2+PpDiHEOE+yFIcQ4h3x9khxDiHEOIcQ4hxDiHEOIcQ4hxDiHEOIcQ4hxDiHEOIcQ4hx79UOIcQ4hxDiHEOIcQ4hxDiHEOIcQ4hxDiHEOIcQ4hxDiHEOIcQ4hxDiHEOId8VkhxDiHfb6Q4hxDviskOIcQ4hxDiHEOIcQ4hxDiHEOIcQ4hxDvx0/IX/AOyhdkLshdkLshdkLshdkLshdkLshdkLshdkLshdkLshd/JEXZC7IXZC7+2FIXZC7IXYnxhSF2QuyF2QuyF2QuyF2QuyF2QuyF2QuyF2QuyF2QuyF2QuyF2QuyF2QuyF2QuyF2J9MLshdkLshdkLshdkLshdkLshdkLshdkLshdkLshdkLshdkLshdkLshdkLshdkLshdkLshdkLshdkLv5QuyF2QuyF39sKQuyF2QuxPjCkLshdkLshdkLshdkLshdkLshdkLshdkLshdkLshd/jL+L/v6L/tfxV/RSr/gnn439L+iY/Uqfp9f6+/8A39Ir9/8Av6R/371/+5shZCyFkLIWQshZCyFkLIWQshZCyfyqohZCyFkLIWQsn4NkLIWQshZCyFk/lVRCyFkLIWQshZCyFkLIWQshZCyFkLIWQshZCyFkLIWQshZPpsmyyFkLIWQshZCyFkLIWQshZCyFkLIWQshZCyFkLIWQshZCyFkLIWT+VVELIWQshZCyFk/BshZCyFkLIWQsn8qqIWQshZCyFkLIWQshZCyFkLIWQsn/ADCn/jBKEoShKEoShKEoShKEoShKEoShJKEoShKEoShKfTKEoJ9EoShKEoShKEoShKEoShKEoShKEoShKEoShKEoShKEoShKEoShKEoSn1ShKEoShKEoShKEoShKEoShKEoShKEoShKEoShKEoShKEoShKEoShKEoShKEoSn0yhKfTKEoShKEoShKEoSShKEoShKEoShKEoShKEoShKEIQhCEIQhCEIQhCEIQhCEIQhCEIQhCEIQhCEIQgnzUhCEI+iEIQhCEIQhCEIQhCEIQhCEIQhCEIQhCEIQhCEIQhCEIQhCEIQhCEIT6oQhCEIQhCEIQhCEIQhCEIQhCEIQhCEIQhCEIQhCEIQhCEIQhCEIQhCEIQhCEIT6aoQhH0QhCEIQhCEIQhCEIQhCEIQhCEIQhCEIQhCEIQhCfr//AH+V/Tv+/wAr/X6dT4J80/R3+/JfrX+v0evyX4r8l/SCf18U38VE+KfpVPPknxT/AK4uhdC6F0LoXQuhdC6F0LoXQuhdC6F0LoXQuhdC6F0LoXQRZ+CrCl0LoXQuhdC6Fk+N0LoXQuhdC6F0LoXQuhdC6F0LoXQuhdC6F0LoXQuhdC6F0LoXQuhdC6F0LoXQuhdCyfKyF0LoXQuhdC6F0LoXQuhdC6F0LoXQuhdC6F0LoXQuhdC6F0LoXQuhdC6F0LoXQuhdC6F0Lp8VWC6F0LoXQuhdCyfGyF0LoXQuhdC6F0LoXQuhdC6F0LoXQuhdC6F0LoXQuhdPyU+H+/Nfin6PX8H/AH9KL9i/pVPrX/i9P/0nJ+lk+pP6/SyfU3+v0s3/AH6m/wBf/d2LFixYsWLFixYsWLFixYsWLFixYsJ/MwWLFixYsWLFhP6/mxYsWLFixYsWLFixYsWLFixYsWLFixYsWLFixYsWLFhFn4KsFixYsWLFixYsWLFixYsWLFixYsWLFixYsWLFixYsWLFixYRZ/mxYsWLFixYsW+FixYsWLFixYsWLFixYsWLFixYsWLf+QMuJcS4lxLiXEuJcS4lxLiXEuJcS4lxLiXEuJcS4lxLiXaPT3+FklxLiXEuJcS4lxLiXfz6S7RLiXEuJcS4lxLiXEuJcS4lxLiXEuJcS4lxLiXEuJcS4lxLiXEu0S7R7/EqS7X8qS7RK/wAypLiXEuJcS4lxLiXEuJcS4lxLiXEuJcS4lxLiXEuJcS4lxLiXEuJcS4lxLiXEuJcS4lxLiXEu0e/z6S4lxLiXEuJcS4lxLvhKkuJcS4lxLiXEuJcS4lxLiXEuJcS4lxLiXEuJcS4lxLv/AOGD/8QAKREAAgMBAQEAAQQCAgMBAQAAABIBAlERImEgMEBBcBAxIYAyYJCgsP/aAAgBAgEBPwH/AOkDRg0YNGDRg0YNGDRg0YNGDRg0YNGDRg0YNGDRg0YNGDRg0YNGDRg0YNGDRg0YNGDRg0YNGDRh34dGjBowaMGjBowaMGjBowaMGjBowaMGjBowaMGjBowaMGjBowaMGjBowaMGjBowaMGjBowaMGjBowaMGjBowaMGjBowaMGjBowaMGjBow7GHfg0YNGDRg0YNGDRg0YNGDRg0YNGDRg0YNGDRg0YNGDRg0YNGDRg0YNGDRg0YNGDRg0YNGDRg0YNGDRg0YNGDRg0YNGDRg0YNGDRg0YNGDRg0YNGDRh34dGjBowaMGjBowaMGjBowaMGjBowaMGjBowaMGjBowaMGjBowaMGjBowaMGjBowaMGjBowaMGjP+8PKnKnKnKnKnKnKnKnKnKnKnKnKnKnKnKnKnKnKnKnKnKnKnKnKnKnKnK/o8qcqcqcqcqcqcqcqcqcqcqcqcqcqcqcqcqcqcqcqcqcqcqcqcqcqcqcqcqcqcqcqcqcqcqcqcqT+jHP5OVOVOVOVOVOVOVOVOVOVOVOVOVOVOVOVOVOVOVOVOVOVOVOVOVOVOVOVOVOVOVOVOVOVOVOVOVOVOVOVOVJ/Q5U5U5U5U5U5U5U5U5U5U5U5U5U5U5U5U5U5U5U5U5U5U5U5U5U5U5U5U7XDtcO1w7XDtcO1w7XDtcO1w7XDtcO1w7XDtcO1w7XDtcO1w7XDtcO1w7XDtcO1w7XDtcO1w7XCefx+h2uHa4drh2uHa4drh2uHa4drh2uHa4drh2uHa4drh2uHa4drh2uHa4drh2uHa4drh2uHa4drh2uHa4drh2uHa4drh2uHa4drh2uE8/j9GOfydrh2uHa4drh2uHa4drh2uHa4drh2uHa4drh2uHa4drh2uHa4drh2uHa4drh2uHa4drh2uHa4drh2uHa4drh2uHa4drh2uHa4drh2uHa4drh2uE/P0O1w7XDtcO1w7XDtcO1w7XDtcO1w7XDtcO1w7XDtcO1w7XDtcO1w7XDtcO1w7XDtcO1w7XDtcO1wUUUUUUUUUUUUUUUUUUUUUUUUUUUUmP0FFFFFFFFFFFFFFFFFFFFFFFFFFFFFFFFFFFFJjn6Siiiiiiiiiiiiiiiiiiiiiiiiiiiiiiiiiiiiiiiiikx+gooooooooooooooooooooooooooop5PJ5PJ5PJ5PJ5PJ5PJ5PJ5PJ5PJ5PJ5PJ5PJ5PJ5PJ5/OOfyeTyeTyeTyeTyeTyeTyeTyeTyeTyeTyeTyeTyeTyeTyeTyeTyeTyeTyef0vJ5PJ5PJ5PJ5PJ5PJ5PJ5PJ5PJ5PJ5PJ5PJ5PJ5PJ5PJ5PJ5PJ5PJ5PJ5PJ5PJ5PP5xz+TyeTyeTyeTyeTyeTyeTyeTyeTyeTyeTyeTyeTyeTyeTldOV05XTldOV05XTldOV05XTldOV05XTldOV05XTldOV05XTldOV05XTldOV05XTldOV05XTldOV384iNOV05XTldOV05XTldOV05XTldOV05XTldOV05XTldOV05XTldOV05XTldOV05XTldOV05XTldOV05XTldOV05XTldOV05XTldOV39GDldOV05XTldOV05XTldOV05XTldOV05XTldOV05XTldOV05XTldOV05XTldOV05XTldOV05XTldOV05XTldOV05XTldOV05XTldOV05XTldOV05XTld/OIg5XTldOV05XTldOV05XTldOV05XTldOV05XTldOV05XTldOV05XTldOV05XTldOV05XTldOV05XR7aPbR7aPbR7aPbR7aPbR7aPbR7aPbR7aPbR7aPbR7aPbR7aPbR7aPbR7aPbR7aPbR7aPbR7aTPfye2j20e2j20e2j20e2j20e2j20e2j20e2j20e2j20e2j20e2j20e2j20e2j20e2j20e2j20e2j20e2j20e2j20e2j20e2j239GJmP9D20e2j20e2j20e2j20e2j20e2j20e2j20e2j20e2j20e2j20e2j20e2j20e2j20e2j20e2j20e2j20e2j20e2j20e2j20e2j20e2j20e2j20me/wC/ye2j20e2j20e2j20e2j20e2j20e2j20e2j20e2j20e2j20e2j20e2j20e2j20e2j20e2j20e2ng8Hg8Hg8Hg8Hg8Hg8Hg8Hg8Hg8Hg8Hg8Hg8Hg8Hg8Hgnn8fl4PB4PB4PB4PB4PB4PB4PB4PB4PB4PB4PB4PB4PB4PB4PB4PB4PB4PB4PB5/wAf8fn4PB4PB4PB4PB4PB4PB4PB4PB4PB4PB4PB4PB4PB4PB4PB4PB4PB4PB4PB4PB4PB4J5/H5eTweDweDweDweDweDweDweDweDweDweDweDweDweDweBJEkSRJEkSRJEkSRJEkSRJEkSRJEkSRJEkSRJEkSRJEkSRJEn81kSRJEkSRJEkSRJEkSRJEkSRJEkSRJEkSRJEkSRJEkSRJEkSRJEkSRJEkSRJEkSRJEkSSY5+UR0SRJEkSRJEkSRJEkSRJEkSRJEkSRJEkSRJEkSRJEkSRJEkSRJEkSRJEkSRJEkSRJEkSRJEn84rMiSJIkiSJIkiSJIkiSJIkiSJIkiSJIkiSJIkiSJIkiSJIkiT/ULRg0YNGDRg0YNGDRg0YNGDRg0YNGDRg0YNGDRg0YNGDRg0YNGDRg0YNGfsexg0YNGDRg0YNGDRg0YNGDRg0YNGDRg0YNGDRg0YNGDRg0YNGDRg0YNGDRg0YNGDRg0YNGDRg0YNGDRg0YNGEz+g0YNGDRg0YNGDRg0YNGDRg0YNGDRg0YNGDRg0YNGDRg0YNGDRg0YNGDRg0YNGDRg0YNGDRg0YNGDRg0YNGDRh39g0YNGDRg0YNGDRg0YNGDRg0YNGDRg0YNGDRg0YNGDRg0YNGDRg0YNGDRn/WyP/iqsaLGixosaLGixosaLGixosaLGixosaLGixosaLGixosaLGkx+4WNFjRY0WNFjRY0WNFjRY0WNFjRY0WNFjRY0WNFjRY0WNFjRY0WNFjRY0WNFjRY0mP1YgWNFjRY0WNFjRY0WNFjRY0WNFjRY0WNFjRY0WNFjRY0WNFjRY0WNFjRY0WNFjRY0WNFjRY0WNJj9wsaLGixosaLGixosaLGixosaLGixosaLGixosaLGixosaLGifRPon0T6J9E+ifRPon0T6J9E+ifRPon0T6J9E+ifRPv7mK9E+ifRPon0T6J9E+ifRPon0T6J9E+ifRPon0T6J9E+ifRPon0T6J9E+ifSa8/VX6J9E+ifRPon0T6J9E+ifRPon0T6J9E+ifRPon0T6J9E+ifRPon0T6J9E+ifRPon0T6J9/cxXon0T6J9E+ifRPon0T6J9E+ifRPon0T6J9E+ifRPon3+oX+D/B/g/wAH+D/B/g/wf4P8H+D/AAf4P8H+D/B/g/wf4Tbv7mJ4P8H+D/B/g/wf4P8AB/g/wf4P8H+D/B/g/wAH+D/B/g/wf4P8H+D/AAf4P8H+D/Cbd/TieD/B/g/wf4P8H+D/AAf4P8H+D/B/g/wf4P8AB/g/wf4P8H+D/B/g/wAH+D/B/g/wf4P8H+D/AAm3f3MTwf4P8H+D/B/g/wAH+D/B/g/wf4P8H+D/AAf4P8H+D/B/n7n+P14/pGf2E/8AS+c/ZT/Ts/8AvXa4drh2uHa4drh2uHa4drh2uHa4drh2uHa4drh2uHa4drhC5+P/AB/J2uHa4drhP6na4drh2uHa5+Mc5/ydrh2uHa4drh2uHa4drh2uHa4drh2uHa4drh2uHa4drh2uHa4drh2uHa4drh2uHa4drhK/pdrh2uHa4drh2uHa4drh2uHa4drh2uHa4drh2uHa4drh2uHa4drh2uHa4drh2uHa4drh2uHa4drh2uHa4drh2ufjHP5O1w7XDtc/V7XDtcO1w7XPxjn8na4drh2uHa4drh2uHa4drh2uHa4drh2uHa4drh2uHa4drn7ef2k/hH/uXa4drh2uHa4drh2uHa4drh2uHa4drh2uHa4drh2uHa4drn5TMYdrh2uHa5+rExh2uHa4drhb8YmMO1w7XDtcO1w7XDtcO1w7XDtcO1w7XDtcO1w7XDtcO1w7XDtcO1w7XDtcO1w7XDtcO1wn9HtcO1w7XDtcO1w7XDtcO1w7XDtcO1w7XDtcO1w7XDtcO1w7XDtcO1w7XDtcO1w7XDtcO1w7XDtcO1w7XDtc/LsYdrh2uHa5+rExh2uHa4drhP4xMYdrh2uHa4drh2uHa4drh2uHa4drh2uHa4drh2uHa4drn7aP2v8AH9F/6j9rBP8Ax/RNY/mSZ7+2/wDKP6J7/Us/rT/SNY7P6/8AH9Ix+v8Ax/SP8frx/wC8pbBLYJbBLYJbBLYJbBLYJbBLYJbBLYJbBLYJbP8AMRM/6EtglsEtglsEtgls/YpbBLYJbBLYJbBLYJbP8xWZ/wBCWwS2CWwS2CWwS2CWwS2CWwS2CWwS2CWwS2CWwS2CWwS2CWwS2CWwS2CWwmsx+ilsEtglsEtglsEtglsEtglsEtglsEtglsEtglsEtglsEtglsEtglsEtglsEtglsEtglsEtgls/zFZn/AEJbBLYJbBLYJbBLZ+xS2CWwS2CWwS2CWwW2f5isz/oS2CWwS2CWwS2CWwS2CWwS2CWwS2CWwS2CWz/rDP8A8YFkWRZFkWRZFkWRZFkWRZFkWTknJFkWRZFkWRZFn9HkiyTH6HJFkWRZFkWRZFk5IsiyLIsiyLIsiyLIsiyLIsiyLIsiyLIsiyLIsiz+lyRZFkWRZFkWRZFkWRZFkWRZFkWRZFkWRZFkWRZFkWRZFkWTkiyLIsiyLIsiyLP6KyLJz9DkiyLIsiyLIsiyckWRZFkWRZFkWRZFkWRZFkWRZGkaRpGkaRpGkaRpGkaRpGkaRpOyNI0jSNI0jSNJP+/zgaRpO9/QaRpGkaRpGkaRpGkaRpGkaRpGkaRpGkaRpGkaRpGkaRpGkaRpGkaRpO/otI0jSNI0jSNI0jSNI0jSNI0jSNI0jSNI0jSNI0jSNI0jSNI0jSNI0jSNI0jSNP6LSNJ3v6HZGkaRpGkaRpGkaRpGkaRpGkaRpGkaRpGkaRpGn+v/AOP8x/Tv8f5j/f8AS0/nP4T/AL/Of9/0d/H5R/v8f4/KP9/0fH5R/rv4x+Uf6/pCf9/jOfjH/BMc/Gf6Vmez+U/jP/bhJEkSRJEkSRJEkSRJEkSRJEkSRJEkSRJEkSRJEkSSY5+EV7AkiSJIkiSJIk/jNJEkSRJEkSRJEkSRJEkSRJEkSRJEkSRJEkSRJEkSRJEkSRJEkSRJEkSRJEkSfySRJEkSRJEkSRJEkSRJEkSRJEkSRJEkSRJEkSRJEkSRJEkSRJEkSRJEkSRJEkSRJEkmOfhFZkSRJEkSRJEkSfxSRJEkSRJEkSRJEkSRJEkSRJEkSRJEkSRJEkSRJEn9zP4fx+cfjP8AR8f7/GP1P4/o/wDj8Y/3+f8AH4x/Ss/lP4x/UM/0dP8Av9lP/TSfyn/8fE/pT/S0/wAfpW/3/S1v0rf+X9LW/j9K/wD5T/72ggggggggggggggggggggggghMc/zzsCCCCCCCCCFp7P+UEEEEEEEEEEEEEEEEEEEEEEEEEEEEEEEEEEEJjn4RHRBBBBBBBBBBBBBBBBBBBBBBBBBBBBBBBBBBBBBBCY5/mK9EEEEEEEEE/BBBBBBBBBBBBBBBBBBBBBBBBP/AJA8rpyunK6crpyunK6crpyunK6crpyunK6crpyunK6crpyunK6crpyunK6crpyunK6f8H/H+I5/JyunK6crpyunK6crpyunK6crv+P+D/g5XTldOV05XTldOV05XTldOV05XTldOV05XTldOV05XTldOV05XTldOV05XTldOV05XTldOV05XTldP+P8crpyuk/4jhyunK7/AJ5XTldOV05XTldOV05XTldOV05XTldOV05XTldOV05XTldOV05XTldOV05XTldOV05XTldOV05XTldOV05XTldOV05XTldOV05XTldOV05XT/j/ADEVOV05XTldOV05XTldOV05XTld/DldOV05XTldOV05XTldOV05XTldOV05XTldOV05XTldOV05XTldOV05XTldOV05Xf8A+GD/AP/EAEoQAAECAgQJCAgEBgICAgIDAAEAAgMyEUGRkgQQEiAhMTNRoSJCUmFxgbHBEzBAUGJy0eEjU2NzFEOisvDxNIIkg5PCRHSQo7D/2gAIAQEABj8C/wD5INo7gto7gto7gto7gto7gto7gto7gto7gto7gto7gto7gto7gto7gto7gto7gto7gto7gto7gto7gto7gto7gto7gto7gto7gto7gto7gto7gto7gto7gto7gqIBc/4tAauVhFHU1q5OEu72grl0vG+H9FlMjEjuW0dwW0dwW0dwW0dwW0dwW0dwW0dwW0dwW0dwW0dwW0dwW0dwW0dwW0dwW0dwW0dwW0dwW0dwW0dwW0dwW0dwW0dwW0dwW0dwW0dwW0dwW0dwW0dwW0dwW0dwW0dwW0dwW0dwW0dwW0dwW0dwW0dwW0dwW0dwW0dwWR6SI+J0GCkrktyP3HfQL/lNHZDWjDKe2GF+I1xG+Fp4KmHGJW0dwW0dwW0dwW0dwW0dwW0dwW0dwW0dwW0dwW0dwW0dwW0dwW0dwW0dwW0dwW0dwW0dwW0dwW0dwW0dwW0dwW0dwW0dwW0dwW0dwW0dwW0dwW0dwW0dwW0dwW0dwW0dwW0dwW0dwW0dwW0dwW0dwW0dwW0dwW0dwW0dwW0dwW0dwW0dwW0dwVEEuf8AFoDVysIo6msXJwlw7Wgrl0vG9n0WUyK4hbR3BbR3BbR3BbR3BbR3BbR3BbR3BbR3BbR3BbR3BbR3BbR3BbR3BbR3BbR3BbR3BbR3BbR3BbR3BbR3BbR3BbR3BbR3BbR3BbR3BbR3BbR3BbR3BbR3D26k7CodP7ZvpIXJi8HdqpooOojcfc5bDcWwRoc8a3dQ+qyYbQ0ZvpGHIijU8ee9GHEGTFbrHmPdn6A/r+yoGZ6WFoicHdqyho3g1H3zkDW85KoGrO6ojeI9zMgMNDoms7m1oNaKGjQBnh8Pas0t+ibEbqPurIGuIchAAUAZ3VFHEfbw98wB8RPA58A/ERwPuaIehDaLf8HqcIhVB2UO/wC9PurBx1k8M+Af1PI+2yi1Si1Si1Si1Si1Si1Si1Si1Si1Si1Si1Si1Si1Si1Si1Si1Si1Si1Si1Si1Si1Si1Si1Si1Si1Si1Si1Si1MbkUGlzW6a6AqXOAaKysn+IHbRotWVDe1w3tNOKh0dtPw6fBUwYjX9ihACml9LaT1aU1+QOUKdalFqlFqlFqlFqlFqlFqlFqlFqlFqlFqlFqlFqlFqlFqlFqlFqlFqlFqlFqlFqlFqlFqlFqlFqlFqlFqlFqlFqlFqlFqlFqlFqlFqlFqlFqlFqwp8dwYOSfJcj0rhvbDKyoT8oeGM+jZlNbrcdSpooI0EY4lA/lN8SpRapRapRapRapRapRapRapRapRapRapRapRapRapRapRapRapRapRapRapRapRapRapRapRapRapRapRapRapRapRapRapRapRapRapRapRapRapRapRapRapRamw8ijIB009mex9FOS8aE14YKHCnWpRapRapRapRapRapRapRapRapRapRapRapRapRapRapRapRapRapRapRapRapRapRapRapRapRapRapRap23VO26p23VO26p23VO26p23VO26p23VO26p23VO26p23VO26p23VO26p23VO26p23VO26p23VO26p23VO26p23VO26p23VO26obHbqdVdCG8J2QzCiaqYmjxToxghjtQOo99GhMglodTyuVq0LJ/h4zW0aobg3T3Jr3ZWjp6SodE2V5FChzaPlU7bqnbdU7bqnbdU7bqnbdU7bqnbdU7bqnbdU7bqnbdU7bqnbdU7bqnbdU7bqnbdU7bqnbdU7bqnbdU7bqnbdU7bqnbdU7bqnbdU7bqnbdU7bqnbdU7bqnbdU7bqnbdT3GhzWNyNWs60XPZGEYnQfSaAqX5Jic5wFFOIhRHg5UB7uSesD7J+6hre8Y4xaaMljW6u1Ttuqdt1Ttuqdt1Ttuqdt1Ttuqdt1Ttuqdt1Ttuqdt1Ttuqdt1Ttuqdt1Ttuqdt1Ttuqdt1Ttuqdt1Ttuqdt1Ttuqdt1Ttuqdt1Ttuqdt1Ttuqdt1Ttuqdt1Ttuqdt1Ttuqdt1Ttuqdt1TtuqmnWKDZntaK3JlDm0ZI5qnbdU7bqnbdU7bqnbdU7bqnbdU7bqnbdU7bqnbdU7bqnbdU7bqnbdU7bqnbdU7bqnbdU7bqnbdU7bqnbdU7bqnbdU7bqnbdUrrFK6xSusUrrFK6xSusUrrFK6xSusUrrFK6xSusUrrFK6xSusUrrFK6xSusUrrFK6xSusUrrFK6xSusUrrFK6xSusUrrEYzGuyqWkGjQEHaurFk06dyZEJoDQRjIyXFjWENo30/wCWICh1ildYpXWKV1ildYpXWKV1ildYpXWKV1ildYpXWKV1ildYpXWKV1ildYpXWKV1ildYpXWKV1ildYpXWKV1ildYpXWKV1ildYpXWKV1ildYpXWKV1ildYpXWIQ4dIiP0NpGrrQGporKa4n8PUTuxk0U0VIZLi9tHJdTq7k1m4Y3xaHfivLtVWoKV1ildYpXWKV1ildYpXWKV1ildYpXWKV1ildYpXWKV1ildYpXWKV1ildYpXWKV1ildYpXWKV1ildYpXWKV1ildYpXWKV1ildYpXWKV1ildYpXWKV1ildYpXWKV1ildYpXWKV1ildYvTCGSw5OndniFDh5fJs0praHaBRqUrrFK6xSusUrrFK6xSusUrrFK6xSusUrrFK6xSusUrrFK6xSusUrrFK6xSusUrrFK6xSusUrrFK6xSusUrrFK6xSusUrbylbeUrbylbeUrbylbeUrbylbeUrbylbeUrbylbeUrbylbeUrbylbeUrbylbeUrbylbeUrbylbeUrbylbeUrbylbeUrbylbeUXktlNapGp2nEXw3MySaS0jXoo1rUyGK6eVSmsppoFGKI1oByWtbpP8Am9StvKVt5StvKVt5StvKVt5StvKVt5StvKVt5StvKVt5StvKVt5StvKVt5StvKVt5StvKVt5StvKVt5StvKVt5StvKVt5StvKVt5StvKVt5StvKVt5StvKVt5StvKVt5DQGuGlrg7SCojTEhaCWHkfdZGsUUaUYBl1w+zdjyshuVvoxlrJ4hyG96DWsbQBQOUpW3lK28pW3lK28pW3lK28pW3lK28pW3lK28pW3lK28pW3lK28pW3lK28pW3lK28pW3lK28pW3lK28pW3lK28pW3lK28pW3lK28pW3lK28pW3lK28pW3lK28pW3lK28pW3lK28pW3lK28pW3lFGS2U1prxqcKc6PkgHJDW6T3+albeUrbylbeUrbylbeUrbylbeUrbylbeUrbylbeUrbylbeUrbylbeUrbylbeUrbylbeUrbylbeUrbylbeUrbylbeUrbylbeUrbykF5SC8pBeUgvKQXlILykF5SC8pBeUgvKQXlILykF5SC8pBeUgvKQXlILykF5SC8pBeUgvKQXlILykF5SC8pBeUgvItLBQdEyMB5/Fg8l3kVyQCesrkugw7XfRUmNAd1ZBHmuW1va11Kc95oa0Ukp0Yt2xy9eoVKQXlILykF5SC8pBeUgvKQXlILykF5SC8pBeUgvKQXlILykF5SC8pBeUgvKQXlILykF5SC8pBeUgvKQXlILykF5SC8pBeUgvKQXlILykF5SC8pBeUgvKQXkwsEKjrJpRESGG9YdSh1YmQ2bR50dW85mDACmZ3D7qQXlILykF5SC8pBeUgvKQXlILykF5SC8pBeUgvKQXlILykF5SC8pBeUgvKQXlILykF5SC8pBeUgvKQXlILykF5SC8pBeUgvKQXlILykF5SC8pBeUgvKQXlILykF5SC8pBeUgvKQXk6C/XCcW91SpaaHLZB3yuX/ABz3uC5ZAHRaupekc0ZUVxiHTvUgvKQXlILykF5SC8pBeUgvKQXlILykF5SC8pBeUgvKQXlILykF5SC8pBeUgvKQXlILykF5SC8pBeUgvKQXlILykF5SNsUjbFI2xSNsUjbFI2xSNsUjbFI2xSNsUjbFI2xSNsUjbFI2xSNsUjbFI2xSNsUjbFI2xSNsUjbFI2xSNsUjbFI2xSNsUjbFhHoqGvDWOG6vRwT20ZMRkzDUvxYTXKlsBgKL3nJa0KLHIohZByG7+tBuQNA3KRtikbYpG2KRtikbYpG2KRtikbYpG2KRtikbYpG2KRtikbYpG2KRtikbYpG2KRtikbYpG2KRtikbYpG2KRtikbYpG2KRtikbYpG2KRtikbYpG2KRtikbYpG2KRtiwh7WgB0U0aP8rpxgTPdKwayovpqDFyQdFQ3YogcdGSHDzxYMSNHKbw+ykbYpG2KRtikbYpG2KRtikbYpG2KRtikbYpG2KRtikbYpG2KRtikbYpG2KRtikbYpG2KRtikbYpG2KRtikbYpG2KRtikbYpG2KRtikbYpG2KRtikbYpG2KRtikbYpG2KRtikbYpG2KRtikbYozRoBa13jmxj8BQGQ3R1KRtikbYpG2KRtikbYpG2KRtikbYpG2KRtikbYpG2KRtikbYpG2KRtikbYpG2KRtikbYpG2KRtikbYpG2KRtikbYpG2KRti5i5i5i5i5i5i5i5i5i5i5i5i5i5i5i5i5i5i5i5i5i5i5i5i5i5i5i5i5ii5VFJhN1dpRNJY9zcprx1a/JZIfAf2gtWn+HaN9JK/Gi+kcTQxtFABNaiNGqihcxcxcxcxcxcxcxcxcxcxcxcxcxcxcxcxcxcxcxcxcxcxcxcxcxcxcxcxcxcxcxcxcxcxcxcxcxcxF8FzG5WlzTpBWqDaU92XBJApkKa+kvfF/mGutN62Uf5YcQeBSW6xvbWskmlzdfX1ovaKXQzljuQc3IoOkLmLmLmLmLmLmLmLmLmLmLmLmLmLmLmLmLmLmLmLmLmLmLmLmLmLmLmLmLmLmLmLmLmLmLmLmLmLmLmLmLmLmJ+VRsxq7TmxexcxcxcxcxcxcxcxcxcxcxcxcxcxcxcxcxcxcxcxcxcxcxcxcxcxcxcxcxcxV3Sq7pVd0qu6VXdKrulV3Sq7pVd0qu6VXdKrulV3Sq7pVd0qu6VXdKrulV3Sq7pVd0qu6VXdKrulV3Sq7pVd0qu6VS92SPi0KO6G7KaIbBTaob9bQdP+dlKguiEUZORl+CZCa4OJdTQNwQbXlUnq/weKjnqXIiAndWq7pVd0qu6VXdKrulV3Sq7pVd0qu6VXdKrulV3Sq7pVd0qu6VXdKrulV3Sq7pVd0qu6VXdKrulV3Sq7pVd0qu6VXdKrulV3Sq7pVd0qu6VXdKrulV3Sq7pVd0qu6VXdKZBbTkA+kbo1aNI4prmjSB/nnjp9KwObuK5Iiu7ITk/BqTydLBkmnJVd0qu6VXdKrulV3Sq7pVd0qu6VXdKrulV3Sq7pVd0qu6VXdKrulV3Sq7pVd0qu6VXdKrulV3Sq7pVd0qu6VXdKrulV3Sq7pVd0qu6VXdKrulV3Sq7pVd0qu6VXdKrulV3Ssp7skbyKFFiQzS0Na2m04mv34ndRoUajXklciJSd1arulV3Sq7pVd0qu6VXdKrulV3Sq7pVd0qu6VXdKrulV3Sq7pVd0qu6VXdKrulV3Sq7pVd0qu6VXdKrulV3Sq7pVd0+1lkMGI/c2rtX4kX0TejC12rK9GHO6T+UeKwmJU4N8wjvGkL0VTaHM7Kl6Y80UJxM1fbrPlYozd4TPSwmuIFGkL/x472/C/lNX/kQ8kdNulv2VLSCN49zYOetw4fbHQ4AjrVDGho6hiDnNfS3U9g0sWQ8tL6KQ5up43+5/RwmmLE6Lau01L8SMIQ6ML6lZWRlu6TzlHiiQNetPPUmt3CjFFG+h3l5Yg18JpA0DRqX4EeIz4XcscV/5MKhv5kPSPsg5pBBrHtW0dwW0dwW0dwW0dwW0dwW0dwW0dwW0dwW0dwW0dwW0dwW0dwW0dwW0dwW0dwW0dwW0dwW0dwW0dwW0dwW0dwW0dwQDor8o6mgUkrQRBb8fKK04Y/uhtR9LhDizoaBaQgGuDB0Wt0LbvsC0Rm/9mJzvRw4gNEpyfFBkQPhONTx56kxzdbTwTOi3T3oBx0nU0CklOYzB8kOFGVFdRwXKiwh8rPutMd3c0Lbm6E4wYnoXnojQe0LlYU8H5WrRhDX9TmUIMjF8F51ZVFB7Cto7gto7gto7gto7gto7gto7gto7gto7gto7gto7gto7gto7gto7gto7gto7gto7gto7gto7gto7gto7gto7gto7gto7gto7gto7gto7gto7gto7gto7gto7gto7gto7gto7gsqJHyR10KE+DSIbCTlxRr0VBUxIr3ntoHDO/iMFPo8Ibp6ndqETLeDqc3cdy2juC2juC2juC2juC2juC2juC2juC2juC2juC2juC2juC2juC2juC2juC2juC2juC2juC2juC2juC2juC2juC2juC2juC2juC2juC2juC2juC2juC2juC2juC2juC2juC2juCGVFflHU0CklcmiGPj0ngqXYY7/AKQQqY2ERsjoUgU9tCyWNDW7hmCJSaGGlw3jG2g0ZI5XXm5UB7oL68jUe0L/AJb2nrY0rbsidrclBkYxITjqpooPeto7gto7gto7gto7gto7gto7gto7gto7gto7gto7gto7gto7gto7gto7gto7gto7gto7gto7gto7gto7gto7gto7h7N6CBtNZJ1MCJFLnmZ7tZ9RQRSE1zT+Fqc3d1psOEcnpO3BE0aT6gte0OadYK0uLsG69cP7e30nUvwPw4P5hGl3YFl0F8TpvNJxZPVSc9sQbOPyXj4qj7h9DBoMU6dOpo3onS55medZx0OcB25pBrTWmoUYnurcc2hzgDuxlrgC06wVpJdg+864f291OfRSahvK0mmI7S9284w/fnk7gjRqHqCK2mg4qDqT8GJ0DlQ/l3d3txg/yIe0+I9HMjv3voszvR08qimhRt7W5Q7tKY/pCn29zzVVvVL9MR+l568ygilUwyYZ+H6LIiCh/A+pyiqYpIHQafFcloGZQdSdgx5ulny/b3TBh1MHpD4DE40UQxoB3r0fSobaf9+ooLhauU4ZWUa92jyWjP8AnHgfujkUF1VKDqKOo1KFH6D6D2HR7byNq85LO1Nhtqr35kXqiu8cUMdJ1HDMyt0LTasIP6ZWDn9Nvh7fBh1CmIfLHQ08pxDRmDq9SOrM18lzPDHCjdF9B7Do90x+pjB4psFuuJwFaoGoKGypsPL8R5+o1L/u/wDuPqGRRzXjjoxNPMi6D81SjdTafbXxOZB5DfmrzcIh9KiIPDyxQD+sMyO/rDLP9owhriHJ8/JYP+23w9vjHota3xxw4fRpdw++a9nROjHT1jxQHw4y7cm06zpOZCidF4p79CB6sUb5Cgd/ujCexijP6FDB4nE936A8T6ihjC7gFR6Pk5TtLfmK0Z8QdbfEYngTUUt7VFeNToRPBD2uJFPNbSmNM1FLu2vNZhDBS6HrArbWg9ppadIKc/oFr7Djc81JrTNrd2rCcJGygscyH1uOglMZuFHt+E/9fDG/rgjxxg0cmvqxRexvnjf2Jx+EY4vyHEGAafDHFo16KLVRii/IfBM+Ue6D8cLwP3Rd0nuPFUvcGjrKJaaQYPgfv6migjlO1j4j6hw3lo4hUNiNp3V4vRb3+i/qo9shQvzIrQezX5Z8SNCGXBdEd+HWNOsJ7WupBGS4VhBrtpD5D+0Ysr+TCOve77KJ6A5MPV6TpVaPqsGwRg5LojW9w0nw9wPHShg2Klx+65RMJu4a1D+KE4WEY6CjBdrGlp3hRuxvnjd2J3YPDHF+QrKO5UundpONrOnEYOKy2RCDuOpejeMiJu39iiCtwyR36PZdm60LZutC2brQtm60LZutC2brQtm60LZutC2brQtm60LZutC2brQtm60LZutC2brQtm60LZutC2brQtm60LZutCZEY3YQy54NYP8ApNJd6KGaSNHKI8llBlLuk7SVBjVB2Q7sP3o9TT8bvH1EGDu/EPdq4qiIxru0L/xoujoP0i1Uvbk/w0fLig6zp+62ZtC2brQtm60LZutC2brQtm60LZutC2brQtm60LZutC2brQtm60LZutC2brQtm60LZutC2brQtm60LZutC2brQtm60LZutC2brQtm60LZutC2brQtm60LA6WkDLd/ac6LEra3R2oD8tlpTA4ctonGg2pmEQ3+la4hj2v4aU3BWQvQueCS8upoHcgIh9IG6m80dyhN3xmDimUDKEFlOjef8K2brQtm60LZutC2brQtm60LZutC2brQtm60LZutC2brQtm60LZutC2brQtm60LZutC2brQtm60LZutC2brQtm60LZutC2brQtm60LZutC2brQtm60LZutC2brQtm60LZutC2brQoLYJMIwgS92vXVwWW4l7+k7FCj/lPpPYdBzKW7RulpTnDnQ2niccWjXklRD8LPDHF+WhF3MhmhvbvzIMOqH+IfAeeLJeKQoUb0zokKE8Ocw7t62ZtC2brQtm60LZutC2brQtm60LZutC2brQtm60LZutC2brQtm60LZutC2brQtm60LZutC2brQtm60LZutC2brQpH2KR9ikfYpH2KR9ikfYpH2KR9ikfYpH2KR9ikfYpH2KR9ikfYpH2KR9ikfYpH2IuLXADXoQaZsKOW/qZu8LcbobtThQixx/FhnJf9UKKd50IjvzSGkZZ1UospGSaKO2jNJ3KvXQeTrRc4gNGslPwo/zdXy1Yw4jkRh6N/l9EYLw4vhHJJo17lI+xSPsUj7FI+xSPsUj7FI+xSPsUj7FI+xSPsUj7FI+xSPsUj7FI+xSPsUj7FI+xSPsUj7FI+xSPsUj7FI+xSPsUGLkuHo4oJJFWrzVA6NKpzIELpxRT2DT5KFD6TxT2DTiedxaeKca/RDxOLBqTo9LlHsAJToz2Py4xyzo1bhYpH2KR9ikfYpH2KR9ikfYpH2KR9ikfYpH2KR9ikfYpH2KR9ikfYpH2KR9ikfYpH2KR9ikfYpH2KR9ikfYpH2KR9ikfYpH2KR9ikfYiS11A6kYzpoxy+wVcMbmO1OFBTfSTDku7RoX4bvSN6L9dq/FZEh9rfMLat71HMM0sLWkcacb+wp9Hw+GONRrydCDBGbo361ySXHc1pK5DPRDpP0mxay41lyjx+m+gdg0fXGQdIKdAcHF0E5NPVVwUj7FI+xSPsUj7FI+xSPsUj7FI+xSPsUj7FI+xSPsUj7FI+xSPsUj7FI+xSPsUj7PZKOmclPiO1yDu+9OZhFNLXti8l7dY0BD+IY6I0fzIfmFRAiNPUDpzMhgy4p1NC9LGdlRTY3qWS7/AEsjCZaotXfuzKXuDW7yV/4sN0UisHkjvRi4Q/Lc3SG81qgD9MeGN0PeFp/ms09o/wAPtbobpXCgpuD4TtmaAadoN+PIhu9I74NPHFg7egxzvAJrt2KIN9HiF6TqoQomc4NChYMJGMpifT3A5o59DLTRjLt2LCWbolNoGZDiVHkHy/zrxkIns/tGNkHpGk9gzHP3ClQR8ARh10U4z+pC8D9/ZJ32qd9qnfap32qd9qnfap32qd9qnfap32qd9qnfap32qd9qnfap32qd9qnfap32rBm5RPLyjTuApUIV5OnMwkUzhrxxHkqdMWH0m6wsmNDa541EtopXIfGZ8sVy/wCVhX/yLThGEO/9iohtox0Fch0WH1MeQF/y8JvrlRsId2xSvSuhg0Vu5RVDIdLuvQGqPTEyjkkU9aY3o8mzMh6aB6RzbW0jzU77VO+1TvtU77VO+1TvtU77VO+1TvtU77VO+1TvtU77VO+1TvtU77VO+1TvtU77VO+1TvtU77VO+1TvtU77VO+1TvtWDQn0uBflaeoKaNR+876rTDyvmcSsloAAqGKKejCaLScdG97B/UMUNrG5b2DKA6zoCdHc9xfGNJdvU77VO+1TvtU77VO+1TvtU77VO+1TvtU77VO+1TvtU77VO+1TvtU77VO+1TvtU77VO+1TvtU77VO+1TvtU77VO+1TvtU77VO+1TvtU77VgzMpxpi06erTjhQzznU2YojenDa6wnMdDdqcjDi7RlfS68Z7fIYi46gnR4ooe/QG9EZkXrGTboVChPNfIpx4M6mgUuZaPsp32qd9qnfap32qd9qnfap32qd9qnfap32qd9qnfap32qd9qnfap32qd9qnfap32+yR90OFkDtdmEjXV2r+Kp/CDv4c9m+8nRYRHxtqWTHZRDp5J3KkRXFu46cdMSI1g+I0KhkeG49TgvxIjW/MaFQyPDcdwcMdDX5PXQqG0xY9Gik0/wCkYR5I1vNZ+ih4FC0AjLdRUBq4qnpjK768yO8TMayKO4nyVI9rhdUJ3iM3DP8AoOGPB2b4o4aUXHUBSVAp22FRKT5DuQaNQ0D3A41QmUd5/wBY3u5hh/h9lOvE7DubDieiPy18c2nE524JzN2T4YqM1mCjVkmI7y4+ChvrI09qfQaHUig9dKDjoeNDhuOJzhND5Y7tKBGo+5o7jzsJaLCBmGJ0NIG81IYPE5XJod1706C55bHh87ptqKo2kPdRqXJoARIDolHQFK5cT0LejD12qkQm5XSdpNqofBY4fKstzA9+U4ZTtJ0GhUPgscOtq/8AGiuZ8DuU1FkaE5pHOGlq5JBWRBYBvcnPjxSYY0mjRlJ0WIKIsTSR0dwUSDud6Rvyu18czJPOgkcVAPwD2vBokNgcXZUOimjr8lpwhjOpjKfFcnCgTudD+iofgjj1scCOKpyS3qKwz52/2jHD/TYXW6PqogHOGTasCbU3Kdw9wxojpXRy0ndViMGEfwv5kQeAUCMBQIZyT8p0fRPiayNQ3mpDB38oZNDuveomDRZ4YGnpDfm+iOp2ln0RG9E71vcdDRvKA1ms5kSIea1OixBREiVbhUFGgVH8Vnfr4+Kgwqm/iO7tXHwX8RCBdTtGDndY60Hw3ZTU2FrLtfYoPU2iz3NhGTMIziO52ZDg82H+I/yxQsIBLXQ3aSNxXKop6s7R03f3HOhteaWw/wATJq6sUPCh/LND/lOY81BgAUL2vAx8bv7Tm4WN+QeH2xxYtGhzqG9gVBR+CD4n7e4Y7TQW+meOKoPpC3omI6ixBrQABUEWOFLToIUOAX5bIPLJP9IxQsKHMOS/5TmtYzaF3IO6hNiDnBE/E7xWWZBTDb82bCwfmj8R/dq4+GJmEj+UdPy1/wCdSc/Kynv1uxZdBa863McWk2I5ANJ1kmklMPb4n3LS3S88lg3lej17zvxuiPNDWikp0WIKIkU5RG7cMT4fSaQobzrLdPbiopoNRWS4hjxracRc9wa0VlHTyg51I78XLeG9q9LpAIoaMeERd78gd33pxFrtRFBRwd5/Eg6O0VHGTvRwfmO5cPzHtcKN+VFafLzVLIjXdhzB+pB8D98VCDRqChQ6i1zjw+qwjCPzH0Dsbo+vuBzhNqaN5qWRTTppxue86G60YkQfiRTlu6urFFh9JpChROk0HMdH/wCrOxRG7ojl/wB3f3FBrtbuVTuNNKpdMNDu3MwqJuIYO4ffFQdSdgj5oUvW2rMdg3NIy2ef+dfuU7oDf6j9vHFk06d2LJYaYEI0uPSduzIrOjGeONPnjoewO7QtAcBuDyFleibT16UfSw2uLYjxSR8RWgPHY8qlsMU768yEelyrTjGEwxS+HrHSbuQiQnZTSuUaMXpRNCOX9eCDgaQfamA1xWf3BUvhMcesKgCjHgTgNPpCO6jMa6HNkUC8FDhdFtHuD9OBxd9h44w53O09yYDs2H0rus08nMLOg9zeON2TM7kjvQaNQFCjUdPyCNPSd4lQ6OiE4VRG5XeP8GZl9N7nccbMLbPB19ba18riE4Oma4jEIrBTEhHKA37wmvaaWuFI9inF1Ti6pxdU4uqcXVOLqnF1Ti6pxdU4uqcXVOLqnF1Ti6pxdU4uqcXUX5QJ1AZOso6aXONLjvOLQcmKzSwpj8Kj0seKchmintKDmZLQ8l9GSpxdU4uqcXVhX73/ANRiLt2Z/wCx/wDccZbuGJ3YsHocNm3m9SnF1Ti6pxdTvRRDCiscWEjU7dSE+LhLw4wnZLANXbiINaOC5VDQMpmipTi6pxdU4uqcXVOLqnF1Ti6pxdU4uqcXVOLqnF1Ti6pxdU4uqcXVOLqnF1Ti6pxdU4uqcXVOLqnF1Ti6sskEMc1+rcc1v6bOJ+wzMDZ0j5hTi6pxdU4uqcXVOLqnF1Ti6pxdU4uqcXVOLqnF1Ti6pxdU4uqcXVOLqnF1Ti6pxdU4uqcXVOLqnF1Ti6pxdU4uqcXVOLqnF1Ti6i7KBdqaMnWUGU0nW47zjEGA4+mO7U3rKymOAD3EjRVqHAKcXVOLqnF1YSP1j5Y4EOisuPdieeknDrd4prdwoUB/x5J78yBQ4S06lOLqnF1UFzbq5bneiyshxFRGjT3UKkV43QA4BjuXD0WhTi6pxdU4uqcXVOLqnF1Ti6pxdU4uqcXVOLqnF1Ti6pxdU4uqcXVOLvsTW82CMo/MdWZ6MaHkZI71g/yDMwr94+Ax0GE6JDqczWO5aX0fMKF+Gx8U/A1URIT5jy2ika1tWrJgQHvPSIyWrlGlx1nEexYP+2MzCtzoh/zwUSmt5ONuEDXBOV3V+1Fp0gp2DPhxHGDQMtoppFSyeW0/EwjEXONAGkp2FxZoppa3ojMwDTp5Z4e4KObBFP8A2P28cxxGs6XOrKwf9sZmE/vHyxxYj+oN7Mf/AGd44ojKyNHam5c1GnHA+XMwtp1el/8AqFktlqG7H6Vs8I5Y8+CDhqPsO04LacFtOC2nBbTgtpwW04LacFtOC2nBbTgtpwW04LacFtOC2nBUmLoHUmvdtMIdlf53ZkR/RaSoTMvU0DUtpwW04LacE94wp7Q6K80NA3rTheEHvH0X/Ij31pixz/7SuUHu7YjvqqPQhaIDB2KkMI7HkKkPjD/3OWjCMI/+RU/xmE3h9FowyN3hp8kxvpJaW6txW04LacFtOCwph15QfaPtmBjtTwjC9JphOyNVVXBbTgtpwW04LacFtOC2nBbTgtpwW04LacFtOC2nBbTgtpwW04LacFtOC2nBbTgtpwW04LacFtOC2nBbTgsJe3CHMGUG8kDTQFpwvCD/ANh9Ft4//wAiZBEWM5s0QOfSKN2Y9/RaSoWFxHZPo/Rso3Aj78VtOC2nBbTgtpwW04LacFtOC2nBbTgtpwW04LacFtOC2nBbTgtpwW04LacFtOC2nBbTgtpwW04LacFtOC2nBbTgtpwW04LacFSYvBMdz478vu/1RmRXbmFQ25epoGpbTgtpwW04J7mRIYa6K86WU19q/wCRDHZC+604TYwLThcXuDfov+VG/p+i/wCVG/p+iobhMajXV9F/yo39P0X/AC439P0X/Kd3sC/5Le+H91tYJ/8AWfqgMvU5w1dZW04LacFtOCwppPRdw+2YymV2hOg5eydkaqquC2nBbTgtpwW04LacFtOC2nBbTgtpwW04LacFtOC2nBbTgtpwW04ew+iGuM4Q/rwpTjzYTckd+ZBgj+a8XRpOY551NFKg7y2m31mEw+jFPHTmQn1RG+jPbrHnmEiZnLHcgebHh8R9jw9qL+m9zuOJz3StFJXpH7SIcp3V1ZjIH5rg3ur4LCHDXFLnN8vAJkQc5tPtwhDXFdkfXhSomjkQWhje06T5Zggj+ZEDO6vMJNSgneMq31mEs6MZ3HTmQ3VRGFnfrHmg7G/Inbym9oUOIJcIh8R9vD3DCbVDYX26PqnP6bi7GITZn8BWU7CeZJC7N+Z6Ia4rhDtVA1es6o0Pi3/eYWjQ7W07imxC2jL5D/hfjoUF9cCKKezV5+00qB8gOKDA/Mfp7BmxYjf5bfRQ/nd/gTIY1NFCiwPynmjsOke3MFUNhdbo+q9IdcRxfjLq6u1GLra3kMO/pG3MeBM/kDv0JkMamij1kUVRm5feP8GYWg0O1tO4ot1E8rJ3HnC3xzP/ANaNwp+h9w4Y8HdDB7vug0ahiJJoATmCkZe0PRZU1Bo1DMgtqhtMQ+A8/WwY35cQU9h0eea6MATCeKIrR4rlEF7dBor68eEw+mykDrUOJ0mg+0RD8JUEfAPDFTzYMLicx0R2poUKGf5Q9JE63n/DiY6qM3IPaNI8/bsNiDXILv3TGAUZIox/w0OnIhTu3H6oNaKANAGZAh1NpiHwHj62DH6EQU9h0Zv8ZCFOTpePNNiMNLXCkY8Kh0aIjaeFChP3sB9wCJ03uicdGOHgcLTEi6T1NWSNJ1kms5uExGRnMoIZoAqH3XKAjN+AUOsrWWx1I9Vk4M0Oo1vMv3URrsIOlp0NaAFDidJoOaw//jROR8uMHcvR/lucyw+0Rv23eCh/KMWFvr9IBY0ZgMTZwfxD1mpUv2jzlP7cXpK4Tg+w+3PcdUR7nccdEMUxn6GDrWQNJOlzukc3CIlTcmGPHz9bFhjWWmhQ4nSaDm+g/kRDTC+E9HHTWsj8tzmWH2+K/osJUJnRaBidEfK0UlPwuMPxo2mjotqGcX9OI53HF6aByYlYqf2/VaNDhoc06xnkk0AKtuD8Yn2VAFAGIM6DnNsOa6FEHJcE7B421gnJJ3io48KZ8QfaPt7REG9pUE/APBFzjQBrKwh7aaDGJFPYMwMhs9I2FQ+I2nXuHmhEYaWnFHG+GfBQzvaPbIj+i0lQmdFoGIuJoARwp+tw5A6Lc6I/fFeeOflVas8dTnDjmljq69yLIm1YaHfXHhLOsPtH29vc3pENtONmDcxv4kTyH+bs5ztwUDrbTjEWEcmMNR39RRa4ZJ6J5p3ZusAnVSmuibAStPP6z9MzCmdGM7OZhY5vJifL9sbvigjgfv7TB6m5NihYNzDy4nYKrVhX73/1GNz9dGobyqHGl55TzvK9INjFND+p1RxRz8BTW7hR7Y5vSIbacbMG5s8Ts3ZxduWTvax9ozz+4/8AuOdEf0WkqLCrY/8A+ozmYUNQ5MT5ftj+aF4H7+34OzfFHDTiLjqCMZ88Y5Z8hZnZA1xHBlpQZuzP4qCKXs1jqTIrDyXCnMdDbpgQdDjUTuzXD81hd3g/fOLXCkHQUYL5oJyO0VcMWDu3hzfPy9pjQ+hFdx0+awmL1iGO77lYV+4P7Rja3mQeUfmqxOhulcKFQ/aMOQ/tChQPzIgHcNJ8PbYDd8UcNOKk6gnYQ6aMcruqznga38i3QsHolLPRWaR555/cf/cc5kH8x1HdrKifqtyu8aPpnFrhSCKCjCfPCOQevcbMWDn5m8Pt7fCHQaXeX1xCD+YaD2V5+DQ6m0xD4eecaNGDRTq6DvocYweCaIr6+iN6EKGKGjNwaN0YmSew6PpnsdzYoyD2jSPPFDidCID5eftMenU5gf5fRQ3HW/lnv0rCHb4x4UDFSdS9KdcU5f04Y3CqMynvH2oTsI/ls5EPr3n22E3oAvPh9cUPBx/NdQflrz8GhfEXnu+5Rg0/huP4bvy31dyDtR1Ebjm0nUE7qiO+ucXw9LjyIVOqjnOWDRASeXQ5xryvvRnw4nNi/hu7dY88UKJ0Igp8PP2Cdtqnbap22qdtqnbap22qdtqnbap22qdtqnbap22qdtqnbaqTEbanRna4mnsFWLlOAyWeP+lO21TttU7bVO21TttU7bVhEXWG0Qx4nxzixwpadBC9FhB5HMinUR19aohOEaIdTIZp/wBIuiGmK/S8+WdFYNeTo7UyJlDlCnWp22qdtqnbap22qdtqyw4EwyH692JzHanCgrIiuHpGcl3X1qdtqnbap22qdtqnbap22qdtqnbap22qdtqnbap22qdtqnbap22qdtqnbap22qdtqnbap22qdtqnbavSscCcl0PR8WriqXHksFHamNdNrd2nXicwa4lEMd+hADUFy3ULkNiv7IZUF8RnoYQiAHlcqg6O5BrXNAGgBTttU7bVO21TttU7bVO21TttU7bVO21TttU7bVO21TttU7bVO21TttU7bVO21TttU7bVO21TttU7bVO21TttU7bVO21TttTox1xDT3VYnEuFEJlHef8AQU7bVO21TttU7bVO21TttUeJrDQIY8T4rJdasqK0xYR0PezxI3rLhvDm7xjpcQBvK9HCp9AZ4m8bgnR4LaeW9r4e8ZR1LkO0jWKxmfw2CgxXGdzNTe9ekjODn1NbK1RWjXk6O1MflN5Qp1qdtqnbap22qdtqnbanuDxlMoeO7E5jtThQsmK4CIzkuU7bVO21TttU7bVO21TttU7bVO21TttU7bVO21TttU7bVO2317cHqPKf2Y8I/wCueIlcQl9p9RT8b/7j6h0L8qI5nHOLTqKhl2vVZibGqPId5f51+0QmnTlRRoFdGnyXpcIoL6mVM+/XjwX98eeZGPRGVZp9tbg45+l/y44zzrdFdw0Z/pK4pL7ceX6PJf0mHJPBcjDI47aD5LlYZH7skeSBflRSPzHZWI/uP/uKpezlDU4aDauThWED/tT4r/mxrG/RfimJG/cfTwWS0ADcMb4X5Ty3uq8c7CP2yg9uo6kaKjQhH5juRE8j7a+P+YeT8o1Y+qIziP8AedGcNeTo7UyH0WgZ+R8NKyv1Hf3+owlnSyYg8PLP/wCzvFZHw0pzN4TXV19vs8WORlejPooTd7q1pOU46Sd+OB+63MjDew+ChO3sHtkWNvdkjsH3pxOfuq3rJJpIc7T350YjXk0BNYNTRR6j/wBj/wC4+ojt6bWv8vpnei/NcGfXgmt1U6AqHHkR9XzJzHClrhQUYbzS+Gcg+1kDnENtNCbQKGl2S2hAb1DZ06VBduiDjozoELpxRT2DT5eowmNzYTMnzUeDTy20PFgcmvGpwpz4Dum1zD4/XPeP1HeKjdXJb10U08VlCpRW1aHW+zPinmilBgNOQBlHrdpdw8VE0AaclngnNOpjcolUnQWtBcN1awZtHKJa/wAcx46isH/bb4e1vcNYaSmHmtbrQiPaco80bzUm4RF/6wxqafMpmdBh9OK3hp8vUFx1AUpzDrByrQD6jB3dJrmeflnQB8x4KHT+Y2i1AOAI3FaNIa7JTqOfDBPcfa6dzmn+oLBRRoax1PkolPMaKO9OcwcmAafmNfBQuWOVEZk250FvQY53l9fUGibCotA7CfoqObGh8W/Yr0dcNxZYc+DE6EVv08895cwhtLnZdR0qFF1PbpPfrVFRc0HspUZ36nszYLdUNwLuuuxRXg05cVxp4LC66HNZYv4aowy5/gEIQGmNTlHqo/0nUDRCAZ2mj6UZuD/IPa6EGFxDoYydB3KHq9EGCIKKyosBsFzwIlNNOoO0/VOG57vHOgN6DXP8vr6hzBNE/DHesnmxIejtb/v1EGJ0IreOjzzoXU1x8E18IEiByiCOdu/zqWDxGu5BcKeunVxoWEQhzy0s7To8kQ92U4QtdFFftbobtThQsnWWQ2td1GlywuKDreAOwBMcdb+Ue9Pg6GxIbddGk0avJBwrzcIPRaxvic3KNenFFImyaB2nQoEBsuDQ6T26h5qFhH5MQE9moqO0aojWxR4eQxkHW00ZkfeG02IOFYpzX+jmo0IQocJzIeTkuc4UKL8pTXeiJBoc51Mqj5Dg5vpNY7B7NlPYCVAiiI5gazKdRqK9OxwBiPJIcNYWEx2gOMoFNVJ+ii4Q6CaIbcggOGis+S5c7jlO7c2D2e1kpuguhRG0u8+PAqK0S0As6m7raV6aGzLDm5LmjX2qI7IcxrqNDt/+UZ0Y9FjW+Jz30c6htpoUCHVDBiHwHmoUf8qIKew6CizpQqbD98+N1NpQcK9ObFe40Nhto8z5IvIoMQ5VCj4OQ8ZJdQ7J0CsaU300PJ0SZXVT5p8QV8kdg/w+2NwmjkRNDuop8drQHxKTo69QTWDU0UIF8NriN4zsLd+t5DMbD6Zo7q8cEb4zfqouEH+Y/R2D/CnwzqcKFg+XNkPhu7RRjaanijv/AMpzHDeFg5/Tb4Z+RTRlmind1p8OFCdEIpaG6tFXBQ6KxlE7z7NEI1hpVDXAw3Q2tAo06dCbyTyWFw0aETEdRlHJGjXQNPGlNhUHKixMt2iqmn6DOwf5B7ZEghtOQ4+j+LRym8Uz0TnOZEaRyjKR6jC3fqAf0jPgN6Udg4rCY+92Q3sb96U+Eec2hYC90zoT2u7RRTnvG8KAf02+GaHOhtLhWRifg7RpjkEGrr8Fl6BhDolAeNdNNHggxuoeumCmCmCmCmCmCmCmCmCmCmCmCmCmCoywDlCg7kIUMt9FCdrFe5TBTBTBTBTBTBTBRzvjPzHmqGMnvOn6Y8HDZi/RYmQg4UNFCmChUHkvJcLNOMubMzlDuQcNR05kGkiVTBTBTBTBTBTBUNyS4EOA706I86H66DpFCApoFJop3U6FMFMFMFMFMFMFMFMFMFMFMFMFMFMFMFMFMFMFMFMFMFGDTScg0DuUJsF+XGoDnNaaaKBusUGAyMTEdQ1zWuqr0KLAoitiOcWtopooJ17k6I8guIyQG6gM15+ErBxSNm3wUwUwUwUwUwUwUwUwUwUwUwUwUwUwUwUwUwUwUwUwUwUwUwUwUwUwUwUeB/OdGJHw/EjEiNYCBRlAzqYKYKYKYKYKYKYLCT+sfLPwU0Un0lIHXQocLKHJGlTBQGVOiF7e8aePqIFJEqmCmCmCmCmCmChxm8p0F2VQKxWhFygcoF9GVLUpgpgpgpgpgpgpgpgpgpgpgpgpgpgpRYpRYpRYpRYpRYpRYpRYpRYpRYpRYpRYpRYpRYpRYpRYpG2KUWKUWKUWKUWKUWKUWKUWKJ+8/wAczLOuIcu3HgTTqblPKlFilFiwOKBLGotzDC/LcWfThmQ6QK/FSixSixSixSixSixSixSixSixSixSixSixSixSixSixSixSixSixSixSixSixSixSixSixSixSixSixSixSixSixSixSixQCBMx7fA+ojn9N3goYyRoaKlKLFKLFKLFKLFKLFKLFKLFKLFKLFKLFKLFKLFKLFKLFKLFKLFKLFKLFKLFKLFKLFKLFKLFKLFKLFKLFKLFKFKLFKLFKLFKLFKLFKLFKLFKLFH/efn4E06gXPsUosUosWBxQAMmLRb6iHoFfipRYpRYpRYpRYpRYpRYpRYpRYpRYpRYpRYpRYpRYpRYpRYpRYpRYpRYpRYpRYpRYpRZ7Qf3H/ANxxvA1u5A79CAGoYx1QDxP2xh3RiMP9QzIg6bA6zR9MwfM/+4+4MDd+oRa0+ojdYybfc0b95/jnsHRgE8RjDujEYf6h6hnf4+7iN0R/9xx4Oz48qwZmEHow2N8Tjj9TaUDvx4O7rLOH2zB8z/7j7ghv6EVh40ZtGOEzpxmDjT5e5o37z/HPjHowmjiccfqbSqc9nf4n3dhDd0d31xE7kz4YZPEZmFxN8XJsFGOIzpNIUB3wDGx3RiNPFEbscDrbT7gjj4CU128U5kT4aG48EZuLn2D7+5sJbuiniAc/C3/GG2AY4jOk0hQHb2DOJNSg/LT7uwtnW19o+2IjeFl/os88ZcdQ0qG4638s9+nMiwfyorh3a/PHE6tKjH46OGKM/cwqEzosA9wFp1FQgdbRkHu0Yy46gg6ijL5duOK78qGG950/T3NHHSa13iM8RDrikxLTmPg/lRHN7tY8c6MfgKa3cKPd0M1RYZb3jT9cbx0QG2F2Mw2zRSIY70GjUNGY4VR2U94xxfkKc7pPceOKHB/NiNb5+XuLCYO8+kHf9xjbAGuM7J7q+GY+N+bELu7UPD3NAidKmGfHyznNbNE5De/Qg0agKBmOFUZmV3j/AAZ0GF04gp7Bp93tjjXBdl91fBAjUcWFfN5nHDZVBZlntOrNh4QP5Lw49leOL8qh9mIdGAz+o/b3FAwnm7J/YdXHG7COYORD8zjiuE1FA7SmQxqaKPczi2dvLb2hNe3U4UjNhQ+bCHpD26h55rMI/JdlHs1HOe6qE3J7zpPl7vINaOBxdBhktaepFx1AUr0tGiIKeOIucaABSU7CXTR3ZXYKs1zHanCgowXn8SCcg+WIt3p0KuGckqk6XVBemfPFJefcTobxS1woK/hjDL4sPQXgE07iqI34UE6284/RAAUAY4EIc+K2nsp/17oiQfyohA7NY8c2JhJ/nOpHy1ZrmO1OFBXo3zwj6N3dmUlNeZon4h7/AHhhUJ1I0tiNcNYpH2TfT4S6IwcyiintUOL/ACqcl/Ug4aiv4aHM+bsp+qDRqAoznRP5cRrcvwp/zfiZg0PSdcTqCD2RDCidIV9qjYTFiGLFaw5NOgDQocPotA9xvHShNPEoRG81wLuzMDqNUaHDHj7owofIeH2zHtBoL6GDv0INGoaM5+6LDp7x/vMjndDPgmN3NA94Rf2W+JX/AE80WuFLToIKccHitdDGpkQUkd6gMLi+LFjBz3mvJ05+D5QpbEDoTvHyRwRkduQGZTXvbS4BGilznGlzzrKp6x4qL/lfuSGelBcOIT2HnChQnnWWDHAI/Pb7oi9cFp4nMwVm+JlWA5+Cv+IstH2zI/y0e8Yv7LfEoDpQvA/fFBhfmRWizT5KCOhDc7wGfBf0IzD5eagu/MhuZ54gOk9o4qL3ePuTBYm5+TaMUH5cZf0HNd/UPdEbqhM8SnDc44i7cFAB5kEm2jPbE6ERruKiN68cY/AT7TXYq7FXYq7FXYq7FXYq7FXYq7FXYq7FXYq7FXYq7FXYq7FXYq7FXYq7FXYq7FhR3NYPFYK8NLtLmkDdR9kWtyqRvaQm7oMOnvd/pRSaoLRxKrsVdirsVdirsVdii0U0jTq602ONcF4f3V8Flu1dSwRjWuyTEyiSKNQKwj9spp06RuVdirsVdirsVdirsVdirsVdirsVdirsVdirsVdirsVdirsVdirsVdirsVdirsVdirsVdirsVdirsVdirsVdirsUTIpym8saN2lNe3U4UhZHQe5vHHHbvYaFDfp0tB1KuxV2KuxV2KuxV2KuxV2KuxV2KuxV2KuxV2KuxV2KuxV2KuxV2KuxV2KuxV2KuxV2KuxV2KuxV2KuxV2KuxV2KuxV2KuxV2LC3fIOH3UTkE8qpbJ/BOHo3inQotNUJo1dZVdirsVdirsVdirsUfXJuUpOUwalsn8Fsn8E8b4J8FDOnS0VKuxV2KuxV2KuxV2KuxV2KuxV2KuxV2KuxV2KuxV2KuxV2KuxV2KuxV2Kuz2nDYu+Nk2LBurKdwo88WExN76LAsIH6bPPPj/KnQzzm0KETryBSsGduieRUVnSYQoDvho9yPwauA7J7tYTm0cmLyu8Y3tbNrHaoXw8mz3PhT+lGPAAKL83kMQ+Zviow6UNh4nPj9bKEz5D5Y2N3sUDqbk2aPd8SJWBo7UAdZcSVlV0UYjvLiTamRqon4fCnyz4WD/mO4AUoIM3UrT24ouCnmnKb2U+5I76nlsM2aEDuzMIgcyJ+Kzz9zPiHU0UqG101FJ7czB3dIOZ5+WfAh9OK3hp8kDjoWEwdz8sdjvvT7vwWB0omUexulBu7M9L+U9r+Of+1C4k/bNweKNTy5h79Pl7kwz9wUdzRmwsJH8p3K+U6D7mhQPzYgB7NZ8M0RhrguET68M9gqgw8rvP+jmwX1RGmGfEefu87oUHiT9s2JD6TSFBfXkinOwuNviZI/65piVw3B9h9yYSd8Y5rmO1OFBTWvnhkw3d3uXqgw+Lv9Zr2dJpCguryBTnYVE/UybBmmIJoREQdypHu7CovSi5PcNGdhELoRjR36fPNc41ClQadZblHtOnNfDPOaQoDjryBT7jed8V/wDcc7DIdVLX2j7e5cJi9KKRZozo0H8uKaOw6fPNJOoKG4638s9+nNLTqIoUGnWBknu0e7g7pOcf6jnYYPkPDNwg/pu8FDHwjOLejEeP6vcY+Z/9xzj8UDwP39ywj0qXWnOwodTD/lmbHP6bvBMbuaBiozI7ejGd9fP3dB7/ABzWu36Vhjvja3+nNjt3sI4KC7ewFP6nuHHNj/vv8fccPv8AHOhfsu8R7kKwf9sY4cPpO4DHhbutreH3zYzd7COChO3sBxQ3VHk5mF/v+Q93Nb0XOH9RzHHcFB/bHgjGP855iZ3ojrguMMrCR+r5DNc7pRXn+o+44XZnRH1Q4QZ3nT9PcsDqbRjdEp1ihnZjiRfzYjnd2ryzhDrhkwz3HE4ONFOo9dSBM2pw3HHhJ3xz5e7sJZ0YzuOnzzIx3Qz4JkJs8QNhDvTWN1NFAznt5sdmUO0LCx8TT/TmFxqUDrbTb7jh9VI45pc40AaSUYrxQ6K4vo6quHuV+Ck0PZEcADWKcRZCpbg41xOn2L8LQ+HJ9Fls7xuRDNo/kM7Smw26migZz282OMsfMNfliMQbKHob1nejHgaenD6X3WWzsc2tpWVEdQPFCIRQYjnPtPu7Cm9IMf5eWZhB+AqE3mwGZZ+Y6vPPh4SNcB2UflrWFDexh8cyOa8ghNZ0RR7jis6MZ440+ebCwVmzy/xDvro9zYXBisDm5QiCnrH2WzJG5ziQqBidHwZ4Y50zXClpVMeI1wgspyWCgAn7Z/pGEtfCOWCOPBZEWPD9Edfo26XBBjBQ0Ysp0PldIaCouENh8trCcomk8VBh9FgHu6GenCcLCFDaKqSccfu8UY51xnZfdVwzy06joKiwXTQ4QYe444bqsrSocPpxWDjT7kwtnW19o+2YSyc8lvaUWNlgQw3vOk+5oZ/Mhltmn65r4/5zy/uq4Z9B1L0R1wnGHZq4ZjYX5r2s4+74EdkzH0WhOjxRQX6h1YzDGt72t4prBqaKPUPdVFg094ONzN4UGDFBAhUuoo7vP3I0/mQqLD98zBWHpF1g+6iRvzYhd3ah4e5sGfuigW6MyJkzO5Le06E1jdTRQPURW1RWB/eNB8szBW7sp/Cjz93xHdCh9hpzMFhVAmIe7/fqcFjbomQex3+DMiH8uEBaft7kweN0IoB7DozH4RXDhOoUKH0Wge5nu6NDrDTmYLC+MvPcPrR6nBYvx5B7x/rMPwQvE/b3fEZ0mkKA7fDGOMfy4TW26fUxSNbeXZpQIrx4Y/8AUybAPckbeG0ju0oOFYpx+j/Me1nH3PEZ0mkKC/ewHG8/lwgLT9vUxHDWzlju0oEajjwp/wAQbYPv7wht6NLbDjwyJ+rk2AepiM6TSFAd+mMcR/TivPH3IW7xQoHyAY8Eh/GX2D7+6A3ouc2w48JidKKRZo9SWnURQoNOsNybNGN7+lEeePvCO3ox3/XHGd0o7zx9VCG6kcccHrFNvuVo3OcP6jjYOjBJtI+nujCG7o7vrjad7nHifVRG9GK8cccE7xT7wwxv6gP9Ixt63O8fVOG6K/xxRXbmEqA3dDHh7lP7j/7jjf8AsN8T7owwfqA/0jHC7PVR/wB52KIfhKwcfpt8PeGF9jMcL1Ub95/jiwj9t3gm9nuVrukXHiccT9lvifdGFdjCmt3tOKF2eqj/ALzkOtwHFRz+m7wTBuaPeEdtbsnwxF24KF6rCBujOxRQecwjgm9nuR7+i0lQGHWGClE0UprxqIpVG+D5+6I7d8Nh8Uz5HeSbEOiltKhdnqsIH6zk74YzW8Qo5+ChD2iV91SvuqV91SvuqV91SvuqV91SvuqV91SvuqV91SvuqV91SvuqV91SvuqV91SvuqV91SvuqV91SvuqV91SvurCYtdDW6ezG6AQ78N5bqUr7qlfdUr7qlfdUr7qlfdUr7qlfdWp11ZZ1xXGJbijNPQJTeS7V0VK+6pX3VK+6pX3VK+6pX3VK+6pX3VK+6pX3VK+6pX3VK+6pX3VK+6pX3VK+6pX3VK+6pX3VK+6pX3VK+6pX3VK+6pX3VK+6pX3VK+6pX3VK+6pX3VK+6pX3VK+6mYM2nXlRNHNxxcGqnZ2H7qE7pQnDiFK+6pX3VK+6pX3VK+6pX3VK+6pX3VK+6pX3VK+6pX3VK+6pX3VK+6pX3VK+6pX3VK+6pX3VK+6pX3VK+6pX3VK+6pX3VK+6pX3VK+6pX3VK+6pX3VK+6pX3VK+6pX3VK+6pX3VK+6sIO6Gwae9f+s+Sg18gJjKHckubq61K+6pX3VK+6pX3VK+6pX3VK+6pX3VK+6or+nGeeKj0fnt/wDqsI+QoaHXVK+6pX3VK+6pX3VK+6pX3VK+6pX3VK+6pX3VK+6pX3VK+6pX3VK+6pX3VK+6pX3VK+6pX3VK+6pX3VK+77TGcJNDT20ffHGiDnRXfTy9TQoXwjJs0YnQ4et2hMcNRaD7iL4jg1orK/Bb6GH+Y8aT2D6qhtekk6zjdhI2eTkM695UCN0Igp7Do90YRE5vJZZ/tUpkPoihPB1iK/x9VTve48VE+N+UosNutzaFDdvaD7vc92popKpdO85bu/HhDN0TxAPqXO3ClQR8AxxIHQOjsPuH0bB6SMdTB57kI2EERItW5nZmejbriHJp3INAoA1KJDrc3QocTpNp9zFx1BAumdyj348KZ8YdaPt6mI/otJUFm5gxvhdB2js93iH03BvdXwQG8Uo0VGgrKGqmhRx0mtcPD1Mc/AUxm4UKkb6EH08kph6Tcg9useftwDqS4ysbpJXJwZrf3In0X4uEBg3Qh5lZMNtG/r9RGZUyM4Dx8/czYX5jqO6vMPxQvA/f1Lm9KhtpzGOqeMg+I8/d5blDRyO86+HiokQObyGUaTqXo206aADX1lDJLobQKAGudR/aofSyHNJpp3epbTqy202rKa9wG5rvoCiCKC9vHgosMOA1OoJ1H/aERhFLgCNPOH+EJr2mlrhSPai97slo1lUNhRX9jVyWiHo1AGI7hoVMOE9z3TPdpJ+i0fh9Zb5IUxi7qyR6ikqLFqixC9vZ7mp5rAWDtrzGftu8R6lv7jP7hmDJnygW9qa9uo+zyC8pBeUgvKQXlILykF5SC8pBeUgvKQXlILykF5SC8pBeUgvKQXlILykF5SC8pBeUgvKQXlILyLw2E7XoiBNh+jwfkuyge+ncobg2C10N1IOWT5L/AIzO6L9l6WIxgoFAaHfZSC8pBeUgvKQXlILykF5SC8pBeVAa0EGkGlUfw0Pui/ZQ3uhwQ1hpDMs67E2I6FAOSCAMo/ROaWYPpdlUgalkBoOmnWpBeUgvKQXlILykF5SC8pBeUgvKQXlILykF5SC8pBeUgvKQXlILykF5SC8pBeUgvKQXlILykF5SC8pBeRYW0dYdqTyXQnFxBNLNyihrcGb6QUHSdHBbDB6d/pXfRaYkJnyCnxWjCAe1oXKgwX/K+hf8T/8AsC5MKAz5nk+S5Uej5APNcmJDf+4PotOCgn4Yi0YK0fNFX/klpb+Ww0A9u9SC8pBeUgvKQXlILykF5SC8pBeUgvKQXlILykF5SC8pBeUgvKQXlILykF5SC8pBeUgvKQXlILykF5SC8pBeUgvKQXlILykF5SC8pBeUgvKQXlILykF5SC8pBeVEGI1tDsoZQpoWmHg7v+5Hkv8Ahwz/AO77KhuDw2dZiU+SL4gBdRQOUpBeUgvKQXlILykF5SC8pBeUgvJzMkCmvKWzhPG70nhoWjAmf/N9l/x4Le2Kfog9z4IA1NAWTRTpJpylILykF5SC8pBeUgvKQXlILykF5SC8pBeUgvKQXlILykF5SC8pBeUgvKQXlILykF5SC8pBe/8A8MH/xAAsEAABAgMGBgMBAQEBAAAAAAABABEh0fAxQVFhcZEQIIGhwfFQseFAMJCw/9oACAEBAAE/If8ApBSyKlkVLIqWRUsipZFSyKlkVLIqWRUsipZFSyKlkVLIqWRUsipZFSyKlkVLIqWRUsipZFSyKlkVLIqWRUsipZE5zORA6tHo6IOzwP2Vddp3YBExMZYcdQ+iVdEaH4VLIqWRUsipZFSyKlkVLIqWRUsipZFSyKlkVLIqWRUsipZFSyKlkVLIqWRUsipZFSyKlkVLIqWRUsipZFSyKlkVLIqWRUsipZFSyKlkVLIqWRUsipZFi5DD6YdULEjkk7eRXrKjP2UxHQNuy33odwPs6bFxA2ODgQ0FSyKlkVLIqWRUsipZFSyKlkVLIqWRUsipZFSyKlkVLIqWRUsipZFSyKlkVLIqWRUsipZFSyKlkVLIqWRUsipZFSyKlkVLIqWRUsipZFSyKlkVLIqWRUsipZFSyKlkVLInpuW47ho9EQBZYD7KKqOyCN4yK+4fRV0iLBA4GEFSyKlkVLIqWRUsipZFSyKlkVLIqWRUsipZFSyKlkVLIqWRUsipZFSyKlkVLIqWRUsipZFSyKlkVLIqWRUsn9xLDH9x+gvQAAABgLuQxIwxOxNcmxIBd2gtHw5Uy3kfTjsWPCGv1x5cNHC3ILmSGJv/AAI7g+MDkckGZhfp10tAAAAEAByRBA7cHCa5D4CVloBaD8yZhGDeLgbezoTAwBgOa6F6PQ8Ht8MbKmlm0Vr6HVBXCsLhzs1CO44lkU/Qy7G0ZfFMByBQIue07OhhgmAFw5rJsbVf8yE/pSdzg3vSV8No4eok/X+LIR0hf6fFCepjHnn0kzcX9tfkq/JV+Sr8lX5KvyVfkq/JV+Sr8lX5KvyVfkq/JV+Sr8lX5KvyVfkq/JV+Sr8lX5KvyVfkq/JV+Sr8kW2AYnvpIBiT0RgMsTsAsYcz6GWXAwCJAOSwCdx4IqFrEtBRGouQthCggcEAe6Ed0BQABhx9FX5KvyVfkq/JV+Sr8lX5KvyVfkq/JV+Sr8lX5KvyVfkq/JV+Sr8lX5KvyVfkq/JV+Sr8lX5KvyVfkq/JV+Sr8lX5KvyVfkq/JV+Sr8kygT5NzeQKsNijH0mlAFjcSwIu45pxCA2BRGBEO7jUeIhMXdcsmvyVfkq/JV+Sr8lX5KvyVfkq/JV+Sr8lX5KvyVfkq/JV+Sr8lX5KvyVfkq/JV+Sr8lX5KvyVfkq/JV+Sr8lX5KvyVfkq/JV+Sr8lX5KvyVfkq/JV+Sr8kDMWtiOWm5yB3y4mdBsAQfH0Vfkq/JV+Sr8lX5KvyVfkq/JV+Sr8lX5KvyVfkq/JV+Sr8lX5KvyVfkq/JV+Sr8lX5KvyVfkq/JV+SqE1UJqoTVQmqhNVCaqE1UJqoTVQmqhNVCaqE1UJqoTVQmqhNVCaqE1UJqoTVQmqhNVCaqE1UJqoTVQmimTgxoBHG7eFDzWoBAL6O7HNkHS63AZNAVZB+gCi8hiIsWMgHWF7ZkJ+BkMNC9bD9VYpd8FORtA6q0Jxs1oDRPdQ0mQoVUJqoTVQmqhNVCaqE1UJqoTVQmqhNVCaqE1UJqoTVQmqhNVCaqE1UJqoTVQmqhNVCaqE1UJqoTVQmqhNVCaqE1UJqoTVQmqhNVCaqE0eJpzZKQQ6MN07jIUWNzsyGSFBuCkbCHDQRQEQYuYEaRoxAELi4gi24HTixy4ndGLyFUJqoTVQmqhNVCaqE1UJqoTVQmqhNVCaqE1UJqoTVQmqhNVCaqE1UJqoTVQmqhNVCaqE1UJqoTVQmqhNVCaqE1UJqoTVQmqhNVCaqE1UJqoTVQmqhNVCaBSA2AGrDndagOwBKEAMDHRqqhNVCaqE1UJqoTVQmqhNVCaqE1UJqoTVQmqhNVCaqE1UJqoTVQmqhNVCaqE1UJqoTVQmqhNVCaqE0z9aZ+tM/WmfrTP1pn60z9aZ+tM/WmfrTP1pn60z9aZ+tM/WmfrTP1pn60z9aZ+tM/WmfrTP1pn60z9aZ+tM/WmfrVpNrsJDvV5QmOK0rjeOD5iDQ5wIHTIE2B2kreGRix4BJygR+kN82DW0z9aZ+tM/WmfrTP1pn60z9aZ+tM/WmfrTP1pn60z9aZ+tM/WmfrTP1pn60z9aZ+tM/WmfrTP1pn60z9aZ+tM/WmfrTP1pn60z9aZ+tM/WmfrTP1ocCE3IGLoTg73E6k+Uw8Ce5YCcp8SDSIHZaUDf5+kAAgT5QQYZocXpIwGggAmfrTP1pn60z9aZ+tM/WmfrTP1pn60z9aZ+tM/WmfrTP1pn60z9aZ+tM/WmfrTP1pn60z9aZ+tM/WmfrTP1pn60z9aZ+tM/WmfrTP1pn60z9aZ+tM/WmfrTP1pn60z9aZ+tRQ4RswkA9h35yJknkkYwY9iguu056Z+tM/WmfrTP1pn60z9aZ+tM/WmfrTP1pn60z9aZ+tM/WmfrTP1pn60z9aZ+tM/WmfrTP1pn60z9aZ+tM/WmfrXt0l7dJe3SXt0l7dJe3SXt0l7dJe3SXt0l7dJe3SXt0l7dJe3SXt0l7dJe3SXt0l7dJe3SXt0l7dJe3SXt0l7dJe3SXt0kwzkR4aI5tDv4H9ncngMwWPYhIAuQRZZsmVzxuxbgF0WEYnBPbpL26S9ukvbpL26S9ukvbpL26S9ukvbpL26S9ukvbpL26S9ukvbpL26S9ukvbpL26S9ukvbpL26S9ukvbpL26S9ukvbpL26S9ukvbpL26S9ukvbpL26S9ukgQSHqZCCa2FlExhaOpBLGdQEJIJEPHd0fRHENsFqA/E+TAGwMD9A56IeyMB1g6L26S9ukvbpL26S9ukvbpL26S9ukvbpL26S9ukvbpL26S9ukvbpL26S9ukvbpL26S9ukvbpL26S9ukvbpL26S9ukvbpL26S9ukvbpL26S9ukvbpL26S9ukvbpL26S9ukvbpL26S9ukhtBWWXRWY5HrzF4YZLEY+Be3SXt0l7dJe3SXt0l7dJe3SXt0l7dJe3SXt0l7dJe3SXt0l7dJe3SXt0l7dJe3SXt0l7dJe3SXt0l7dJe3SXt0l7dJe3SVEkqJJUSSoklRJKiSVEkqJJUSSoklRJKiSVEkqJJUSSoklRJKiSVEkqJJUSSoklRJKiSVEkqJJUSSoklC7JKgTBpbzw3cCPQ6YQODMmSYQKwuRxhxiPAIMV4FwRjKSwBbAACzABUSSoklRJKiSVEkqJJUSSoklRJKiSVEkqJJUSSoklRJKiSVEkqJJUSSoklRJKiSVEkqJJUSSoklRJKiSVEkqJJUSSoklRJKiSVEkqJJUiSgMowcC8XzxTEAEGQ9giYERiHA2C7LIH0fZCu4kYoyES0QxKJJUSSoklRJKiSVEkqJJUSSoklRJKiSVEkqJJUSSoklRJKiSVEkqJJUSSoklRJKiSVEkqJJUSSoklRJKiSVEkqJJUSSoklRJKiSVEkqJJUSSoklRJKiSVEkiMQWzS5WERY22uwhGNfWg6hUWeoThgDPxnQO1iW6lEg5MACMyToWbgswZUSSoklRJKiSVEkqJJUSSoklRJKiSVEkqJJUSSoklRJKiSVEkqJJUSSoklRJKiSVEkqJJUSSoklRJKiS/upSlKUpSlKUpSlKUpSlKUpSlKNlIsbRQAlkWJyI9rYlujiQhQcZOgLHQnBH3iMa+Qz/G+CFZkA+GUpSlKUpSlKUpSlKUpSlKUpSlKUpSlKUfrwBgYHs4mwGCtrLO5GIjgjYK8GTgxv4RPSl4b8ChomYgvLvjFKUpSlKUpSlKUpSlKUpSlKUpSlKUpSlKUpSlAgABAdHgcrIWwNlYpAH9qlKUpSlKUpSlKUpSlKUpSlKU0bitG4rRuK0bitG4rRuK0bitG4rRuK0bitG4rRuK0bitG4rRuK0bitG4rRuK0bitG4rRuK0bitG4rRuK0bitG4rRuK0bitG4pq3DRsq0G4MAZhrBwRiUgOXhujoQ4XguyYJ+gCC2EQRciJjgg/MIiOoC0bitG4rRuK0bitG4rRuK0bitG4rRuK0bitG4rRuK0bitG4rRuK0bitG4rRuK0bitG4rRuK0bitG4rRuK0bitG4rRuK0bitG4rRuK0bitG4rRuK0bitG4rRuK0bitG4ov2hiJWORT4enBRvYADYEUCdpbWBmgyCO+Fp5DgHJjlm+DB51CawwwCwXdQimKSDxMTdQ4TtwYI5iFo3FaNxWjcVo3FaNxWjcVo3FaNxWjcVo3FaNxWjcVo3FaNxWjcVo3FaNxWjcVo3FaNxWjcVo3FaNxWjcVo3FaNxWjcVo3FaNxWjcVo3FaNxWjcVo3FaNxWjcVo3FaNxWjcVo3FaNxWjcViBy4uFHWjcVo3FaNxWjcVo3FaNxWjcVo3FaNxWjcVo3FaNxWjcVo3FaNxWjcVo3FaNxWjcVo3FaNxWjcVo3FaNxWjcVo3FaNxWjcVo3FU5CpyFTkKnIVOQqchU5CpyFTkKnIVOQqchU5CpyFTkKnIVOQqchU5CpyFTkKnIVOQqchU5CpyFTkKnIWofAQ7qCuECBiflGTKLANc0d/oQTjYJ0DY582QHVCI7RHPZGLLTpGGwqeQP7hQa/Qgs6KjIVOQqchU5CpyFTkKnIVOQqchU5CpyFTkKnIVOQqchU5CpyFTkKnIVOQqchU5CpyFTkKnIVOQqchU5CpyFTkKnIVOQqchU5CpyFTkKnIVOQqchU5CG1COkGOG4B6qPs92IhseAlg5UDZkERWNzJhBM54QzRrgDlzM8LNGVOQqchU5CpyFTkKnIVOQqchU5CpyFTkKnIVOQqchU5CpyFTkKnIVOQqchU5CpyFTkKnIVOQqchU5CpyFTkKnIVOQqchU5CpyFTkKnIVOQqchU5CpyFTkIgZd6DumZXjDExPscICM1wMuAmhAnNHEsDDURULE27QWdFRkKnIVOQqchU5CpyFTkKnIVOQqchU5CpyFTkKnIVOQqchU5CpyFTkKnIVOQqchU5CpyFTkKnIVOQqcj+sRF2/eWBGyOsbvgBapWHccjm7kOh8BTWmAiEIk4Jir+yxAcgJJQAz82K2OMDxJvATqK6OouXZGSCIGPRAtwON90R0KAdgX+9fSKFzREEcH4bMR6GPiyz0DrLZjXBzlHdjY4/axlRtI8i74ciA9tj2n2WziOasAE6udW4g5AJuWJZvCYm0G2tyaWwWzhp2CmhEAhjEIAzYkQZG1WrPGa2K+2F1xb3DNWINiOD/VSyKlkVLIqWRUsipZFSyKlkVLIqWRUsipZFSyKlkVLIqWRUsipZFSyKlkVLIqWROprHtGAFEDiyDZDAblF1IOCkW8EABDoOw3Qf8AxY2Km/CIxHdX6IRsBoW4AZQX4ogxZgzBOVpujlhFmscrR56IyG+Y9txFLzyWgAii0z7BayOfpA2giQXyg8KPhYfVkJu0i1zPLB8woQDZ4OkFEK+XD/SaN6YOxrHS1UsipZFSyKlkVLIqWRUsipZFSyKlkVLIqWRUsipZFSyKlkVLIqWRUsipZFSyKlkVLIqWRUsipZFSyKlkVLIqWRUsipZFSyJ+/HMPCJsZ0OJlwb72TJhZ9LyfmPECa1rgGeKZK0wA47SgqWRUsipZFSyKlkVLIqWRUsipZFSyKlkVLIqWRUsipZFSyKlkVLIqWRUsipZFSyKlkVLIqWRUsipZFSyKlkVLIqWRUsipZE0CLHtGGTbrGNoG7p6Vk48oR1wnQjYIfGlgWHIZkwLiAudrenFnEB9mIwHZ+UyNRdxuydUOMEuE9CAFh3g53D/SLBAoo+TG6QKpZFSyKlkVLIqWRUsipZFSyKlkVLIqWRUsipZFSyKlkVLIqWRUsipZFSyKlkVLJ/NAo8Mz4g4nALXQI1z4s/wKgCWgoAPLX46A8q2xF245OZQCoC0N5/wgVAAcFOA5izm/Uv8ArpYC4f8AuAYgAByTcomWE++qGZ2T/wDsJmzpwaSGJGgw889hM+EHmWbfAsQADj1J4F6i7iZ/HKziGl5scz8o7FAxRjxyJ3B9r30AYcoObbHRPTiJujAOCiCfJZx9Q3/TSz4lt2IbGIAbqGPSp9BwJAEksBaSjnAwjAyu54Zu4WQHukdQ8v8ABmaBgqy4EQASDEG9OKEYIcUNyGjf3QzaR7ei89AgGDDjaF4HIA32/NCMv6Kx0/xAg2BgfSyNd4/vCUSyAWlcOpRmQFeI0Fg42h0VAAbiuvBsdbBRLKIOCLHES/xPXcAAHJOAWRdNG1C361XYHHBxtwAYAJQIN6MkJIB834OqG3xIvlsBif0J6cAithWnedE2CW8Q+ggs5wHwEugRbwbYCZ2BAgBJwbCOcgGgAnqAHt2IgMINiwUAKTrbQsChYoEGtu8Hp/awWkAZxX6CJ6JxAgIlaV5OZPIwcHwVYXHxyRMG56oPooZLB7LND+8aTTpDuL9OIptCBqeQoREScZchBjm2CYCA8TyEgIBJQy5CHBuIZl+8YCuidd3Y9PiSfG6e9PFIMxIubXjqhkQAGAFyNi79j7f4CwAE8wAyAABAAc5LaDHT9BwPFTTvOohshct5Q1EUTBxD/wBkVRD10T+hvyxbB2bBDu/dwOWW7uPPIeGgToj3JGbA8NLXYkYM/wAsIdD/ABLJm7vI46oHYByzJcv2RjPiTGA/YiXwxHuOIT1gEoxG4nMzHkyiEWX6BPdeB4Nm9wagOFluB/xtL/3wax2KyyFIzG3AGIZ/wnTpxsOskDkZtY7ZCALlDnCUxOFYOuiRHcKxKJ1QWGbgP64xAM3FljDxice48pG72/GsawBGiALFYXhQhbtiT24hHnbAYm4boxL2jEonuryFeGkB1WTnsH81/wDj3BcRHNhY3g+OMaOcxDu04FAzuIHyTI6IGBBHc8Td4fSrFsE08CDk3BxzOAamMgYC4NwNimkkDDNA+IEBcLdVt5n94HYBZgcaTCZmLFi7/gGLlzoHQnBX+GEWgwPapzxntst4DeRYaSv7MqaCF3bnR4uNsIOqxLIQUxYHIMRaF+ToD9YHrwL0ID51gvH20RqKzCtMlgyufBWfAf8AOQ/4swKuog/YUGYOwFpLAC8qMYg49Td03QvbgvUeeICAcGBCIS4HFLizbkebHLOQQzjkvZPjXcFGGYIC0m4BF7ZsG7IZDjUFafCJ60o+i01hFxnK/wC00X2SB9oAACwf4X/6UR5VEeVRHlUR5VEeVRHlUR5VEeVRHlUR5VEeVRHlUR5VEeVRHlUR5VEeVRHlUR5VEeVBwBtDIPixHonQOgRIJIytZpujVvqUMvfjCD/iCh2m/wDAYqMWWIO52TJLrKNwB+ZaHdBRY3gBfDIBzqjPKojyqI8qiPKojyqI8qiPKojyqI8qiPKojyqI8qiPKojyqI8qiPKojyqI8qiPKojyqI8qiPKojyqI8qiPKojyqI8oKPoiRbzDW2g/R3V55AOh5KFjGHS7fBG1CWrGoE4mDo6a9EUztIGpkYfaINoTOmYDtU+EYIpI3CEMdhuVEeVRHlUR5VEeVRHlUR5VEeVRHlUR5VEeVRHlUR5VEeVRHlUR5VEeVRHlUR5VEeVRHlUR5VEeVRHlUR5VEeVRHlUR5VEeVRHlUR5VEeUwpSoggDM3KF72wBkLBw0yUxe/TkEWwXVYaGxAjYGAbiAEVhxAnHIashIqxofbxx1gW6CHJNY3+izfkgCwOvH7C6cLWkcYg4g3FMEFnB2Yha2aespM1RHlUR5VEeVRHlUR5VEeVRHlUR5VEeVRHlUR5VEeVRHlUR5VEeVRHlUR5VEeVRHn+SZmZmZmZmZmZmRoqcjYCH2zUw2+jOpAABgGHAZ7mEmp4bzH0NqGlgC05wLhmjEC7ARBjHHlYWAIzkIwX222B+n35ckzpgA5gBcHYFADo5EAoJEE4TcMA+z14jiQnnf7nqCYgMlhe6hv65mZmZmZmZmZmZmZmZmGgsMCiQiMBE5nqxExFEPHkh5PdSgPtgUFC4cHvWynENkAyieODBQB1mw9kHpNQ8DP75mZmZmZmZmZmZmZmZmZmRFoHJNgIIbPA2HRnG3uukUQOIBfxHfSJLixZg0n3V8TWHcCBSzepvtQysAQcmBjxjooLIjfTxIlWJnVch6LWYmdonNHFn0jAB9IB5PRBNHbU5Muiii8293d14jDYMQbwobZMHe0fZ8PMzMzMzMzMzMzLzdCWlp7AozFQGyt9/IfMSkxhk+2RgmJYgMuNGOz9EXRm5c9V/IMGjTZwCIABGhYYJohGWtBFpXEIdM5Fh2vJ2T8Su/RkEHA2QKHWQ2dAjCEYMZrQLzmeyMeti8QyxaEDgbjurkS6GH6Een9YnXKFkUQIgFgCBBjYHHB2DowZVrGDWwOGqH7H2UZFr268MyQqbmed0VzucxMnRLZ42AJHczaH4AySzE9q8kAAABgOAT/ALK5Nyc9V9vyUXza3hxZyBlHeuMgL9OPdh15AnrD7Asc3DqQ5QFxcjpZxEILHDrK/kvUeo9R6j1HqPUeo9R6j1HqPUeo9R6j1HqPUaNGeIr2VZp9Lg6jE9+SOoNA/jQeN5FgZi/psjK2UBBcQbVQJdVDYLd9hXCsCY+mRiKJicSczfxAYAIMCCgrN/GLESNP6TljYeGjQssFL2TvFOEXjMkHvhgnzEzZih0tQOloO7PHIUkE7yKpyr1HqPUeo9R6j1HqPUeo9R6j1HqPUeo9R6j1HqPUeo9R6j1HqPUfPWQN4F8kKAzGAJRnPX4lBEGwAwHCoYR4HKeEVFLoLSOET2RhdmsZYJ9U9R6j1HqPUeo9R6j1HqPUeo9R6j1HqPUeo9R6j1HqPUeo9R6j1HqPUeo9RxzAGCuEycRZOYDKJ/rfgJ7uTQH7HI8ywzi0Zo0TcELAuDiBCODhWI45ZNDEMB2DW88lrwC3Jx/RCGFgDBA4EZ6kR3HfiUOxCCNQK9R6j1HqPUeo9R6j1HqPUeo9R6j1HqPUeo/+SGSrerOPYDdAMGHEuTOcrEYQk30cEGvYiWsTkUHWxRy4yuLMinOH6xt458ED9kAES44oc4M4P2WadWPF4g3iDiiY+MANTcRsoLUxj2vdMEB/BclnyjNkzmwIW4WB3HfkMMvqm88EABHBiP64UbDx15WImHk+eMNWn9APgjDsUTJAZwgz4Q+4NkI9hgGXwGUGGq57BvxIG0DMEXUfocL2hCaWLob9EBzXFuQgAwxAQIAEFwVm8nsouELtHjhaWmMeUVuxjC7vOjy2HRYPd0RYcAiuZYooj0HbRwKH2GuciKE4HB+G9EnwXJDF/oENyg2ADE3jMSm3TZnXBfgc0+7EusI5YjJQOtcIBHJFz7FiCRi33fd6bp3dgH+qKKDpiCcirTgFAOcgshyAKiofE7JiOhTaB3C9obdwgjhMiiJx2ggJlQUI4RM7yThYgEics8I8ollXzbYOnIMrI1smiHLWDqA39YCDOrwAIrbqknkRBcGuTHsRGkeOBRwEQcBxsnRcjjNC4hrA7BHF+ewZm8ptAsfQAPsfAw1aAAA9x34HKTSx0Dn3nE3aoUKC1g8Au6JkAy1iAbsogAWaNrclEOJIgtAbAOvLdi8T78tNEErYDId8ABsEMZAcqjym9xDeeQ5zAhfO5QmhJK7DbXclRxb9Cx+yBeZPqdxChuGtwCzIdx0QehLx9HAoiFAJHDH4RXloD7PHwzpb1WcQs4kzx367u56cAMUQtdkdbj0UE4rxsIgEMQ4RIFvIxg8UcO16YO7R4ENiOCybNZtPThhtrFtsWPRCI4gcffhJP0EbmGB+z/W0dYdzlKkYhxGXkIgvhPu6bA4cFMe0DGh/N8CAhKKBECHI9Yvu8gYWYAYBBVAuLwnbGAyL2EN5tPQcAQAXbE7dix5SbADnERP27oIjRGwOCiq8LYwig8GwJP2OnKIlGFYgoftwCbavZyh4FDBghxALAMuBn9+EDooXiD+sJioxO5+FxUF3mGyfRCzy5ziDaepQAAAWDhG4AInZ31zwBuAjc5CLYbebvwKQbxgERCI4ciWPTEcAVAckYBA5j1egEiIdeAJ9eIi7DgEIY9eOVugC324A7OcDEJ/dea5u4PECARtJz6DvR6/1i08Q5IJcg2BHA5DkA11lcIuuIcWi5WTAwRH5umDAgsbT9J3+AEC360wDdAYG4iJvN/Fnoo2gaBxWdAYcMTAmrLEwpq3JGcQXyRtPU9gEBuhtoS/lDOAXioAeEOM2kJ26AgAGIhcFvJigbmD34QHACQYg3pxBiOPVbQ6IEACLDxjJajsO7H4UwBdpTgHAQCYgw4xDgGDDw7BWBkLT05Da7CNOIZysHlAbAjtgUMAYbDGG6GQQ0QMxDbCP5TQ3LfcY8SWDpxJtAl1D54nGgFvqarxpmhbbEQgoIXEAPeeBmeCHQWO5A5BOCLx/VdCFRHdjuF03EGAHE5YLi2KPksxp9SSgjroszfwt/uMIZhzR5OAlg5TxTkQBuIw7MrTxYcYgGwfbk9L8G3biDiZjVJvKEOwwDJEQLkSCIIVi4yLYhbKngMex2ckdfPdTbs3Fq5dcRf2do9EA4Bdj0Bh2ZPZuB8HcdiOBEFArnkHhNMgJiP4qlNVKaqU1UpqpTVSmqlNVKaqU1UpqpTVSmqlNVKaqU1UpqpTVxZ3aIAW4phHo7gfhHjOBbjhoUTgBN4APWOiHJA8FgEwvwZVKaqU1UpoCCS+QcEBSyI6cglxLuSx4gAiXBPXhdcf0gGmPqM1UpqpTVSmihCN92DqIEZoj5bjE2LXgGwQMUNYAXXPeFtx7EKpTVSmqlNVKaqU1UpqpTVSmqlNVKaqU1UpqpTVSmqlNVKaqU1UpqpTVSmqlNVKaqU1UpqpTQJljAGwCTfghEcgLJDG8fc35KjmMqlNVKaqU1UpqpTVSmqlNVKaqU1UpqpTVSmqlNVKaqU1UpqpTVSmqlNVKaqU1UpqpTVSmqlNVKaqU1UpqpTVSmqlNAYWIv5gBavvpmiTvwtEUwHrMIIOyEQvCB5ZmYCqU1UpqpTQEgXIs8wXni37nyoBMjhnOB7MjXgQ9yAEsEkPXHRAG+25H8GCN7bHFVKaqU0ThIG0eygIQmKDHsOAEI0QIRETi/i8URx1/aJfqqlNVKaqU1UpqpTVSmqlNVKaqU1UpqpTVSmqlNVKaqU1UpqpT/ixj2sbA56jkD9oQl4ddF4uQ3VTHAgAQWINycAXjRYHyCDUHKQ+6EZyXPdzBAgoEruKR1DO1ly1TC9ZzGQOp8Ao8IihXnhEHMnvS3IQEmNDIgAHsgADu4J4kFbazsjtHogQAILg/0hRZMQbwrK9iZbRaLt9J3A7gHnccB3AyQ3BOSAg7o9WA5ISiAZGFj4Awac9uQi4PEWuJTCze3JGbHtgOMJjEZMLe/F4Nb+DMWnRcO6M4GFDjxJ8oRtDkOFAuuDml1xYYlzAZcRBG+qgLHVwREXE4OI/hzm1Zzas5tWc2rObVnNqzm1Zzas5tWc2rObVnNqzm1Zzas5tWc2ozbAclqIUepMbNhHIIvcmyfZEMbgs5tWc2rObVmHvBxeDgn/oL6Qtrps8KAheI/oruBZCZw4zJmgQ+yEy5tUxTLn5TFle77HHBLgFIg+y3o8LObVnNqzm1AY7ZC1wR9lyDRAwMbCRdt9IEsgVGFiYFnNqzm1Zzas5tWc2rObVnNqzm1Zzas5tWc2rObVnNqzm1Zzas5tWc2rObVnNqzm1Zzas5tWc2rObVnNqf6y3M4g4lOfRH0gAXvWgBVRxgWZnsDyP3ZsIRaBE7FxRzgKZzas5tWc2rObVnNqzm1Zzas5tWc2rObVnNqzm1Zzas5tWc2rObVnNqzm1Zzas5tWc2rObVnNqzm1Zzas5tWc2rObVnNqzm1FjACJLEObaje672B15BHrz2TuohjMFnNqzm1ZzahSoBMVsYMEbVQL0tneiTj7BcHsFuokzjIsxkud3BFoFuqEtCBjRsTNhEmvuAWxeTIANASzm1Zzas5tQuiJL2reQcC0E9bvpOkgmYzN3As5tWc2rObVnNqzm1Zzas5tWc2rObVnNqzm1Zzas5tWc2rObVnNv8JgnIhDAyEutBCDfEezcgzt4yguA68luiC6Ig5sJ6xef9Dx07o3z5CxPaBAA5i7FjxfLcGqgw7RUI/wBWKyz27NwNmxBMgjQLdVLOgMOSDLTvd2Cj/ROoKWYwt4/uMVkDQ3AyEFzBgQPAcgVouiI9oPIKGgDlW9b3x/P+mdoLo8uTCbpyeBRjrxxOoOOHqBAFj7acdx+BZ4dqTOyfV8ssH1xJDO45dqzurHwDyeo9gOQjowx1R7OgCAwBgP8AQRbn3Wl2cj1mGwrEFGZoTL2VxyOOnEBCsIZPPGCFfE/t/SeyuDrUe4D8Mi5mMQ92HLHcOsMPt5KwZY9FGtyCotbp/dm9usDsEITcdzteYdm43lWBxKAG6dUtTrnd+nJdLmqcysQUOg/0wBAajHseRC8Ww7EHdCMwjXMZuh9HIBESS+VZ+BRBYC565nfa2Qgw4DDAOSbgoSxpoAkRODoQLAYDkDyYh/1g6/F1NMOXFAFjXDmEZggv2LwDIhjxa8iNoDP2C9gaP6MqjdkORD7ODvefIchlrQ2JuCJHUSzLfZbcM3yiLP7hGKECGMg8oMIAWDLi4kAOO8w0QGpNyHcDYXDkyGj6TG3+ukoXX/YPTlfzcAu3ZA9DcmuAEy42JuqEufQRi1prb4AJHNBiX0biKwGMGwGOX6hI5Ib2NaTysBf3AMS8YkovfksFF2yCgj3j/ImQWAtgOWLTdH97RwWha57r3Vo5CADGxBad6uO0DR3bU4cXYd/otc3Qbs39BMWhyq2HAV5OhmOQjkW2QNFWSbfHZRXdAw6cIobB9zs/9wWnZmUA7AcRgYx/3HIWlChXT60tpPLj5waB3+sthG1NDughbN5HIQAIIcFPN+E6h8h143XYZ1ru4Ddm/vbu0FsvWqDgZRijZBFwC1OaMx96j6A4ExRe9QodECbYZcDzhbAOSTAIAjnCizUw++loyMAwADAcIimKOV4YwOWaLKPWURHHI7bo+S/oyvXZZ3H7EDAE5LAFZLuDEjkH7LAMJXGJwZBXDo8MlT3IpO0rt/Z6zULHUpq3AaIJyTcEAkhkXo9TaemHNjIc5jnNan8b25o93HTnY0te3K6sBYC0riMwmNLF34BkRHjZCBG2Psv74Wt2tHniF8MZofvEPzBmbDFW42uOseIkIrFsHuD6RjY4xtg25g0Qb48rwRARWBmcgI9ECCIjDR8PDqPI97oj55huNY7zv6o78YPcZu/0ABAbCmAbfEeEDnFwWNloJdkDQ24kqQ6AF5ADqUEOGcS2y6IGYQYbjQ6th6cOl/qyyj9g/sDFdrRxhW70dnUewPMM9YBJUT+R/IP+ss9WgEC6w/Uv2/NcB1Mjb1R0J4xy/wC/YsV/6AfDgRlgOTkmdNGVwP0M5iEjQXsHs6bqAgHILlsSK8C/aacDMnIPVl1oOa7blugFQcA5gWAyA3hHuJeidQtw4a+/YeT+nSgAyJqDf4Ghi57myx/Ecah1y8A56jgM9yiQyVzvsOsD1UIRJoVEO7+0M6Gw+HA5MwHJNyEA0AN1kdo9TzHuEB1zIIeef6kMgO0ZafAG6oAYsHUYHmP7GBiCn5O+Dc8jODsX7jv7zMZfqwcAN3vvYG6oQHN6i8M78wR19Lh6NeIVjfn+IzXdVknE58sG3VCv50F+U3YZtwj6wkcAYv6QhCbZbl9IAJt+tPkjqiHg4AMRgDkoC1scb4H8ONc3Y92xYyATavuAHT+2FOyHgphwMlUelo9sOqAADAMObFAY8gkI5wYBzBwOY2bYILfsutG/KI5mA5KIQtcDUzcwkg+uwDFydhm2aZuF/GGc85CUA9A5fp1HA8AI0GP+4QhCEIQhCEIQhMAADkoNYg7Abmx568AsAIJxc4hCEIQwHIdcZD7OzmALFcXhHJ+AhpwDuDO1AC6BBHU3MyhvD2NmQZDmt3ZHSiO4TYNttxxzEIQhCjCrgYjns6EQg5uYDJChI8Qtk6hH+ghCEIQhCEIQhCEIQhCEIBlA0FGDwDdBzAEBeVgAzWI11p+48HmsbqPgShhMBgEIcDrE6ILDX9WTghJWsVZAI4voh1PYEMB/YQhCEIQhCEIQhCEIQhCEIQhCcJEBEliIHs2A3XW0evAB7Ai5vXPbnCEIQhDAEglRRc2RM8CxAC0IQxSCeyy2C4cRmEMFa9fibiuJIwCHtBALDGxXxs1VlRwLMNHMO4RJGtOGqDEcXADotk4IgYXQfpWEcADBFgGiNaKR0ojuAmWzLbjjmIQhCXSlJvIHhb3QkJ0UyS0Rf1gev+5CEIQhCEIQhCMEwTBMEwTBMEwTBMEwTBMEwQtXiZs6nsDxieuAjRj+pgmCYJgmCLAOVGQi/qEdm5yAQxTSgBwQ/wAD04Ih2ITBMEwTBMEACAxVgrBPqI8cGOueuYuhgjBMEwTBMEwTBMEwTBMEwTBMEwTBMEwTBMEwTBMEAMhCjm4DVgQQEeNto48QSRCkcgxAtY9Q8EGAEWGKYJgmCYJgmCYJgmCYJgmCYJgmCYJgmCYJgmCYJgmCYJgmC/NAFu8BvxKDLxfImfSYJgmCYJgiwDlmQsGIl6odm4nROL5uIIABh5aXoULEw10TM6GHbgyIWqhYY2gZ0CK7YWfUU7AsZDT72AeHZDQbsAwHHQr9T9gJgmCYJgmCGpuT+jTliMVGu2PUIxZbWR+kOuSYJgmCYJgmCYJgmCYJgmCYJh/va/oG6J68TCOC6si25j2aGNSA7lDBWCegbnxftQmRutyn/hgcABqHc4AAADTKdkRN0MsWhPgcUc2GIQYXhv8AzwYWci1vB8AUwswPvHxxvsPNyZJvuWbR7f2RV+X8AJwOyGJcOpQ/FDxF7935iW6nqGA+1YAAOn+DxH/BtIJrEvrmUogmYiZZNDZZ2UBA0ZuEWdQBsnmQAxCLALlNpaw9Qx/rN3kF7GQX2rRIDwBx4REQQ9gYqDlw+gdQlaBsPlzbf3U/4C9zAdQD/sIIVh9QfsOrB8joeeA/GmH653TvI8oB7EAAQ3CAh2I4voJ0ePZAz3vK+n6/zDDHfZibgiemOwvnVzdSIIagxgWA7kow/B4MRkjYcMa8INkGED0YBi8cmYguyedTP67F9HQKzq5OJrT5RCsZa3cghFRAm4AkOUW28uTqSebRyOkX/BaDIuifZ+0nE/4QZfXYPtzRlYN2DyrPhjs0CCBiBwYEeUI/Iw4uxdr9UMChqgg+j2/rN3P+hEQ4BMlhFvoUEe0OOTiT27IuFnmagGTtygrUIzQc3s2kgP8AASKAqh3UBgGBbUo0RM4Yv6jdm59V4nIl/OaFbEgQO62IG3E94Nw79kA0DBvEAPZRFEkh0AAb+aBg8Yd1jotfFlA2BgvALOwRHDDtB/slBYNY3aHHkUC/QgMf6KwM9MUH2DceQHBijfKF/WI5WEMo9qHAjYfEGCJhtoncgH0ioMZWAE0RgFu7YRnzza2bWAffOJADmARAdsdU2+nRgAYPqG+g2Th2eI59UwnIn8x8IElmCOhpCj2IcWfdHjLKXAKGJGRi+TkIAAHBiJ3dP67zSEMskNiYMOOLkMARGFwbpanR051jqIb5ADFub4TINmAccsX3b3PschIISWARAaFgLuFuO7MdyoiJgMw+pMMOLP4D2QiacLiNLwHjtyEZWkdYvCFZQActgHf60BZ4IliDjMwbqU1g3iGrQ7oegoQDMIJhkytnABHESfb/AM0OEs9jjA4jIoDKIbBaYIIf5fFhvahN2AQxwsO7qiSGFEi3WuQWP210rOnL3D7P9ZAAcgOBin3behnBa9gXoVvLC6nYgvaIUAgdgeF5TrvIGHgYmHMpfEk8c5L0Y9DyWWS8/wBti1WCqrX6IHdIu08OcgItKOoj4QrOAA5Q3wG83PEpcnTiL1wNg2AT1sWiETgIQTX8YiwLxsw2UeTFHL24EdXf2Bi0L/crAoI+XAxeQIdkAHRWRIC5zZwJDYfI0Nr7u7B34t2zwmLfhCcOW2HdLaPn1CzzYtJiPcHiecLoiO3IGTsKOyxUP1Oe5UdMs209ABUQEfOc7o5grQreILT/ADW5YDVkAmtOEWMfqgdFLHuYm9EeMSOLhAkXw/JNaY2GG5yk4cEDZxN/7ACImA2AXdxQRwtRASHbK07f4VSNztWaLwsqdmPslg4beFQE1GYPO6thR2WLR+hy2SZOAiUFYguf0DdRY54SH0gFmSFYw2H+3sV7FexXsV7FexXsV7FexXsV7FexXsV7FG3lglZnFn2JVsVliGfZ3PQYr2K9ivYr2K9ivYr2KjrItyHgjDcduK0sPW4D7TMq7Vq9igNSHRvJjuD9eJwx2NeL86ozrhAHLkHGEQyJwXsV7FexXsV7FexQyFKYIiwFEUs2GulKDkYhxCAgFBALmMS9kvYr2K9ivYr2K9ivYr2K9ivYr2K9ivYr2K9ivYr2K9ivYr2K9ihECthiS5BcY0ko3IgEAZC+DYlyDo1m1hu0LwYlCfwCMFhrLlyLJ2TYJr7IvYr2K9ivYr2K9ivYr2K9ivYr2K9ivYr2K9ivYr2K9ivYr2K9ivYr2K9ivYr2K9qn9QZN14aG3sRoW22IkR2F+K9ivYr2K9ivYr2K9ijzTtgPHO/CwzgCbuQnIZCCe03ndexRgYXMwOWGx+v+DMCIEW4L2K9ivYr2K9ivYoDDJkkiwwDoeycphQuFkCwLOQvYr2K9ivYr2K9ivYr2K9ivYr2K9ivYr2P+/ve973ve973vEgIJwciADAAwAf4e973veGNj9viQISWAtQkgJjj6odm4gAnYmgAHc8feHfBAZAuFpckXO8cwt7g5CnEQRiMD+A973ve8rXve973ve973ve973ve0AcB4YaH0U3PkeTuR3wVs/s973ve973ve973ve973ve973pf8fe973veBhCo84wHLBoHkjjrwBYDNhcE2/wADiTFrmb/D3ve97TGfk+G973ve973ve94GzuLAXX6hTIZTAYDiTHGbPOP5lUTrE7cgGHh8BFdv4P8AAiAi3vjeUAwAFg+MQLCtyF44n/hsnd/f8dDgDxmYo9oQ/bclJj9OJ2VvZx8IIGwHHHVpXV3It+JvgAcz3SJ98pEBeN3HWYdPjRiHvXLx1e7Y+EQAFhjz9z8dofYpm4ZInRgf9IHg8nT+6U3H3IAWMzR1AY/XEW9Yg8oJyLgThNyFiH9MfPwDaWsNREfSCJsFu5HmxhBHGJ8ccqkdj7+GxTaV08hz9B2leTx9wiFia71bmHYoHKK9tIl1j5+O1eLsffBmmBM+LvHiM6wSSvkfWObkju4RmLOK2YBsIKyU7AcM1oNWgvWoD4AVmBii/ecHJxKiwHJwCtazJDU/03HIHUx3YfDNJv3PocxAhJYC1CQBibcHZuTTQdX0BzY3MDUhghAbBbPjv0ZRnY8UP50XEA1PJ2dQHAAOTK9HbPYjbiDjoZUBn8IWtZMgXdvgkUQAdMY9zfiRPoA26+0d0AwYcYvuvq+gPhgu4boGd+7mK7ZaxzOgvsMDIcmQ6G2ex2c2pwHV/Q3+PEi47cQsdyOW4HB4AwuMxkdsXY+/Lis2McOwoFw4s4dwQNmu34QbFGnB3+CziO4WroA34le49cP3SAOnH831B3Ksk2PQfDAxdnUH8Mi9OJpHlz49V+rlhu0Op8JfpzHg2Gos+PDAnAMQjuOIXgYeAj6sYRyRSIs7iRHYjg/sYmACHa0JOiG3KLJzAZFPBNXgWuobgUJg+1d03O47EJ3LkA2ofMmbOzfBQvwCBRoAaAbgC1o9CrUbBQi2QsNbfbYhlgGAFgHG8ORoB5PxATceo3gZ05CQASSwCAiEdLCHbHryigcwGRTmHOzDYPUMevIA1gA5QVpp1Y/ph8g66iApWCyniYVmRZZm0RkCJx2FERcDgorJABIXNDuQG6sTkHMZ8YdkLkNzDgzFgtq0wYBZgF6EX+iBzACBjmhgJQPgyapILyrEEM1x5DJhgdGRf3bb4jWA3SHIK45rOPJAZYTBgOaAoA9ax7ByZmnuVHAPkIcwq3cg9n3/AAhrxbgIRihAGXJAYAc70EHoIzQNi4BhDnaDCQ2EEMQGfDGMENaHZrSnB2mUuaccB+1b8AdnwgPlwdDeUMScF3BGLHKHVuI0AI56lviIV+UsF7OLM1WhX23Pld91T9hyWBf3IIQHyEeQnJXIXs8EKxPRif2SnsTM5/T0JRF1nVAR9H4ZhD9RWzBdnwmq09DD7A4Y52ZxP0D/ABBGcEk3wi78BGrCFCbdndSDweelU0HsSoyuAjQj3xfeR7t0TBF/9GfurP3Vn7qz91Z+6s/dWfurP3Vn7qz91Z+6s/dWfurP3Vn7qz91Z+6s/dWfurP3Vn7qz91Z+6s/dQAdgOGrysccEucmPNPOBCzv3XMOxboJxhDB7SLP3Vn7qz91Z+6s/dWfuqwcAMVwFBOgzdwoocbgdDCt4eMoAPamjmbBO9gDbWfurP3Vn7qz91Z+6s/dWfurP3Vn7qz91Z+6s/dWfurP3Vn7qz91Z+6s/dWfurP3Vn7qz91Z+6s/dWfurP3Vn7qz91Z+6s/dWfurP3Vn7qz91FZxuLtORG6cTSKjb5nobdm4hvkPU0EThxZvCz91Z+6s/dWfurP3Vn7qz91Z+6s/dWfurP3Vn7qz91Z+6s/dWfurP3Vn7qz91Z+6s/dWfurP3Vn7qz91Z+6s/dWfurP3Vn7qz91Z+6s/dWfurP3Vn7qz91Z+6gCrHscHoGwHfZgM1Drd0ULDGQL4XHNFt8CYjerP3Vn7qz91Z+6s/dWfuoYCJxEd0U7s7EOBM1XzJ7zfpUDCh/mJW8Fn7qz91Z+6s/dWfurP3Vn7qz91Z+6s/dWfurP3Vn7qz91Z+6s/dWfurP3Vn7qz91Z+6s/dWfu/04IMDkICO3Fs3AYq7cA+3Wf3OcE85EOxJz6hHjYuoaK6Xz1FJe3iCju5aWoh4+DIcMbEQdokdfhLdEARBx4CAO4bY8bph0UQhn2ECYwc303w+mQDl4A8dLLj9RaMToHzz6wA6w8ojoHvwG0nwuB2R3Foy1ifXx7GYHiUB3RTpzNiX/FCXTHCzly1pJJ6oRZ2Ptz38vEjNfZkLAOCw8IAMA5ZAQuEdQL8AvPOoA9x8IdsJFgxaS+90EzWm42bzyXSQbOwd23+GtT2fQLyHKie5QAEkXlzwG17iCtZedg+3OTcHEYiKhE3kAjiAAWAMo4/RPjz0jjyZBBWA3JDhbsIP2JQLhxzWAtGzJcoEOdKzO5b/CMWwkZYHlL7oZoGB6fDaQNk8HdygfqBgfIUC4cWc2bIWuw7bnLPSg+PkRtAGklyva+hP9a6wQPfmyh04G+35QZLF9B+zoFwCLD8HF6LAHjlFA5gMii8PqgbfTH4XrbU0u7l9vyGT/2uoAY9+bL5AdBD7J5TAL3AOezoAiOCHHx0X2kDRH2fmB92xYBnLDsUYuiP+9offKCzxnqEW6Q1CB+vg48b+YwoQI6B7/CostGHJvieaDhEOh5QyJgOUFfPrHNyxRyi0K8ieFJ8dnYv15R3sR9VR6cuR33E1lgB2QL2ctH13wcZcTcwNMM9fhVatrnqHzxA8bOOpuxI5RQ9oY3IA6zsHBmcz8mUQx1PxobFhGh9nLDa93KC7OwCfKwtvfipngExLznKw3we3L+/m6mP8J9oqbhxYAxATuHwOvHKQ2z+VQPEqnoDg418fWI+u/J3j47zgT6chnSFNPLAB1BI4x6MTDsBygCA2FG8FYYdmUGE+x+WL4M2Q1rTzTGEO7fCCHBCJ8h2Q4lEDsuImJ6n6HHKoXqZ2DlMQyJ2PfwA7NwsS8MB3kyawwaAt41csA8fHUlBnJZpnuRMW1JBvp0KBhAZDmwcBtZ7EbIm98gPHIKzgElGc2hPu8/B2Y/gIcorgbi4IqPDVoKxsHwodUOhGlxjaiBCSwFpKDnQb62W2KKRaBnbkOw2IHJkS0sCrb5G0P0t6Kw8+kObDPap2O6FEgCSWAvQyBzWML3os3QynsMhloQMRiC41AITYlkHtLAC8ojyDA3On46OLs2JfTk0Ct4IwOPTIwbO5yAMCxeUO0v0QyAXALkFBWgNTAfaCGsCHQfB1aDyiKEQjKB31fUD4ZrLsCyA46kg2cFI4lkBAAAsA4eFm8lwxUAiAiCxaYmLfnOxzW8G/RNVGXHGoJgh7xWAHBp7OneEUFkyChQuLk5lpDVo/HZf66R5KLcJomYffHUQDsRg9jtFgdg5wOuNjEK0sSxeAOzcTncdogjyvStidh8JlQibP3yWRXw7iMPtRAHIbzuawG/w2XeuGA7HlR5aA7OwOcRwOQYhCPXOKMnJ6IkR7A/H6dZPAwkgISCIGg42CAtSKs2YGg/wbkfRAHxxjExgHNOaUyZEBnwjKRup76LkFYYtsTATTNdX0B8NrfNAPkOS6rDWWfasPppD/DLoaCzk43BG6fHmEA5YdDwQIIBFnHE4H0MO/Z/j6fQ33yBYfLkPh8JrgHV/Y5AD/CdZ9L0jg+Gcyta9Dw5MjdChd3+LSx6DX2OQDm4I3/j/ALnULGUk6tx9xEiX0P8AEhs5AdY8EKzQOOOpRosz8IYUWnWgfSBYYQdeMFe3YX7P8P7NULEA1txyR1l49g/xKum1jHgjhOBxx6I/RP2XyEJFpn6o8cdbdpT/AMfcyBYlF3VuOQAu8ePhAErDEnmbQZ0DeOOSnXV8h8QPvYRxie0JoI8D/jaDIuqJcQLWJ9cRf3Nj6HyEGAG5m4lUkzx/iYhFUrEOBLByhYp/eJ8/CwfkriF6Ll8QIxv2N5cY76Z6m/yhuQbefPAlg6cTLe/JPn5Ckl5HG34jv/y6cO/hV1BZWHs+FYbvxwI/xBBWoocO1/AWpWn/ACFgqSBasrSdlkqLs+QgFm9jLj9j7/ysXCE7UEACwB8L7iU3xbeEOPYEeFAK2PoRPgT1LT/kbhGLw/dwWVX3FlmO3yBHPADoR88HqDuFG5cv8TYgNNmPVjwu7L1efCj0HwgT5YbAEANmxmyIMcAcDFHZcIFAeBO37+IBeo3oR8oDOd3VvzBHlB0wt4vs/wCRhAYh7dNwhutRfKCevLdBCwMv6PcF7gvcF7gvcF7gvcF7gvcF7gvcF7gvcF7gvcF7gvcF7gvcF7gvcF7gvcF7golmggGYRVpwIBBBsKiQF7BGFo7EL3Be4L3Be4L3Be4L3Be4IEiW2xJgAxh1Q7NwhywBwIDgop2om1gvcF7gvcF7gvcF7gvcF7gvcF7gvcF7gvcF7gvcF7gvcF7gvcF7gvcF7gvcF7gvcF7gvcF7gvcF7gvcF7gvcF7gvcENhhBxjBFupYb8TJyzv0R0duEI8CbLDxBF7gvcF7gvcF7gvcF7gvcF7gvcF7gvcF7gvcF7gvcF7gvcF7gvcF7gvcF7gvcF7gvcF7gvcF7gvcF7gvcF7gvcF7gvcF7gvcF7ggNpgTGaJohA5fdCZCAb7J8JGAZsML3Be4L3Be4L3Be4L3Be4L3BAAec9HhACScfTF9IToX2wRhLvEvcF7gvcF7gvcF7gvcF7gvcF7gvcF7gvcF7gvcF7gvcF7gvcF7gvcF7gvcP6Ql2WuF319ONgVtBB/iEcrCGKHinNGXB/wAAi7AMXl1Vmujb4K3g4Vgr8FyF2ddiIRlydnLiTfxOzwO8LvoOA2i0vi6v7HxBIRsdQH80TQIsyGCLso5qYIRhGfP+TyBBgCzBMow6I+iJI5TFJAVvqPjzUMZoBA4WIyDE3SzpwtCEAcdsph/i8N8gBGIcy3GJm++HkdPgXrxouzMrmZRAicG1828lsIAauG07OgogmAXBMnaBkN3dYggIYG/4YjLAcnJAcZ3Xi/OOQmPR8l/j6NEKDDEU6txrw6I+yOnx7Mezu7BQMGXJx0hNRPfelE7EAm9izqL/AN8X0P8AEWUQ1IYLLj2BEzwYjBtBBZARuKADqWQCF3sgPB/ceBYY6MK6bcWjsB+0QGvC3Pe7AI3DElytJYk2k/4eFgA/DGkw+7sDdeQdNf4kc27IPPJmtag+PEC4JtDE2waoENBBDLgH6xYdEQZLF4ETaOYXlO0QmADsRvAgEgA2hEdf8WQufTACfpYFxNO7buiOaJOG3l3Bx9Ig3JAUHowxDAeqiHgoRcIvvCIoYD+oC4NyXJ8LZ7KGMSGCfRayBOjA6lPrPsG5FjIBB4gBiWwOkRPUhFoReQPr/ABCAAByTcntpD0XwAHqz9fhhfYBhO2A35Nv/jNoN3IAk1cdBRA6s3VGqhuP569JV6Sr0lXpKvSVekq9JV6Sr0lXpKvSVekq9JV6Sr0lXpKvSVekq9JV6Sr0lXpKrSRMaTADaXMQLUMh2HJFloEgY+QGBBDYgUzAnOMFBxzhWbWck6Aq9JV6Sr0lXpKvSVekq9JV6SZIYc8OC8YWIDxTXwu6GuCeRLGcnA5TgGUvmv0IHEz1rxOwdDQw64ES8ABAKvSVekq9JV6Sr0lXpKvSVekq9JV6Sr0lXpKvSVekq9JV6Sr0lXpKvSVekq9JV6Sr0lXpKvSQRj2IiCBcGzFWTWUrDDQtFNITvAzONFyY2NgMDQEmRJhuH3JFaCWm7MoinE/aR54GDbgPYE7cOQYdhQKg+DB3lVhx8FjuAUIcriBuwKM2r+8hD9gQAGFbRV6Sr0lXpKvSVekq9JV6Sr0lXpKvSVekq9JV6Sr0lXpKvSVekq9JV6Sr0lXpKvSVekq9JV6Sr0lXpKvSVekq9JV6Sr0lXpKvSVekq9JVaSa3PRQRJJjfabUH6wHfciA9op+uORdEKkwW1hbEtaT4Vekq9JV6Sr0lXpKvSVekq9JHw0QCwbjYrSnaRBjmuZHdOWJGLEjIrMfShnjEiAcY2lNaJuCtElzdmq9JV6Sr0lXpKvSVekq9JV6Sr0lXpKvSVekq9JV6Sr0lXpKvSVekq9JV6Sr0lXpf+GD/AP/aAAwDAQACAAMAAAAQkkkkkkkkkkkkkkkkkkkkkkkkkkkkkkkkkkkkkkkkkkkkkkkkkkkkkkkkkkkkkkkkkkkkkkkkkkkkkkkkkkkkkkkkkkkkkkkkkkkkkkkkkkkkkkkkkkkkkkkkkkkkkkkkkkkkkkkkkkkkkkkkkkkkkkkkkkkkkkkkkkkkkkkkkkkkkkkkkkkkkkkkkkkkkkkkkkkkkkkkkkkkkkkkkkkkkkkkkkkkkkkkkkkkkkkkkkkkkkkkkkkkkkkkkkkkkkkkkkkkkkkkkkkkkkkkkkkkkkkkkkkkkkkkkkkkkkkkkkkkkkkkkkkkkkkkkkkkkkkkkkkkkkkkkkkkkkkkkkkkkkkkkkkkkkkkkkkkkkkkkkkkkkkkkkkkkkkkkkkkkkkkkkkkkkkkkkkkkkkk222222222222222x222222222222222222222y1SW2222222222222222222222Vy222222222222222kkkkkkkkkkkkkkgkkEkkkkkkkkkkkkkkkkkkkAkkgkkkkkkkkkkkkkkkkkkkkkkkkkkkkkkkkkkkkkkkkkkkkkkkkkkkkkAkkkkkkkkkkkkkkkkkkkkkgkkkkEkkkkkkkkkkkkkkkkkkkkkkkgkkkkkkkkkkkkkkkkkkkkkkkkkkkkEkkkkkkkkkkkkkkkkkkkkkgkkkkEkkkkkkkkkkkkkkkkkkkkEkkgkkkkkkkkkkkkkkSSSSSSSSSSSSSScAgkiSSSSSSSSSSSSSSSSSXgkEkCSSSSSSSSSSSSSSSSSSSSskkgySSSSSSSSSSSSS22222222222222oggA2222222222222222220kkgk222222222222222222222Mkkg22222222222222SSSSSSSSSSSSSSwkAjSSSSSSSSSSSSSSSSSS0EggkKSSSSSSSSSSSSSSSSSSSS0kkjSSSSSSSSSSSSSSSSSSSSSSSSSSSSQkACSSSSSSSSSSSSSSSSSSTEkkkSSSSSSSSSSSSSSSSSSSSSwEkGSSSSSSSSSSSSSSttttttttttttttPAkCttttttttttttttttttskgEltttttttttttttttttttttvkgGtttttttttttttt22222222222222zEEi2222222222222222223kEkl2222222222222222222223kkG22222222222222ttttttttttttttoAkFttttttttttttttttttqBggANttttttttttttttttttttokkFttttttttttttttSSSSSSSSSSSSSSzgEFySSSSSSSSSSSSSSSSSSSkggiSSSSSSSSSSSSSSSSSSSSQggFySSSSSSSSSSSSSkkkkkkkkkkkkkgAgEEEEkkkkkkkkkkkkkkkkkkAkkEkkkkkkkkkkkkkkkkkkgEEggEkkkkkkkkkkkkkk22222222222SHgkAkEAHo22222222222222222QkkgW2222222222222222WgkkAkkkDq22222222222kkkkkkkkkkhkkkkEgkkkggkkkkkkkkkkkkkkkAkkkkkkkkkkkkkkkkkkkkgEgEkkkkkEkkkkkkkkkkkkkkkkkkkkkk8kkkkkkkkgEDkkkkkkkkkkkkkkgEkkkkkkkkkkkkkkkkkkkkkkAkkkkkAEEgkkkkkkkkkkkkkkkkkkkkcEEkkgEkkkghkkkkkkkkkkkkkkgkggkgAkkkkkkkkkkkkkkkEkkkEkkkkkkgkkkkkkkkkkkkkkkkkkkkcEkkkgkkkkkAckkkkkkkkkkkkkEkgkkkEkkkkkkkkkkAkkkkkkkkEgkgkkEkkkkkkkkkkkkkkkkkkkkkkgkkkggkkkkgkkkkkkkkkkkkkgEkkAEggkkkkkkkkkkgkkkkEgkEkkkgAkgkkkkkEkkkkkkkkkkkkkkkAAkkkgEkkkkAkkkkkkkkkkkkkgkkkkkkEkkkkkkkkkkgkkkkggkgkkkkgkAkkkkkEkkkkkAAAAAAAAAAEgkkkkEkkkECAAAAAAAAAAAAACkkkEAkgAAAAAAAAAAAAAAAgkkgkkkkkkkAgAAAAAAAAAtttttttttpgkAEkgEkggkktttttttttttttqAkgEEk1tttttttttttttttEkkEkkkkkEEkttttttttttkkkkkkkkkjkkAEkAEEgAkgMkkkkkkkkkkkkgEEkEEEEkkkkkkkkkkkkkkkkgEgEgkgAggkkkkkkkkkkktttttttttukkkAAkkEAkEkxtttttttttttttogkkkHttttttttttttttttkEkkAkEkkgAkBtttttttttkkkkkkkkkkkgwEkggkggEkgkkkkkkkkkkkkkkkgkEEkkkkkkkkkkkkkkkkkEAkgkkEkggEkkkkkkkkkkkkkkkkkkkgkkEEgEkgkEsknkkkkkkkkkkkkkkAgkgkkkkkkkkkkkkkkkkgEgAkkgAEkkAgEkkkkkkkkkkkkkkkkkkkEkgAkkEkkkIkAkkkkkkkkkkkkkkkgkEkkkkkkkkkkkkkkkkgkgkkkAEkkkEkkkkkkkkkkkkkkkkkkkkkkkgEgkkkkkbkgkkkkkkkkkkkkkAkggAkkkkkkkkkkkkkkkkgkAkkkEgkkkEkgkkkkkkkkkkkkkkkkkk8gckckgAEgciEgMkkkkkkkkkkkkEkkkkEEkkkkkkkkkkkkkkkAEkkkgAkkkkkkkkkkkkkkkAAAAAAAACcAwAkEkEggoC8gIAAAAAAAAAAAAIkkkjAAAAAAAAAAAAAAAGEEoE8kkAkgQCEk4AAAAAAAAkkkkkkkkkkkskEkEkAgEkckMkkkkkkkkkkkkkEgkgkkkkkkkkkkkkkkkgkkEkkkkkgkEkgkAkkkkkkkkttttttttvkklpYEggkk1pckGttttttttttttJkkkDNttttttttttttttLkglp4EEEkkVtskmttttttttkkkkkkkkAkgkkkkkkkk0kEkkkkkkkkkkkkkkkkkkgEkkkkkkkkkkkkkkgkkkkEkkkkkkkgkAkkkkkkkkkkkkkkkkEkhkjEkkkkksknkEkkkkkkkkkkkkEgkkEkkkkkkkkkkkkkkkAkAkgkkkkkkEkgkAkkkkkkkkkkkkkkkkkkJknkkkkkkckkEkkkkkkkkkkkkkkkkgkkkkkkkkkkkkkkkkkkEkgkkkkkkEkkkgEkkkkkkkkkkkkkkkkgskkgkkkkgAknckkkkkkkkkkkkkggkgEAkkkkkkkkkkkkkkEgkkkkkkkkkEkgEkEkkkkkkkkkkkkkkgEEkklgEkkkEkkkkkkkkkkkkkkkkkAEkkEEkkkkkkkkkkkkkkEkkkkkkkEkkkkkAkkkkkkkkkkkkkkkkkkEkkfkgkkgkhkkkEkkkkkkkkkkkkgAkEEAkkkkkkkkkkkkkgkkkkgkkkkkkAkkkkEkkkkkkkkkkkkkkjgEkkckgEkkkjkkgE8kkkkkkkkkkkggkkEkkkkkkkkkkkkkkggkkkAkkkEkkgkkkEEkkkkkkkkkkkkkkjgEkkEkkkkEkmkkkk8kkkkkkkkkkkgEgkkkkkkkkkkkkkkkkgkEkkkkkgEkkAkkkEEkkkkkkkSSSSSSSsmSSSckkAAkkgqSSICSSSSSSSSSSSXkkkgSSSSSSSSSSSSSSIiSSS8EkAgkAEKSSIiSSSSSSSAAAAAAAkkAAGkkkkkkkk4AAggAAAAAAAAAAAAEkkgAAAAAAAAAAAAAAkgAAAEgkAkAkkAAAkgAAAAAAAkkkkkkkEkkkjEkkkEkkk8kkkkkkkkkkkkkkkgkkkkkkkkkkkkkkkkkkkkkkkEkkkkkkkkkkgEEkkkkkkkkkkkkgggkkkkkkg4kkkEkkgkkkkkkkkkkkkAgkkkkkkkkkkkkkkkkgkEkkgkkkgEkkkkkkkEkkkkkkkkkkkkkgEAkkgkkkDIkkkkkkgkkkkkkkkkkkkAkkkkkkkkkkkkkkkkkgEAkkkkkkEkkkkEkkkAkkkkkkkkkkkkkkgEEkkkkkn4kEkkkkkkkkkkkkkkkkkAAgkkkkkkkkkkkkkkkkkAkkkkkkkgkkkEkkkEkkkkkkkkkkkkkkgkEkgkgknEkEkgkkkgEkkkkkkkkkkEEkkkEkkkkkkkkkkkkkAkkkgkkkgkkkkAkkkEkkkkkkk2222222BW22Xkkk5UkAkC2220W2222222222SAkkkm222222222222yG222QkkkCTkkkE2221W222222/wD/AP8A/wD/AND/AP8A+JJJB+pAJJ//AP8A7f8A/wD/AP8A/wD/AP8A/wDsSSSDf/8A/wD/AP8A/wD/AP8A/wD/AN//AP8A/JJJJ+5JJJv/AP8A6/8A/wD/AP8A/wCSSSSSSSSSSSeQSRyaSCSeSSSSSSSSSSSSSSSCSSSSSSSSSSSSSSSSSSSSSSCSSSSSSSQCSSSSSSSSSSSSSSSSSSSSSSeSSSSESCSOSSSSSSSSSSSSSSSSSSSSSSSSSSSSSSSSSSSSSSCSSQSCSSQCSSSSSSSSSSSSSSSSSSSSSSeASTSASSSeSSSSSSSSSSSSSSSASSSSSSSSSSSSSSSSSSSSSSSSSQSQSSSSSSSSSSSSSSSSSSSSSSSSSSGASBSQSAQGSSSSSSSSSSSSSSSCSSSCSSSSSSSSSSSSSSSSSSSSSQSQSSSSSSSSSSSSSSSSSSSSSSSSSSCQSVyQSQTSSSSSSSSSSSSSSSSSSASCSSSSSSSSSSSSSSSSSSCSSASSSSQSSSSSSSSSSSSSSSSSSSSSSSYQSeSTiATySSSSSSSSSSSSSSSSSSQCSSSSSSSSSSSSSSSSSSQSSSSQCSSSSSSSSSSSSSSSSSSSSSSSSSfQSGSTyACySSSSSSSSSSSSSSSSSSSSSSSSSSSSSSSSSSSSSSSSSCSSCSCSSSSSSSSSSSSSSSSSSSSSSSRwBCSSSSBySSSSSSSSSSSSSSSSCSQSSSSSSSSSSSSSSSSSSSSSSCSSCSASSSSSSSSSSSSSSSSSSSSSSSQCTSSSCQCSSSSSSSSSSSSSSSSSSSSSSSSSSSSSSSSSSSSSSSSCSSSSSSASSSSSSSSSSSSSSSSSSSSSSSQCTySScSCSSSSSSSSSSSSSSSSSSCSSSSSSSSSSSSSSSSSSSSQSSSSSSSSSSSSSSSSSSSQkkkkkkkkkkknSREkk+STEkkkkkkkkkkkkkkkk4SSYkkkkkkkkkkkkkkkkkknyBEkkoQTEkkkkkkkkkkmSSSSSSSSSSSSQBySSOSQSSSSSSSSSSSSSSSSSASQSSSSSSSSSSSSSSSSSSSQCQSSSCSSSSSSSSSSSSSSSSSSSSSSSSSQSSySSeSBySSSSSSSSSSSSSSSSQCSSSSSSSSSSSSSSSSSSSSSSASSSQSSSSSSSSSSSSSSSSSSSSSSSSSASSGSSCSQSSSSSSSSSSSSSSSSSQSSQSSSSSSSSSSSSSSSSSSCSQCSSCSQSSSSSSSSSSSSSSSSSSSSSSSGSSGSSGSTySSSSSSSSSSSSSSSSQSSQSSSSSSSSSSSSSSSSSSSSQSSSCSQCSSSSSSSSSSSSSSSSSSSSSSOSSCSSSSSeSSSSSSSSSSSSSSSSSSSSSSSSSSSSSSSSSSSSSSSSSCSSCSQSSSSSSSSSSSSSSSSSSSSSSQWSQSSQASSSSSSSSSSSSSSSSSSSQSSQSSSSSSSSSSSSSSSSSQCQSCSQCCSSSSSSSSSSSSSSSSSSSSSSSQ+SQOSRwSSeSSSSSSSSSSSSSSSSQSSSSSSSSSSSSSSSSSSSSSCSSCSSCSSSSSSSSSSSSSSSSSSSSSSSSSSSQCSSOSSSSSSSSSSSSSSSSSSSQSSQSSSSSSSSSSSSSSSSSSSSSCSQSSSCSSSSSSSSSSSSSSSSSSSSSSCST+SSCSSSSSSSSSSSSSSSSSSSSSSASSSSSSSSSSSSSSSSSSCCCCSSCQSCSSSSSSSSSSSSSSSSSSSSSSASTySSYSCCSSSSSSSSSSSSSSSSQSSSSSSSSSSSSSSSSSSSSSACCSSSACSSSSSSSSSSSSSSSSSSSSSSSSCSCSSSASASSSSSSSSSSSSSSSSSQSQSSSSSSSSSSSSSSSSSSSCSASSSASQSSSSSSSSSSSSSSSSSSSSSSSASASSSSSCSSSSSSSSSSSSSSSSSSSSCSSSSSSSSSSSSSSSSSSSSASSSSSQSSSSSSSSSSSSSSSSSSSSSSSSSCSSSQSSSSSSSSSSSSSSSSSSSSSSCSSSSSSSSSSSSSSSSSSQSCSSSQSQSSSSSSSSSSSSSSSSSSSSSSSCSOSSSRyQSSSSSSSSSSSSSSSSSSCSSSSSSSSSSSSSSSSSSSSASCSSSQSSSSSSSSSSSSSSSSSSSSSSSSSSSOSSSRySSSSSSSSSSSSSSSSSSSCSSSSSSSSSSSSSSSSSSSSQSSSSSSSQSSSSSSSSSSSSSSSSSSSSSSSSSCSSSRuQSSSSSSSSSSSSSSSSSSSQSSSSSSSSSSSSSSSSSSSQSCSSSSSSSSSSSSSSSSSSSSSSSSSSSSSQSeSSSSKASSSSSSSSSSSSSSSSSSCSSSSSSSSSSSSSSSSSSSSQCCSSSSAASSSSSSSSSSSSSSSSSSSSSSSSSCSSSSWSSSSSSSSSSSSSSSSSSSCQSSSSSSSSSSSSSSSSSSSSCSSSSSQSSSSSSSSSSSSSSSSSSSSSSSSSSKSSSQKSSSSSSSSSSSSSSSSSSSAQSSSSSSSSSSSSSSSSSSSQCCSSSSACSSSSSSSSSSSQAAAAAAAAAAACyIAAACqBAAAAAAAAAAAAAAAAADSQgAAAAAAAAAAAAAAAAAACAUAAAAaQAAAAAAAAAAACSSSSSSSSSSSQSaSSSSCASSSSSSSSSSSSSSSSQASSCSSSSSSSSSSSSSSSSSSSSCSSSQCCSSSSSSSSSSSSSSSSSSSSSSSSQCSSSSSSSSSSSSSSSSSSSSSSASSSSSSSSSSSSSSSSSSSSSSCSSSSSQCSSSSSSSSSSSSSSSSSSSSSSSSACSSSSSAASSSSSSSSSSSSSSQSCSSSSSSSSSSSSSSSSSSSSSSCSCSSSSSQSSSSSSSSSSSSSSSSSSSSSSSQACSSSSSQSSSSSSSSSSSSSSAASSSQSSSSSSSSSSSSSSSSSSSCSSSSSQSQSSSSSSSSSSSS22222222222r8W2222QDS2222222222221RjcTaRG2222222222222222224AG2222uPW22222222222SSSSSSSSSSSSSSSSSSSSSSSSSSSSSSSSSSSSSSSSSSSSSSSSSSSSSSSSSSSSSSSSSSSSSSSSSSSSSSSSSSSSSSSSSSSSSSSSSSSSSSSSSSSSSSSSSSSSSSSSSSSSSSSSSSSSSSSSSSSSSSSSSSSSSSSSSSSSSSSSSSSSSSSSSSSSSSSSSSSSSSSSSSSSSSSSSSSSSSSSSSSSSSSSSSSSSSSSSSSSSSSSSSSSSSSSSSSSSSSSSSSSSSSSSSSSSSSSSSSSSSSSSSSSSSSSSSSSSSSSSSSSSSSSSSSSSSSSSSSSSSSSSSSSSSSSSSSSSSSSSSSSSSSSSSSSSSSSSSSSSSSSSSSSSSSSSSSSSSSSSSSSSSSSSSSSSSSSSSSSSSSSSSSSSSSSSSSSSSSSSSSSSSSSSSSSSSSSSSSSSSSSSSSSSSSSSSSSSSSSSSSSSSSSSSSSSSSSSSSSSSSSSSSSSSSSSSSSSSSSSSSSSSSSSSSSSSSSSSSSSSSSSSSSSSSSSSSSSSSSSSSSSSSSSSSSSSSSSSSSSSSSSSSSSSSSSSSSSSSSSSSSSSSSSSSSSSSSSSSSSSSSSSSSSSSSSSSSSSSSSSSSSSSSSSSSSSSSSSSSSSSSSSSSSSSSSSSSSSSSSSSSSSSSSSSSSSSSSSSSSSSSSSSSSSSSSSSSSSSSSSSSSSSSSSSSSSSSSSSSSSSSSSSSSSSSSSSSSSSSSSSSSSSSSSSSSSSSSSSSSSSSSSSSSSSSSSSSSSSSSSSSSSSSSSSSSSSSSSSSSSSSSSSSSSSSSSSSSSSSSSSSSSSSSSSSSSSSSSSSSSSSSSSSSSSSSSSSSSSSSSSSSSSSSSSSSSSSSSSSSSSSSSSSSSSSSSSSSSSSSSSSSSSSSSSSSSSSSSSSSSSSSSSSSSSSSSSSSSSSSSSSSSSSSSSSSSSSSSSSSSSSSSSSSSSSSSSSSSSSSSSSSSSSSSSSSSSSSSSSSSSSSSSSSSSSSSSSSSSSSSSSSSSSSSSSSSSSSSSSSSSSSSSSSSSSSSSSSSSSSSSSSSSSSSSSSSSSSSSSSSSSSSSSSSSSSSSSSSSSSSSSSSSSSSSSSSSSSSSSSSSSSSSSSSSSSSSSSSST/xAAuEQABAgYCAQQDAQACAwEBAAAAARFRYZGh4fBx0YEgITAxQEFwEGCxgJDB8bD/2gAIAQMBAT8Q/wDZA+K3Q+K3Q+K3Q+K3Q+K3Q+K3Q+K3Q+K3Q+K3Q+K3Q+K3Q+K3Q+K3Q+K3Q+K3Q+K3Q+K3Q+K3Q+K3Q+K3Q+K3Q+K3Q+K3Q+K3Q+K3Q+K3Q+K3Q+K3Q+K3Q+K3Q+K3Qi0/a3Qql/Y+K3Q+K3Q+K3Q+K3Q+K3Q+K3Q+K3Q+K3Q+K3Q+K3Q+K3Q+K3Q+K3Q+K3Q+K3Q+K3Q+K3Q+K3Q+K3Q+K3Q+K3Q+K3Q+K3Q+K3Q+K3Q+K3Q+K3Q+K3Q+K3Q+K3Q+K3Q+K3Q+K3Q+K3Q+K3Q+K3Q+K3Q+K3Q+K3Q+K3Q+K3Q+K3Q+K3Q+K3Q+K3Qql/f/AF0Pit0Pit0Pit0Pit0Pit0Pit0Pit0Pit0Pit0Pit0Pit0Pit0Pit0Pit0Pit0Pit0Pit0Pit0Pit0Pit0Pit0Pit0Pit0Pit0Pit0Pit0Pit0Pit0Pit0Pit0Pit0Pit0Pit0Pit0Pit0Pit0Pit0Pit0Pit0Pit0Pit0Pit0Pit0Pit0Pit0Pit0Pit0Pit0IuK3Qql/Y+K3Q+K3Q+K3Q+K3Q+K3Q+K3Q+K3Q+K3Q+K3Q+K3Q+K3Q+K3Q+K3Q+K3Q+K3Q+K3Q+K3Q+K3Q+K3Q+K3Q+K3Q+K3Q+K3Q+K3Q+K3Q+K3Q+K3Q+K3Q+K3Q+K3Q+K3X/nC8N8Dw3wPDfA8N8Dw3wPDfA8N8Dw3wPDfA8N8Dw3wPDfA8N8Dw3wPDfA8N8Dw3wPDfA8N8Dw3wPDfA8N8Dw3wPDfA8N8Dw3wPDfA8N8CO3v8Dw3wPDfA8N8Dw3wPDfA8N8Dw3wPDfA8N8Dw3wPDfA8N8Dw3wPDfA8N8Dw3wPDfA8N8Dw3wPDfA8N8Dw3wPDfA8N8Dw3wPDfA8N8Dw3wPDfA8N8Dw3wPDfA8N8Dw3wPDfA8N8Dw3wI7e/wq/RB4b4HhvgeG+B4b4HhvgeG+B4b4HhvgeG+B4b4HhvgeG+B4b4HhvgeG+B4b4HhvgeG+B4b4HhvgeG+B4b4HhvgeG+B4b4HhvgeG+B4b4HhvgeG+B4b4HhvgeG+B4b4HhvgeG+B4b4HhvgeG+B4b4HhvgR/38Dw3wPDfA8N8Dw3wPDfA8N8Dw3wPDfA8N8Dw3wPDfA8N8Dw3wPDfA8N8Dw3wPDfA8N8Dw3wPDfA8N8Dw3wPDfA8N8Dw3wPDfA8N8Dw3wNElMjRJTI0SUyNElMjRJTI0SUyNElMjRJTI0SUyNElMjRJTI0SUyNElMjRJTI0SUyNElMjRJTI0SUyNElMjRJTI0SUyNElMjRJTI0SUyNElMjRJTI0SUyNElMjm9/gaJKZGiSmRokpkaJKZGiSmRokpkaJKZGiSmRokpkaJKZGiSmRokpkaJKZGiSmRokpkaJKZGiSmRokpkaJKZGiSmRokpkaJKZGiSmRokpkaJKZGiSmRokpkaJKZGiSmRokpkaJKZGiSmRokpkaJKZGiSmRokpkaJKZEI+3woV9hokpkaJKZGiSmRokpkaJKZGiSmRokpkaJKZGiSmRokpkaJKZGiSmRokpkaJKZGiSmRokpkaJKZGiSmRokpkaJKZGiSmRokpkaJKZGiSmRokpkaJKZGiSmRokpkaJKZGiSmRokpkaJKZGiSmRokpkaJKZGiSmRokpkaJKZGiSmRokpkaJKZHN7/AANElMjRJTI0SUyNElMjRJTI0SUyNElMjRJTI0SUyNElMjRJTI0SUyNElMjRJTI0SUyNElMjRJTI0SUyNElMjRJTI0SUyNElMjRJTI0SUyNElMjRJTI0SUyNElMnBaHBaHBaHBaHBaHBaHBaHBaHBaHBaHBaHBaHBaHBaHBaHBaHBaHBaHBaHBaHBaHBaHBaHBaHBaHBaHBaHBaCO/XrVWOC0OC0OC0OC0OC0OC0OC0OC0OC0OC0OC0OC0OC0OC0OC0OC0OC0OC0OC0OC0OC0OC0OC0OC0OC0OC0OC0OC0OC0OC0OC0OC0OC0OC0OC0OC0HP18StVmU4LQ4LQ4LQ4LQ4LQ4LQ4LQ4LQ4LQ4LQ4LQ4LQ4LQ4LQ4LQ4LQ4LQ4LQ4LQ4LQ4LQ4LQ4LQ4LQ4LQ4LQ4LQ4LQ4LQ4LQ4LQ4LQ4LQ4LQ4LQ4LQ4LQ4LQ4LQ4LQ4LQR/69aqxwWhwWhwWhwWhwWhwWhwWhwWhwWhwWhwWhwWhwWhwWhwWhwWhwWhwWhwWhwWhwWhwWhwWhwWhwWhwWhwWhwWg8CVwPAlcDwJXA8CVwPAlcDwJXA8CVwPAlcDwJXA8CVwPAlcDwJXA8CVwPAlcDwJXA8CVwPAlcDwJXA8CVwPAlcDwJXA8CVwPAlcDwJXA8CVwPAlcDwJXA8CVwIsKVx61foHgSuB4ErgeBK4HgSuB4ErgeBK4HgSuB4ErgeBK4HgSuB4ErgeBK4HgSuB4ErgeBK4HgSuB4ErgeBK4HgSuB4ErgeBK4HgSuB4ErgeBK4HgSuB4ErgeBK4HgSuB4ErgeBK4HgSuB4ErgeBK4HgSuB4ErgeBK4HgSuBHb3+F4ErgeBK4HgSuB4ErgeBK4HgSuB4ErgeBK4HgSuB4ErgeBK4HgSuB4ErgeBK4HgSuB4ErgeBK4HgSuB4ErgeBK4HgSuB4ErgeBK4HgSuB4ErgeBK4HgSuB4ErgeBK4HgSuB4ErgeBK4HgSuB4ErgeBK4HgSuB4ErgeBK4HgSuB4ErgeBK4HgSuBFhSuPWr9A8CVwPAlcDwJXA8CVwPAlcDwJXA8CVwPAlcDwJXA8CVwPAlcDwJXA8CVwPAlcDwJXA8CVwPAlcDwJXA8CVwPAlcDwJXA8CVwPAlcDwJXA8CVwPAlcDwJXA8CVwaFwaFwaFwaFwaFwaFwaFwaFwaFwaFwaFwaFwaFwaFwaFwaFwaFwaFwaFwaFwaFwaFwaFwaFwaFwaFwaFwaFwaFwJ9e/qV32S5oXBoXBoXBoXBoXBoXBoXBoXBoXBoXBoXBoXBoXBoXBoXBoXBoXBoXBoXBoXBoXBoXBoXBoXBoXBoXBoXBoXBoXBoXBoXBoXBoXBoXBoXBoXBoXHwqVE9jQuDQuDQuDQuDQuDQuDQuDQuDQuDQuDQuDQuDQuDQuDQuDQuDQuDQuDQuDQuDQuDQuDQuDQuDQuDQuDQuDQuDQuDQuDQuDQuDQuDQuDQuDQuDQuDQuDQuDQuDQuDQuDQuBPr39Su+yXNC4NC4NC4NC4NC4NC4NC4NC4NC4NC4NC4NC4NC4NC4NC4NC4NC4NC4NC4NC4NC4NC4NC4NC4NC4NC4NC4NC4JQlCUJQlCUJQlCUJQlCUJQlCUJQlCUJQlCUJQlCUJQlCUJQlBEREZPVLQlCUJQlCUJQlCUJQlCUJQlCUJQlCUJQlCUJQlCUJQlCUJQlCUJQlCUJQlCUJQlBEREZPgQQyoShKEoShKEoShKEoShKEoShKEoShKEoShKEoShKEoShKEoShKEoShKEoShKEoShKEoShKEoSgiEMnqloShKEoShKEoShKEoShKEoShKEoShKEoShKEoShKEoShKEoSh4HgeB4HgeB4HgeB4HgeB4HgeB4HgeB4HgeB4HgeB4HgeB4Hgex6ngeB4HgeB4HgeB4HgeB4HgeB4HgeB4HgeB4HgeB4HgeB4HgeB4HgeB4HgeB4HgeAnu92/z39fgeB4HgeB4HgeB4HgeB4HgeB4HgeB4HgeB4HgeB4HgeB4HgeB4HgeB4HgeB4HgeB4HgeB4Hh6x4HgeB4HgeB4HgeB4HgeB4HgeB4HgeB4HgeB4HgeB4HgeB4HgbMpsymzKbMpsymzKbMpsymzKbMpsymzKbMpsymzKbMpsymzKbMpsymzKbMpsymzKbMpsymzKbMpsyiK/qVBWX/pTZlNmU2ZTZlNmU2ZTZlNmU2ZTZlNmU2ZTZlNmU2ZTZlNmU2ZTZlNmU2ZTZlNmU2ZTZlNmU2ZTZlNmU2ZTZlNmU2ZTZlNmU2ZTZlNmU2ZTZlEPp6kPsbMpsymzKbMpsymzKbMpsymzKbMpsymzKbMpsymzKbMpsymzKbMpsymzKbMpsymzKbMpsymzKbMpsymzKbMpsymzKbMpsymzKbMpsymzKbMpsymzKJ7+pUFZf8ApTZlNmU2ZTZlNmU2ZTZlNmU2ZTZlNmU2ZTZlNmU2ZTZlNmU2ZTZlNmU2ZTZlNmU2ZTZlNmU2ZTZl/kL4rdD4rdD4rdD4rdD4rdD4rdD4rdD4rdD4rdD4rdD4rdD4rdD4rdD4rdD4rdD4rdD4rdD4rdD4rdD4rdD4rdD4rdD4rdD4rdDTET5mmKuK3Q+K3Q+K3Q+K3Q+K3Q+K3Q+K3Q+K3Q+K3Q+K3Q+K3Q+K3Q+K3Q+K3Q+K3Q+K3Q+K3Q+K3Q+K3Q+K3Q+K3Q+K3Q+K3Q+K3Q+K3Q+K3Q+K3Q+K3Q+K3Q+K3Q+K3Q+K3Q+K3Q+K3Q+K3Q+K3Qon2r/A+K3Q+K3Q+K3Q+K3Q+K3Q+K3Q+K3Q+K3Q+K3Q+K3Q+K3Q+K3Q+K3Q+K3Q+K3Q+K3Q+K3Q+K3Q+K3Q+K3Q+K3Q+K3Q+K3Q+K3Q+K3Q+K3Q+K3Q+K3Q+K3Q+K3Q+K3Q+K3Q+K3Q+K3Q+K3Q+K3QiKn7+dUHxW6HxW6HxW6HxW6HxW6HxW6HxW6HxW6HxW6HxW6HxW6HxW6HxW6HxW6HxW6HxW6HxW6HxW6HxW6HxW6HxW6HxW6HxW6HxW6/mq/QiN+N9L/CW93/AB1T+Ep+Qiun/lpOW7Jy3ZOW7Jy3ZOW7Jy3ZOW7Jy3ZOW7Jy3ZOW7Jy3ZOW7Jy3ZOW7Jy3ZOW7Jy3ZOW7Jy3YpV+0b8dSct2Tluyct2Tluyct2Tluyct2Tluyct2Tluyct2Tluyct2Tluyct2Tluyct2Tluyct2Tluyct2Tluyct2Tluyct2Tluyct2KL9o3yqVPpHJy3ZOW7Jy3ZOW7Jy3ZOW7Jy3ZOW7Jy3ZOW7Jy3ZOW7Jy3ZOW7Jy3ZOW7Jy3ZOW7Jy3ZOW7Jy3ZOW7Jy3ZOW7Jy3ZOW7Jy3ZOW7Jy3ZOW7Jy3YpV+0b8dSct2Tluyct2Tluyct2Tluyct2Tluyct2Tluyct2Tluyct2Tluyct2Tluyct2Tluyct2TluzitDitDitDitDitDitDitDitDitDitDitDitDitDitDitDitDitDitDitDitPyXTMpxWhxWhxWhxWhxWhxWhxWhxWhxWhxWhxWhxWhxWhxWhxWhxWhxWhxWhxWhxWhxWhxWhxWhxWhxWhxWg4rMvyqxWZTitDitDitDitDitDitDitDitDitDitDitDitDitDitDitDitDitDitDitDitDitDitDitDitDitDitDitDitDitDitDitPyXTMpxWhxWhxWhxWhxWhxWhxWhxWhxWhxWhxWhxWhxWhxWhxWhxWhxWhxWhxWn4ir+Sq+6f8ANOQ5DkOQ5DkOQ5DkOQ5DkOQ5DkOQ5DkOQZV3/JYfZyHIchyHIchyHIchyHIchyHIchyHIchyHIchyHIchyHIcgyruvxxByHIchyHIchyHIchyHIchyHIchyHIchyHIchyHIchyHIchyHIchyDKu6/kodGc5DkOQ5DkOQ5DkOQ5DkOQ5DkOQ5DkOQ5PyXXh86lb2Pv+II9vf8D2e3pT+FKvu34Kqy/wAPR7v+CqOjCL7e/wDCUV/Qvv6E+vkRX+BFf/mUy2SZbJMtkmWyTLZJlsky2SZbJMtkmWyTLZJlsky2SZbJMtkmWyTLZEI/dsiI3t6FRa+y2yTLZJlsky2RConv8kFbZJlsky2SZbIn16FT6F+yZbJMtkmWyTLZJlsky2SZbJMtkmWyTLZJlsky2SZbJMtkmWyTLZJlsky2SZbJMtkmWyTLZJlsky2SZbIiP91tn4VdvYmWyTLZJlsky2SZbJMtkmWyTLZJlsky2SZbJMtkmWyTLZJlsky2SZbJMtkmWyTLZJlsky2SZbJMtkmWyTLZJlsky2SZbJMtkmWyTLZ9KFr7LYmWyTLZJlsiO3v8io/2W2SZbJMtkmWz6UK+lJlsky2SZbJMtkmWyTLZJlsky2SZbJMtkmWyTLZJlsky2SZbJMtkmWz+E3u/p+n4iehDp/zLchuQ3IbkNyG5DchuQ3IbkNyG5DchuQ3IbkNyCfXpYuNyG5Dcgn17/Iqi+ym5DchuQeiMvpVz2U3IbkNyG5DchuQ3IbkNyG5DchuQ3IbkNyG5DchuQ3IbkNyG5DchuQ3IIVE91+BUVU9jchuQ3IbkNyG5DchuQ3IbkNyG5DchuQ3IbkNyG5DchuQ3IbkNyG5DchuQ3IbkNyG5Dcgn16dSG5DchuQT69/kVRfZTchuQ3IIVE919KqL7KbkNyG5DchuQ3IbkNyG5DchuQ3IbkNyG5Dcn430/kBF8HoWHyr9+hHs6CKio6fwlb6fYhEMnob3f5VR/TSX+Eoz3/HVH9lERvb+G/T5k/f8RWylE9k+ZF96fxH3snzr9F+Ff+f/AL/IfV/hX/mE9CehPQnoT0J6E9CehPQnoT0J6E9CehPT/ftFJ6E9CehPQnoT0EVF90/AZ9lUnoT0J6E9Ceg/+0/37RSehPQnoT0J6E9CehPQnoT0J6E9CehPQnoT0J6E9CehPQnoT0J6CKKyL8CqxLE9CehPQnoT0J6E9CehPQnoT0J6E9CehPQnoT0J6E9CehPQnoT0J6E9CehPQnp/v2ik9CehPQnoT0J6CKio6fgKj7KpPQnoT0J6E9BFfZF/37RSehPQnoT0J6E9CehPQnoT0J6E9CehPT8lP4+v4P7/AIwp0/j6/QiN7fx9f5B+xf4BOJxOJxOJxOJxOJxOJxOJwin7FQn2pOJxOJxOJxOEV/WqsjiNfZOFIv18E4nE4nE4nE4nE4nE4nE4nE4nE4nE4nE4nE4nE4nE4nE4nE4nCKi/XwzicTicTicTicTicTicTicTicTicTicTicTicTicTicTicTicTicTicTj7+CcThFRfr4FQ/ZOJxOJxOJxOFQn2pOJxOJxOJxOJxOJxOJxOJxKJRKJRKJRKJRKJRKJRKJQiX6FW+0JRKJRKJRKJR7ET1+72JRKEQi+yfA99oSiUSiUSiUSiUSiUSiUSiUSiUSiUSiUSiUSiUSiUSiUSiUShERPr4ZRKJRKJRKJRKJRKJRKJRKJRKJRKJRKJRKJRKJRKJRKJRKJRKJRKJRKJQiN8EglCIT6+BVvdUJRKJRKJRKJRKJRKJRKJRKJRKJRKJRKJRK/IT6/CT+HJ9fEUyfAn8OT1p9v8Afu+BP4cnr/ZfR9PX9P4cnqKZHERkb0J9qnq+7+H+xUX1e5UT0+xUX1e5UT+Hqjowt0L6fcq+kh0YU6P6feqr/EERvQohjepDP6UMjf8Ahov2nrX9f890ZTRlNGU0ZTRlNGU0ZTRlNGU0ZTRlNGU0ZTRlNGU0ZTRlNGU0ZTRlNGU0ZTRlNGUQ9yehNBzRlNGU0ZTRlNGU0ZRVGb/76UYwpoymjKaMpoymjKaMpoymjKaMpoymjKaMpoymjKaMpoymjKaMpoymjKaMpoymjKaMpoymjKaMpoymjKaMpoymjKaMpoyiLf8A4vqVL2/+KaMpoymjKaMpoymjKaMpoymjKaMpoymjKaMpoymjKaMpoymjKaMpoymjKaMpoymjKaMpoymjKaMpoymjKaMpoymjKaMpoymjKaMpoyiKio6ehH7GjKaMpoymjKaMpoyiLK3/AMX0ql/+KaMpoymjKaMpoymjKaMpoymjKaMpoymjKaMpoymjKaMpoymjKaMpoymjKaMpoy/k/T0L9PX+vpQyN/D/AKt6Vj61+29P1y/h6/aen6KIro/qT7X0/ov8PT7X1exG9SelDoIr/wAOT8JPr+HfRPwk+1/hq+6CfXq/fpX1p9r/ABRP2vpVHEV0/jKqyOIjI3qT7VP4yv8A6f8A9/Cv8X/fwr9fxdPtfhX6FOifxb7rz8X1fxb9+fi+n+Lf9nxfX/ztsFoo2C0UbBaKNgtFGwWijYLRRsFoo2C0UbBaKNgtFGwWijYLRRsFoo2C0UbBaKNgtFGwWijYLRRsFoo2C0UbBaKNgtFGwWijYLRRTo/+o6qMtBsFoo2C0UbBaKNgtFGwWijYLRRsFoo2C0UVLfS0USyE/wBbBaKNgtFGwWijYLRRsFoo2C0UbBaKNgtFGwWijYLRRsFoo2C0UbBaKNgtFGwWijYLRRsFoo2C0UbBaKNgtFGwWijYLRRsFoo2C0UbBaKNgtFGwWijYLRRsFoo2C0UbBaKNgtFGwWijYLRRsFoo2C0X0hg42C0UbBaKNgtFGwWijYLRRsFoo2C0UbBaKNgtFGwWijYLRRsFoo2C0UbBaKNgtFGwWijYLRRsFoo2C0UbBaKNgtFGwWijYLRRsFoo2C0UbBaKNgtFGwWijYLRRsFoo2C0UbBaKNgtFGwWijYLRRsFoo2C0UbBaKNgtFGD/6qEVmWg2C0UbBaKNgtFGwWijYLRRsFoo2C0UbBaKNgtFE9/wDWwWijYLRRsFoo2C0UbBaKNgtFGwWijYLRRsFoo2C0UbBaKNgtFGwWijYLRRsFoo2C0UbBaKNgtFGwWijYLRRsFoo2C0UbBaKNgtF/9QMi+CRfBIvgkXwSL4JF8Ei+CRfBIvgkXwSL4JF8Ei+CRfBIvgkXwSL4JF8Ei+CRfBIvgkXwSL4NC4HhvgeD/FO9kuSL4JF8Ei+CRfBIvgkXwSL4JF8Ei+P8VVf2QeA0LgkXwSL4JF8Ei+CRfBIvgkXwSL4JF8Ei+CRfBIvgkXwSL4JF8Ei+CRfBIvgkXwSL4JF8Ei+CRfBIvgkXwSL4NC4NC4HgEdvcX9KXwaFwIqt7/wCKX9IaFwJBvj/Vg3wSL4JF8Ei+CRfBIvgkXwSL4JF8Ei+CRfBIvgkXwSL4JF8Ei+CRfBIvgkXwSL4JF8Ei+CRfBIvgkXwSL4JF8Ei+CRfBIvgkXwSL4JF8Ei+CRfBIvgkXwSL4JF8GhcCL+yf6qv8AZL4JF8Ei+CRfBIvgkXwSL4JF8Ei+CRfAk/8AFf8ARJvgkXwSL4JF8Ei+CRfBIvgkXwSL4JF8Ei+CRfBIvgkXwSL4JF8Ei+CRfBIvgkXwSL4JF8Ei+CRfH/8ADB//xAAtEQABAwQDAAEEAwEAAgMBAAAAAWGREaHR4VFx8IEgITAxQEFwEGDBgJCxsP/aAAgBAgEBPxD/AOyBhfIwvkYXyML5GF8jC+RhfIwvkYXyML5GF8jC+RhfIwvkYXyML5GF8jC+RhfIwvkYXyML5GF8jC+RhfIwvkYXyML5GF8jC+RhfIqV/pfIiE/aJfIwvkYXyML5GF8jC+RhfIwvkYXyML5GF8jC+RhfIwvkYXyML5GF8jC+RhfIwvkYXyML5GF8jC+RhfIwvkYXyML5GF8jC+RhfIwvkYXyML5GF8jC+RhfIwvkYXyML5GF8jC+RhfIwvkYXyKt/S+REJ/S+RhfIwvkYXyML5GF8jC+RhfIwvkYXyML5GF8jC+RhfIwvkYXyML5GF8jC+RhfIwvkYXyML5GF8jC+RhfIwvkYXyML5GF8jC+RhfIwvkYXyML5GF8jC+RhfIwvkYXyML5GF8jC+RhfIwvkYXyML5GF8jC+RUr/S+REJ+0S+RhfIwvkYXyML5GF8jC+RhfIwvkYXyML5GF8jC+RhfIwvkYXyML5GF8jC+RhfIwvkYXyML5GF8jC+RhfIwvkYXyML5GF8jC+RhfP/zhctsctsctsctsctsctsctsctsctsctsctsctsctsctsctsctsctsctsctsctsctsctsctsctsctsctsctsctsWlft+By2xy2xy2xy2xy2xy2xy2xy2xy2xy2xy2xy2xy2xy2xy2xy2xy2xy2xy2xy2xy2xy2xy2xy2xy2xy2xy2xy2xy2xy2xy2xy2xy2xy2xy2xy2xy2yiv2/ChX7DltjltjltjltjltjltjltjltjltjltjltjltjltjltjltjltjltjltjltjltjltjltjltjltjltjltjltjltjltjltjltjltjltjltjltjltjltjltjltjltjltiEr9l/A5bY5bY5bY5bY5bY5bY5bY5bY5bY5bY5bY5bY5bY5bY5bY5bY5bY5bY5bY5bY5bY5bY5bY5bY5bY5bY5bY5bY6nQ6nQ6nQ6nQ6nQ6nQ6nQ6nQ6nQ6nQ6nQ6nQ6nQ6nQ6nQ6nQ6nQ6nQ6nQ6nQ6nQ6nQ6nQ6nQ6nQ6nQ6nQ6nQpS/Z+B1Oh1Oh1Oh1Oh1Oh1Oh1Oh1Oh1Oh1Oh1Oh1Oh1Oh1Oh1Oh1Oh1Oh1Oh1Oh1Oh1Oh1Oh1Oh1Oh1Oh1Oh1Oh1Oh1Oh1Oh1Oh1Oh1Oh1Oh1Oh1Oh1OhSv0p+FSP0qOp0Op0Op0Op0Op0Op0Op0Op0Op0Op0Op0Op0Op0Op0Op0Op0Op0Op0Op0Op0Op0Op0Op0Op0Op0Op0Op0Op0Op0Op0Op0Op0Op0Op0Op0Op0Op0Op0Op0Op0Op0KRV+z8DqdDqdDqdDqdDqdDqdDqdDqdDqdDqdDqdDqdDqdDqdDqdDqdDqdDqdDqdDqdDqdDqdDqdDqdDqdDqdDqdDqdFfKSV8pJXyklfKSV8pJXyklfKSV8pJXyklfKSV8pJXyklfKSV8pJXyklfKSV8pJXyklfKSV8pJXyklfKSV8pJXyklfKSV8pJXyklfKSUf7T60SpXyklfKSV8pJXyklfKSV8pJXyklfKSV8pJXyklfKSV8pJXyklfKSV8pJXyklfKSV8pJXyklfKSV8pJXyklfKSV8pJXyklfKSV8pJXyklfKSV8pJXyklfKSV8pJXyklfKSV8pJyk/ElSVqklfKSV8pJXyklfKSV8pJXyklfKSV8pJXyklfKSV8pJXyklfKSV8pJXyklfKSV8pJXyklfKSV8pJXyklfKSV8pJXyklfKSV8pJXyklfKSV8pJXyklfKSV8pJXyklfKSV8pJXyklfKSV8pJXyklfKSV8pIqn9pP1olSvlJK+Ukr5SSvlJK+Ukr5SSvlJK+Ukr5SSvlJK+Ukr5SSvlJK+Ukr5SSvlJK+Ukr5SSvlJK+Ukr5SSvlJK+Ukr5SSvlJK+Ukr5SSvlJKc1jZTmsbKc1jZTmsbKc1jZTmsbKc1jZTmsbKc1jZTmsbKc1jZTmsbKc1jZTmsbKc1jZTmsbKc1jZTmsbKc1jZTmsbKc1jZTmsbKc1jZTmsbKc1jZTmsbKc1jZTmsbFT+irG/rR/d6SnNY2U5rGynNY2U5rGynNY2U5rGynNY2U5rGynNY2U5rGynNY2U5rGynNY2U5rGynNY2U5rGynNY2U5rGynNY2U5rGynNY2U5rGynNY2U5rGynNY2U5rGynNY2U5rGynNY2U5rGynNY2U5rGynNY2U5rGynNY2U5rGynNY2LSv2/AhTmsbKc1jZTmsbKc1jZTmsbKc1jZTmsbKc1jZTmsbKc1jZTmsbKc1jZTmsbKc1jZTmsbKc1jZTmsbKc1jZTmsbKc1jZTmsbKc1jZTmsbKc1jZTmsbKc1jZTmsbKc1jZTmsbKc1jZTmsbKc1jZTmsbKc1jZTmsbKc1jZTmsbKc1jZTmsbKc1jZTmsbKc1jYqUfZVjf1o/u9JTmsbKc1jZTmsbKc1jZTmsbKc1jZTmsbKc1jZTmsbKc1jZTmsbKc1jZTmsbKc1jZTmsbKc1jZTmsbKc1jZTmsbKc1jZTmsbKc1jZTmsbKc1jZTmsbKc1jZTmsbKc1jZ6Js9E2eibPRNnomz0TZ6Js9E2eibPRNnomz0TZ6Js9E2eibPRNnomz0TZ6Js9E2eibPRNnomz0TZ6Js9E2eibPRNnomxf39vqUp97Nnomz0TZ6Js9E2eibPRNnomz0TZ6Js9E2eibPRNnomz0TZ6Js9E2eibPRNnomz0TZ6Js9E2eibPRNnomz0TZ6Js9E2eibPRNnomz0TZ6Js9E2eibPRNnomxfwIRV+6nomz0TZ6Js9E2eibPRNnomz0TZ6Js9E2eibPRNnomz0TZ6Js9E2eibPRNnomz0TZ6Js9E2eibPRNnomz0TZ6Js9E2eibPRNnomz0TZ6Js9E2eibPRNnomz0TZ6Js9E2eibPRNnomxaV+31KU+622eibPRNnomz0TZ6Js9E2eibPRNnomz0TZ6Js9E2eibPRNnomz0TZ6Js9E2eibPRNnomz0TZ6Js9E2eibPRNnomz0TY+Hw+Hw+Hw+Hw+Hw+Hw+Hw+Hw+Hw+Hw+Hw+Hw+Hw+Hw+FFVVfqRD+w+Hw+Hw+Hw+Hw+Hw+Hw+Hw+Hw+Hw+Hw+Hw+Hw+Hw+Hw+Hw+Hw+Hw+Hw+FVVWq/gUKqoPh8Ph8Ph8Ph8Ph8Ph8Ph8Ph8Ph8Ph8Ph8Ph8Ph8Ph8Ph8Ph8Ph8Ph8Ph8Ph8Ph8PhRVVV+pwPh8Ph8Ph8Ph8Ph8Ph8Ph8Ph8Ph8Ph8Ph8Ph8Ph8Ph8fKx8rHysfKx8rHysfKx8rHysfKx8rHysfKx8rHysfKx8rHysfKx8rHysfKx8rHysfKx8rHysfKx8rH3PqfKx8rHysfKx8rHysfKx8rHysfKx8rHysfKx8rHysfKx8rHysfKx8rHysfKx8rHysfKx8rHysfKx8rHysfKx8rHysfKx8rHysfKx8rCpT9q2/4n1vlY+Vj5WPlY+Vj5WPlY+Vj5WPlY+Vj5WPlY+Vj5WPlY+Vj5WPlY+Vj5WPlY+Vj5WPlY+Vj5WPlY+Vj5WPlY+Vj5WPlY+Vj5WPlY+Vj5WPlY+Vj5WPlY+99T52PlY+Vj5WPlY+Vj5WPlY+Vj5WPlY+Vj5WPlY+Vj5WPlY+Vj5WPlY+Vj5WPlY+Vj5WPlY+Vj5WPlY6ZTJ0ymTplMnTKZOmUydMpk6ZTJ0ymTplMnTKZOmUydMpk6ZTJ0ymTplMnTKZOmUydMpk6ZTJ0ymTplMnTKZOmUydMpk6ZTJ0ymTplMnTKZOmUyKlFp9SLJVKSh0ymTplMnTKZOmUydMpk6ZTJ0ymTplMnTKZOmUydMpk6ZTJ0ymTplMnTKZOmUydMpk6ZTJ0ymTplMnTKZOmUydMpk6ZTJ0ymTplMnTKZOmUydMpk6ZTJ0ymTplMnTKZOmUydMpk6ZTJ0ymTplMnTKZOmUyK/t9Sv6HTKZOmUydMpk6ZTJ0ymTplMnTKZOmUydMpk6ZTJ0ymTplMnTKZOmUydMpk6ZTJ0ymTplMnTKZOmUydMpk6ZTJ0ymTplMnTKZOmUydMpk6ZTJ0ymTplMnTKZOmUydMpk6ZTJ0ymTplMnTKZOmUydMpk6ZTJ0ymTolMipT6kSqf8A6h0ymTplMnTKZOmUydMpk6ZTJ0ymTplMnTKZOmUydMpk6ZTJ0ymTplMnTKZOmUydMpk6ZTJ0ymTplMnTKZOmUydMpk6ZTJ0ymTplMnTKZOmUz/kLC+RhfIwvkYXyML5GF8jC+RhfIwvkYXyML5GF8jC+RhfIwvkYXyML5GF8jC+RhfIwvkYXyML5GF8lU4FX81WES/pfIwvkYXyML5GF8jC+RhfIwvkYXyML5GF8jC+RhfIwvkYXyML5GF8jC+RhfIwvkYXyML5GF8jC+RhfIwvkYXyML5GF8jC+RhfIwvkYXyML5GF8jC+RBf0iJP1oML5GF8jC+RhfIwvkYXyML5GF8jC+RhfIwvkYXyML5GF8jC+RhfIwvkYXyML5GF8jC+RhfIwvkYXyML5GF8jC+RhfIwvkYXyML5GF8jC+RhfIwvkYXyKhf0lJz+dFp/QiH9L5GF8jC+RhfIwvkYXyML5GF8jC+RhfIwvkYXyML5GF8jC+RhfIwvkYXyML5GF8jC+RhfIwvkYXz/mqJVfuKtf437T/AAmv2/jq/wAJX+OgqUWn/wAtGd8DO+BnfAzvgZ3wM74Gd8DO+BnfAzvgZ3wM74Gd8DO+BnfAzvgZ3wM74Gd8DO+BBP0tf46fsZ3wM74Gd8DO+BnfAzvgZ3wM74Gd8DO+BnfAzvgZ3wM74Gd8DO+BnfAzvgZ3wM74Gd8DO+BnfAzvgZ3wM74Gd8CCfpaz+VBf2tBnfAzvgZ3wM74Gd8DO+BnfAzvgZ3wM74Gd8DO+BnfAzvgZ3wM74Gd8DO+BnfAzvgZ3wM74Gd8DO+BnfAzvgZ3wM74Gd8DO+BnfAgn6Wv8AHQZ3wM74Gd8DO+BnfAzvgZ3wM74Gd8DO+BnfAzvgZ3wM74Gd8DO+BnfAzvgZ3wM74OiTok6JOiTok6JOiTok6JOiTok6JOiTok6JOiTok6JOiTon+TQVqiHRJ0SdEnRJ0SdEnRJ0SdEnRJ0SdEnRJ0SdEnRJ0SdEnRJ0SdEnRJ0SdEnRJ0SUFapP5UrStEnRJ0SdEnRJ0SdEnRJ0SdEnRJ0SdEnRJ0SdEnRJ0SdEnRJ0SdEnRJ0SdEnRJ0SdEnRJ0SdEnRP8mkrVEOiTok6JOiTok6JOiTok6JOiTok6JOiTok6JOiTok6JOif4iJ+/5KJVF/wDNOg6DoOg6DoOg6DoOg6DoOg6DoOg6DoOgoKURP5NZWlToOg6DoOg6DoOg6DoOg6DoOg6DoOg6DoOg6DoOg6DoOg6CgpRE/HxkU6DoOg6DoOg6DoOg6DoOg6DoOg6DoOg6DoOg6DoOg6DoOg6DoOg6CgpRE/k1FaVOg6DoOg6DoOg6DoOg6DoOg6DoOg6DoOj+TRO350pX7ipT7f4gr7/b+B933+lf8KRPsq/wUSqU+lf8KV9k/gkWi1EIi/b/AAlUp9CLT6F/f5EUX/v9fQgqU/8AMnU6HU6HU6HU6HU6HU6HU6HU6HU6HU6HU6HU6HU6HU6HU6HU6HU6FLX9p0KtVr9CKlKIvodTodTodToUir9vycyp0Op0Op0Op0L+/oV95FVR9DqdDqdDqdDqdDqdDqdDqdDqdDqdDqdDqdDqdDqdDqdDqdDqdDqdDqdDqdDqdDqdDqdDqdDqdDqdClJ9kvr8KUr9x1Oh1Oh1Oh1Oh1Oh1Oh1Oh1Oh1Oh1Oh1Oh1Oh1Oh1Oh1Oh1Oh1Oh1Oh1Oh1Oh1Oh1Oh1Oh1Oh1Oh1Oh1Oh1Oh1Oh1Oh1Oh1OvpUlPsr86HU6HU6HU6FpX7fkSh91TodTodTodTr6VJ/SvzodTodTodTodTodTodTodTodTodTodTodTodTodTodTodTodTodTr+FX7U+n9v4n7fQqi/f/wAy9FU9FU9FU9FU9FU9FU9FU9FU9FU9FU9FU9FU9FU9FU9FU9FU9FUVar9vpRrRblPRVPRVPRVFoq/b8iNPvceiqeiqeiqKRVqifSjT73HoqnoqnoqnoqnoqnoqnoqnoqnoqnoqnoqnoqnoqnoqnoqnoqnoqnoqnoqnoqnoqnoqnoqnoqnoqikVaolPwIqIv3PRVPRVPRVPRVPRVPRVPRVPRVPRVPRVPRVPRVPRVPRVPRVPRVPRVPRVPRVPRVPRVPRVPRVPRVPRVPRVPRVPRVPRVPRVPRVF+6/b6Up5KeiqeiqeiqL91+35EaUW49FU9FU9FUUirVEp9KNKLceiqeiqeiqeiqeiqeiqeiqeiqeiqeiqeiqeiqeiqeiqeiqeir/G/evH0J/B/f8AhZU+T6E/tfyp+l+hf3ov9iFVRf8ACUGEFFVX6K/an5UWn0yJdP8ACVUv2/joqotUFWv3/wAN/ZfzI/X+I0BFFWq1/MqVSvx/hH9fhXSqt+dPutPwp/5//X/E+v8AXb8/705/Cn/mDyB5A8geQPIHkDyB5A8geQPIHkDyB5AqH9o/7+kVHkDyB5A8geQPIFRU+y/wKn3RQ8geQPIHkDyBUPuqo/7+iVHkDyB5A8geQPIHkDyB5A8geQPIHkDyB5A8geQPIHkDyB5A8geQI1VRfwIlfsg+geQPIHkDyB5A8geQPIHkDyB5A8geQPIHkDyB5A8geQPIHkDyB5A8geQPIHkCof2j/v6BUeQPIHkDyB5A8gVFRaL/AAEUSqKHkDyB5A8geQKklVV/1Cqio8geQPIHkDyB5A8geQPIHkDyB5A8geQVKlSpUqVKlSpUqVK/TUqVKlSqi/walSpUr9NSpUqVKlSpUqVKlSpUqVKlSpUqV/FUqVKlSpUqVKlSpUqVKlSpUqVKlSpUqVK/TUqVKlSv8KpUqVK/TUqVKlSpUqVKlSpUr/IT+D/X+MIotP8AH0/Yq1+/+Pp+lE/VP8fX9CH6/wDP2RkZGRkZGRkZGRkZGRkVL7qgin6QZGRkZGRkZFSi0X60Sq0QVZf0MiiUqn4K36QZGRkZGRkZGlGRkZGRkZGRkZGRkZGRkZGRkZGRkZGRkVFT9/haGRkZGRkZGRkZGRkZGRkZGRkZGRkZGRkZGRkZGlGRkZGRkZGRkVKfgZGRVJ+0/Ai33RBkZGRkZGRkRT9IMjIyMjIyMjIyMjIyMjI6o6o6o6o6o6o6o6o6o6o6o6o6o6oqv2VREvsijqjqjqjqjqjqjqi6qX61U+46o6oqkfdfwUPsijqjqjqjqjqjqjqjqjqjqjqjqjqjqjqjqjqjqjqjqjqjqjqjqjqjqjqjqjqjqjqiqX9r+Gj/AGOqOqOqOqOqOqOqOqOqOqOqOqOqOqOqOqOqOqOqOqOqOqOqOqOqOqOqOqOqOqOqOqOqOqOqOqKtfuv1/odUdUVX7L+BEvsijqjqjqjqjqjqjqlD+x1R1R1R1R1R1R1R1R1R1R1R1R1R1f5C/v6/6/6n4F/w5f3+Iiq/gX/Dl+tf0+f+/qKU+31r+/8ADv6L9f8AVOPo/cv1/s/w5fqIqhBVqtfoX9F+r9X+H/cip9X2K+H0/cip9X2KX4/w9FotRNFIn0/aieff6VVVKyn0/aiJ/iCrX7/Qn7Kgv1KqifSqq1/xRP8AIE/S/Wn6X/z33VMnuqZPdUye6pk91TJ7qmT3VMnuqZPdUye6pk91TJ7qmT3VMnuqZPdUye6pk91TJ7qmT3VMnuqZPdUye6pk91TJ7qmRahF+hZajf+z3VMnuqZPdUye6pk91TJ7qmREaqvC/2n01a5Q91TJ7qmT3VMnuqZPdUye6pk91TJ7qmT3VMnuqZPdUye6pk91TJ7qmT3VMnuqZPdUye6pk91TJ7qmT3VMnuqZPdUye6pk91TJ7qmT3VMnuqZPdUye6pk91TJ7qmT3VMnuqZFRSv/tPqRVK/wDtD3VMnuqZPdUye6pk91TJ7qmT3VMnuqZPdUye6pk91TJ7qmT3VMnuqZPdUye6pk91TJ7qmT3VMnuqZPdUye6pk91TJ7qmT3VMnuqZPdUye6pk91TJ7qmT3VMnuqZPdUye6pk91TJ7qmT3VMnuqZFFUX6P1J7qmT3VMnuqZPdUye6pk91TIqKV/wDafSiqV/8AaHuqZPdUye6pk91TJ7qmT3VMnuqZPdUye6pk91TJ7qmT3VMnuqZPdUye6pk91TJ7qmT3VMnuqZPdUye6pk91TJ7qmf5Kqr9CUr7T/wB/X+/wv0rqtf8AD/7vp+6qfWn6Vfp/fX/D0/Zfp/UKlPt9S/p9P9k/w9f0ifV9y1/GVRUFSn2/w5f4X7V/w79n8L9E/wAOX9/V/X0p+/rVfsn+HL9X9E+lFp9xFF/xlEqtBVqtfqX7oi/4yn/0/wD9fhT/ABf+vwp+/wDF0fZPf3+FPsoiiqn+Lfr0/F+/v/Fv6dJ+L93+Lf8A5J+FC4/87q5SUKuUlCrlJQq5SUKuUlCrlJQq5SUKuUlCrlJQq5SUKuUlCrlJQq5SUKuUlCrlJQq5SUKuUlCrlJQq5SUKuUlCrlJQq5SUKuUlCrlJQqKf9VSSoqfrkq5SUKuUlCrlJQq5SUKuUlCrlJQq5SUKuUlBFV/aShUV/wC1cpKFXKShVykoVcpKFXKShVykoVcpKFXKShVykoVcpKFXKShVykoVcpKFXKShVykoVcpKFXKShVykoVcpKFXKShVykoVcpKFXKShVykoVcpKFXKShVykoVcpKFXKShVykoVcpKFXKShVykoVcpKFXKShVykoK/wBkn6KihVykoVcpKFXKShVykoVcpKFXKShVykoVcpKFXKShVykoVcpKFXKShVykoVcpKFXKShVykoVcpKFXKShVykoVcpKFXKShVykoVcpKFXKShVykoVcpKFXKShVykoVcpKFXKShVykoVcpKFXKShVykoVcpKFXKShVykoVcpKFXKShUU/wCqorVJQq5SUKuUlCrlJQq5SUKuUlCrlJQq5SUKuUlCrlJQVKLT/tXKShVykoVcpKFXKShVykoVcpKFXKShVykoVcpKFXKShVykoVcpKFXKShVykoVcpKFXKShVykoVcpKFXKShVykoVcpKFXKShVykoVcpKfzK/wD0yuo2Oo2Oo2Oo2Oo2Oo2Oo2Oo2Oo2Oo2Oo2Oo2Oo2Oo2Oo2Oo2Oo2Oo2Oo2Oo2Oo2Oo2Oo2OI2Klf7tsp/Zbb/wCIWn3U+NjqNjqNjqNjqNjqNjqNjqNjqNjqN/8AESj7qU5W2OI2Oo2Oo2Oo2Oo2Oo2Oo2Oo2Oo2Oo2Oo2Oo2Oo2Oo2Oo2Oo2Oo2Oo2Oo2Oo2Oo2Oo2Oo2Oo2Oo2Oo2Oo2Oo2OI2U5W2LSv2EofezZ4Jsor9l/4j+yngmxf6FRv/AKn9io2Oo2Oo2Oo2Oo2Oo2Oo2Oo2Oo2Oo2Oo2Oo2Oo2Oo2Oo2Oo2Oo2Oo2Oo2Oo2Oo2Oo2Oo2Oo2Oo2Oo2Oo2Oo2Oo2Oo2Oo2Oo2Oo2Oo2Oo2Oo2Oo2Oo2Oo2Oo2Kn9Ft/1Qn3W2x1Gx1Gx1Gx1Gx1Gx1Gx1Gx1Gx1Gxaf1/xKf2JyI2Oo2Oo2Oo2Oo2Oo2Oo2Oo2Oo2Oo2Oo2Oo2Oo2Oo2Oo2Oo2Oo2Oo2Oo2Oo2Oo2Oo2Oo2Oo3/8Awwf/xAAsEAEAAgADBgcBAQEBAQEAAAABABEhMfFBUWFxgfAQIJGhscHRUEAw4ZCw/9oACAEBAAE/EP8A6QaVDSoaVDSoaVDSoaVDSoaVDSoaVDSoaVDSoaVDSoaVDSoaVDSoaVDSoaVDSoaVDSoaVDSoaVBAt9KCrQ2lC670+JIaHtF/lv0JhFbaOPUe8yRu5Le3HqOEKOq2GBMxMYm0cSaVDSoaVDSoaVDSoaVDSoaVDSoaVDSoaVDSoaVDSoaVDSoaVDSoaVDSoaVDSoaVDSoaVDSoaVDSoaVDSoaVDSoaVDSoaVDSoaVDQoYvAUq7ehQcUHGYlvLR+eJzfdgU+I5kDer1CRym86vxS9MHzWpA70LrggzSoaVDSoaVDSoaVDSoaVDSoaVDSoaVDSoaVDSoaVDSoaVDSoaVDSoaVDSoaVDSoaVDSoaVDSoaVDSoaVDSoaVDSoaVDSoaVDSoaVDSoaVDSoaVCj8oJpw2IHbnvTeZDB7bBeGLfoSuXtoA+ie8TKXzrk3uO6jwheylIKGYN0bRpJpUNKhpUNKhpUNKhpUNKhpUNKhpUNKhpUNKhpUNKhpUNKhpUNKhpUNKhpUNKhpUNKhpUNKhpX+0Wi5ibRucPeOJsQhlgUAoDd5Dj4LWQbMzN2bYwsRbMbhROW/JETB/jqC+nQ2lNgbN4VitLaY2Dit6zXFt8pRRqskdJxWWxHGG1ITsrAZzaeI2OJ/MCqCKVQ0qmy2Vt3cAwsAUAZAeSyIxRaB9WBm4ixtLBw5yhbx/TBP7KU5XmJxnELgrygFAGAeYLkBhctfNI6f4xeIE0CJOxbF2JdkFKEGgCgPOB6a5o31uync05hKdRyFJtW5Gx4n8ralqMLVcQs4hDzCOoAoDp5kF4FAN3Y80To/sgnlguS84NXi+n8ai/tJ9neh/xwCIB7rQOo6/yk2KJOXnFm08Vw+SSGX+zUsaljUsaljUsaljUsaljUsaljUsaljUsaljUsaljUsaljUsaljUsaljUsaljUsaljUsalizszsOlpSi83LLC724CQG1XAmxW1WFvYzh5a/SBjkwLVaAlH7aby5gagxb7ymPUQiLNZIijgRkx5ILNPiQA16pqWNSxqWNSxqWNSxqWNSxqWNSxqWNSxqWNSxqWNSxqWNSxqWNSxqWNSxqWNSxqWNSxqWNSxqWNSxqWNSxqWNSxqWNSwzKnei2KwtwGBujwtmjmBDOtBL3oqVwQ8cR2OEjO8VVY2mWOVMVo1AUwczBEQJgiPi8cvDNB7m5qWNSxqWNSxqWNSxqWNSxqWNSxqWNSxqWNSxqWNSxqWNSxqWNSxqWNSxqWNSxqWNSxqWNSxqWNSxqWNSxqWNSxqWNSxqWNSxqWNSxqWNlGVBEqqEwtfDz0IhadoZuWd9IWcCxwFl9U1LGpY1LGpY1LGpY1LGpY1LGpY1LGpY1LGpY1LGpY1LGpY1LGpY1LGpY1LGpY1LGpY1LGqZ1TOqZ1TOqZ1TOqZ1TOqZ1TOqZ1TOqZ1TOqZ1TOqZ1TOqZ1TOqZ1TOqZ1TOqZ1TOqZ1TIMcK6CFWK2z8oxNadBykbqxIIsCn4iWCb2VVVuhw62gRTW12TCwzxj3oQxsCiFEabl21GjgxTsKFJYo5hLyxpEpY0axacdsVe0NorVOZFIa9x74cjgoOgrCdUzqmdUzqmdUzqmdUzqmdUzqmdUzqmdUzqmdUzqmdUzqmdUzqmdUzqmdUzqmdUzqmdUzqmdUzqmdUzqmdUzqmdUzqmdgBYsUgt+kUbGIsXbCqrEKzcXCioCR4PDywtaL3vgaoGsqSysIqZa6JLbDEgO8MxKoDUw4l6R6nu8SEK2V7PtNnqTVM6pnVM6pnVM6pnVM6pnVM6pnVM6pnVM6pnVM6pnVM6pnVM6pnVM6pnVM6pnVM6pnVM6pnVM6pnVM6pnVM6pnVM6pnVM6pnVM6pnVM2BjSkqEwtxwevnLZiSG83uB1gaQBbKlTqmdUzqmdUzqmdUzqmdUzqmdUzqmdUzqmdUzqmdUzqmdUzqmdUzqmdUzqmdUzqmdUzqn/bAAAAAAAAAAAAAAAAAAAAAAAAAAAAeVgmDGV8TCsswIKGimcJpOIidJUHR1I2jYu6E6R9VmtuzGBAJSOT4EJ5BG3EWSbhbSg+kK2dRX8QAAAAAAAAAAAAAAAAAAAAAAAAAAAAAAAAAABCpmZQW15gxra0bY6GerStbd+VVWFsBKdHMaubLCXlgg2X4OpyM1C6OLFSwCjGiDFFoW2yuUGUFQbtrFvbbb4OUBZQZuGsXnuv8oAAAAAAAAAAAAAAAAAAAAAAAAAAAAAAAAAAAAAAAAAKVOzPa3n7lt0PMziOBSChtEPhjDADaCoC/b+wAAAAAAAAAAAAAAAAAAAAAAAAAAABAgQIECBAgQIECBAgQIECBAgQIECBAgQNEIvtSUnA5IruJJuSL729fCu0jxKBCgwWtjhA6dRwRUwyLu8brZMWGK5TQF+0bprPZLFNhMQO4LNt/FAgQIECBAgQIECBAgQIECBAgQIECBAgQIECBAgQIECBvozwUqxKuCiOCKMxqVChS22tyqsTjHlQGC6Csd+EvWAJavSu26V8B8XiwqJJ33V347GogWLQDKnuQCg6T+UBAgQIECBAgQIECBAgQIECBAgQIECBAgQIECBAgQIECBAgQIHF2UrVsSVv2S+/HXOgP3BHJ8giWNkfMBAUGqhv+yAQIECBAgQIECBAgQIECBAgQIECBAgQIECIIIIIIIIIIIIIIIIIIIIIIIIIIIJZoKTHSU+6O8QAcajyKHnZL45QwGt90/EKpXO1OGYjisqoXnjj0YPF45k3YPzMUMRTADFhka2ArM2hjxX+MIIIIIIIIIIIIIIIIIIIIIIIIIIIIIIIIIIII46w0cWCzBptopxuU8cbHbTFD0hBlLdo1Xw+Adkr8jWnAZcBtgUC1ra+IKB4IUDsd/wDliCCCCCCCCCCCCCCCCCCCCCCCCCCCCCCCCCCCCCCCCCMVBSbRBlY84sl75bpLjS3OT2nMp4w4vjBF6FXrAHgkz3L2llJbQ9SCnADjcaAsl2ATBUkChZWSif8AaIIIIIIIIIIIIIIIIIIIIIIIIIIIJoiaImiJoiaImiJoiaImiJoiaImiJoiaImiJoiaImiJoiaImiJoiaImiJoiaImiJoiaImS8eiISZlZtEExJX0Fkv+y7LMHqRsQnFuFYpixcoWNvksv8A9lgA2fQTO1aDSB3F4ercRjE2MgD6miJoiaImiJoiaImiJoiaImiJoiaImiJoiaImiJoiaImiJoiaImiJoiaImiJoiaImiJoiaImiJoiaImiJoiaImiIGBUIUOK3WvG4XWoRbtw2rAZsJOKSVjH2GOZItYBEE532IAvSKb4KQ2skwfPnmiJoiaImiJoiaImiJoiaImiJoiaImiJoiaImiJoiaImiJoiaImiJoiaImiJoiaImiJoiaImiJoiaImiJoiaImiJoiaImiJoiaImiIb8YKLbfLPlIPMoPdg+YFabCvqaImiJoiaImiJoiaImiJoiaImiJoiaImiJoiaImiJoiaImiJoiaImiJoiaImiJoiaIl9h+JfYfiX2H4l9h+JfYfiX2H4l9h+JfYfiX2H4l9h+JfYfiX2H4l9h+JfYfiX2H4l9h+JfYfiX2H4l9h+JfYfiX2H4l9h+JfYfiX2H4l9h+JfYfiX2H4l9h+JfYfiA6ipJSg9sx4UYK51iImgmJwS4igAFlNXiOx2EGmzkpbRtGYZ5xiAmb6mKgIKQsgOMEFsmgoHxLs1RfZhL7D8S+w/EvsPxL7D8S+w/EvsPxL7D8S+w/EvsPxL7D8S+w/EvsPxL7D8S+w/EvsPxL7D8S+w/EvsPxL7D8S+w/EvsPxL7D8S+w/EvsPxL7D8S+w/EvsPxL7D8S+w/EvsPxL7D8S+w/EvsPxL7D8S+w/EvsPxL7D8RcGm4U5gttRpzRcYuUK33e1ILjptuhaK487xgeUpAlcCiqRqgOLjBgKJTaOdyfV8Km687RPjVDgxTYiOyw+FXNZsZxQDUbdguMCdHFCxy3MvsPxL7D8S+w/EvsPxL7D8S+w/EvsPxL7D8S+w/EvsPxL7D8S+w/EvsPxL7D8S+w/EvsPxL7D8S+w/EvsPxL7D8S+w/EvsPxL7D8S+w/EvsPxL7D8S+w/EvsPxL7D8S+w/EvsPxL7D8S+w/EvsPxL7D8S+w/EvsPxL7D8S+w/EvsPxL7D8S+w/EeBBZ5Tr8/LejM1x4gl2aovC/wAJfYfiX2H4l9h+JfYfiX2H4l9h+JfYfiX2H4l9h+JfYfiX2H4l9h+JfYfiX2H4l9h+JfYfiX2H4l9h+JfYfiX2H4l9h+JfYfiX2H4l9h+JfYfiX2H4l9h+JfYfj/aQQQQQQQQQQQQQQQQQQQQQQQQQQQQtIOL60Aggh1glxLMTeyl1Ps1mV42it5BTbXCy0mwBOO14wffubgdGRYMdqSrsF8pLUeaOSY4GZjo02AziA3NbHpEWkL/IBBBBBBBBBBBBBBBBBBBBBBBBBBBBBBBBBBBBBBBFeKXXCNsMAjcV2EWMoNl3juZN1hlARADFWXSPKtlbjMssNjuuN5vcf6zf3uWSXZ0XXJtNv8oggggggggggggggggggggggggggggggggggggggggjagV6oAJQdXQLqFhZWJk34K5XzYy9q8GwIRd5T7iPWFpYXvCh6kJFwLGovGt+0paQv9YEEEEEEEEEEEEEEEEEEEEEEEEEEEYUTayLipyVvcMz8uZWm5PsYze4GOe+5HSB0oi2ARXO7qSsi6MK8f5CusB9p3ImrHeFm4N82rgprDQbyD0jXNbsNsG8LHgIglhSjZQr6DAE7ZKDsxismUa7aWN1P0nlKFtwrmYDrCEEcekA3iZ/xkANdekz1HpKLvCzwVtKKQPRhokxqH0JUKeRh7MtWjeAEzKh1KMchtO5RoXFO0R/jWb5gz3aWcZ6C8AylaHPDO5K+wwWAciJ3iNdKlMp8zoBegOkVtXOKKHqkFRYToD68LMpQbfYrs2xEAhSJYkPC+mQFBkK4MMCQyXyaVTkxdVTmgeNfWoNsH16zwbxMH/VpUNKhpUNKhpUNKhpUNKhpUNKhpUNKhpUNKhpUNKhpUNKhpUNKhpUNKhiIl1LFXnkbUnAJhT4nyUGBXsK+Qj8wMPA5S5IcXqgZXAatYhZbjt2xW6D0ZXDmymFTcQuJQoFXZyy8CTW6gtOBaC6JwNMA3Cq5hHzq15FY3GLzrdHyDqN9qNXOqmDPphAlg7bJhNYpQcXNv6JVzPAPdfMQq7W+36CLWga+BxsAssB3rlC3M91sgtcwZg/9yb7b1TPWgNNwWOKuCaFDSoaVDSoaVDSoaVDSoaVDSoaVDSoaVDSoaVDSoaVDSoaVDSoaVDSoaVDSoaVDSoaVDSoaVDSoaVDSoaVBED4VJdxeJ4GMK/AAbQoigJuh2XK98bpeFVnNGXlJGffDURyFhTaxxvYt5JPVKJtD7U7ZpUNKhpUNKhpUNKhpUNKhpUNKhpUNKhpUNKhpUNKhpUNKhpUNKhpUNKhpUNKhpUNKhpUNKhpUNKhpUNKhpUMUThqDOmzxcjakzLXl1LIPXEmLaGU7gYanx3ylQA4jxdkybKqHQ8gKguODLB20A8RkwRBGzf4K33d1Qr3Ora5BkvlvD8rf6h5L55QKcGqpxQJzB4QxJ3BAwo9ReCB2PFZumhQ0qGlQ0qGlQ0qGlQ0qGlQ0qGlQ0qGlQ0qGlQ0qGlQ0qGlQ0qGlQ0r/MHbp7IeFe0pNqitAwPOm678G4UNgf8AAmw0IROJH2L1gvhkMqpMm6vK9Y7hfC7AXIF3SsHVZkYFu3/gJyaODcjnMERLRrgWsdhbbtrAADY/7mvqQoBmrsJg8bYc3pgmy+8xGMIhZSroYB4AOHgGOiS9poda9HnR/UbMC694F73+CJXxtduqTO0TAUOQKZKHtiuLsGwUNh45a1x9BcGCJg+QqLYW8SmWdFN6ir9vDMUDkAHtfXy5yEU9LM+NWtRgbkc5Rgi2sZWY7O3HbXFA2WfycESg5qOrQTbYh5oYvAMjYAeB1hKigDaxiJb2Y/sU9fO59vGVF1CEsc/ND4Pq87iONSqvNyMR5KHr4O/UHYHBE2kaue22y1ttHU/3ArlLRlgNm5hvb3kAgACgPDZFYOyTkFU9Tr5k2WUbaUXJaHWK3RyzpockQxiiu3UP3/vHM74loeKAc5TOL9qMnArgHF8FAtaCCAGxLGEiKkRHowt5siY3iYHS9yRbjiCiwVcsy1iXtKX/AIXMASzE0BtVwqKWHnIHVLgIMt6XCwlKYvN2+Aigi4E3eBX1QLA5ibSD3Gta7Qna+gvt/kgyvdOUH15oeAA1uRJQPSDtx2QCumgM6k9GQAAKDIPOQXpqAxTJ6J6x83QIXiLOA8ghRYjt87arTraMZOc4LwtdLuXZe+JS7AqI0hsRJaUWu8A9F/2wGYNVjlo3AvBR294i21bUK8/FyipgPux+HwSwKZX5Fz8NlZi04Z3pKTKz29YfMZfO16P9+MET3o1J6vN4+GSoEh9rekMvEG7YdqpMOikEQRsdp44UiwL2rFVGIhvrPyPkEpxtVXzpfXyA8sYmyX6nt8TkZu7aAPC38mbYnDIqfJE3X4OisnY0gdiYAtAlACgIYbsC5XfYNn/D2SAINYpVnKuEbgrzgY2AZ4y906QiktVK8CPZF8SVK9DsF7hDHyD1f7BmINwgcyHl6rwODD9G/o8AM4C+R+cQy8aObYeF/snSbHpzMFr0kzHLPUP+WhuTJ3RKY5/8SXMeALt7Nnig6Iz1sPcl6eWpwtwZGA6KOniC3/mD7LNdOD6fHPBbyC5kkm3EdC66eQW1Dg2Ev3bpFzUx1L8B2CW3IT1CGbkb1L/4hiNmX+8NtzJyr+Rhti2/c17yfg3YvXv9f8KZPcbHMLPoZenilaUbqNcr5THs5K85s4dBTQl6+ODMe/0JhTX/ALlT5iZ6E+n+sSOZQFDq0dZiv4mzSt6nlpBUFk9JtFFta7YVKKNiZJLmlwLsPaxgiWNj4N0Co55QcVAc5hnt3nq+pmOF2Oag7wsbbcCQUHnIPr/MYI34/wDHCFU4reYfp8WK3Buz4DxoFkGYWyXNnuu8r8CTrh67/wAePF3MQs9yAcw6gW+T08XFzR74QHICvSIl9Ixt4rgHB3eOFpGAzufuqHlwB08AGWDJBs+BPo/4LRAor/faqprmkfYTeORv7Qbpw/dD6sfcBpksUpTky/4HguaB09CXAhCwHiZXw4P/AAriqjiJpYBi4XlGRm4qp117JnETsjc2vp/2FrrPt9D9U6wy8rlLzbnQCrLQ2Q0u7EcGm4a2iUvEzwQj14iW34gU8B4XPnsBbC3zsdvr1wuQUG4kC8lYWuwAxRJmljzHfOH+ZIWF8P8Ai1+fG72z2zGvgYUMgYpuMZXJbYBLrHJb4Q31xSbtC9l6eIeBqMkcyIwswxurHelLq2xLZsD28SGCLTdZR8wmtqQ7vGcz+2ESooLFUcQqBzjsoWZFs4Rgb8Xb41fzB9d7KYNApLrcw8ROTANSC0gM9gbygbQj5kBb3A9RBCoAOR/wVoBhv/gMGDBgwYMGDBgwYMGDBgwYMGCk2PEKFQoUa9oGhuKVfFnYLEKzIncFKczDWUb8Z9KJcpwIoheAPf8A8a0sxDgueoj1/wCALYuJyWJzFOeBiHICvK8omcWBluDX16cCOUjSKqgGrJrBwrDH/YoYMGDBgwYMGDBgwYMGDBgwYMGDBgwYMD6ACwRVku98y5Rt30o9UEAwDU3AO3fL7RwV5kIYktXWOUxSfpqpSMRuwWnG9l1nVOqJM1AVMXLaEoIBjmVODW9rjLVmTDh8SKI8aLOPaYjuj+AwYMGDBgwYMGDBgwYMGDBgwYMGDBgwYMGDBgwwLMfTmKItinKr3TFLIOK2YQC7aBdq+GGTDfCp9IPkXVtEyK5uBa4N5hEIZgJzOI4PHxD2Ry0k9wjKqbfY4/EShncbtSGqY7Zzw94ePL42Roq79MLA/XwGiChiILIGIbExJiu1r0xpDta3LuyABWOSYn8cwYMGDBgwYMGDBgwYMGDBgwzMzMzMzMzMzMxpc8KgWr0I4JBuYgLdfWrsgMAFAFAeGCqd5gmZxMziQFo67ivWDclHimyJ6AZfJvsylZ5MVMhmgA4DY4Pr5S3HZYYM6zazo3RwK4MFQDjYcG18rBm7e3CZ1T0FHBuMBS84k9VQA2rECJ0tN3grxePD4rmEpYKsTnY+iYoLWqAeqp43/rzMzMzMzMzMzMzMzMzLwr6ksuu4LdJX0St1S203UuqQzgAUFJe82eS4eIXeW9LCdY5xtFrsVm6wee3wPLkNNlfXcyKFaytL19sWi2UmkQ4HIwUhUDRL2gXcAc1/35mZmZmZmZmZmZmZmZmZmPV5XQC19I/60WaAdM6l8QKs04CPzA+rVtOXqp6xTmff4Ehs4F5JjAXmp0/cEihPNn40sMmkDjQmBQWrxXxFGrsq6oLdlYnZsrxWdEALQ44NuNYQVADsm0qxtbXDNlemxaG9MHWBXNtSni0HURMcf2r9gcAHCDMArvknM+IPKplyFJ6RoHMZViOKg8R/yZmZmZmZmZmZmZhMJhMJhMJhMJhMJhMJhMJhMJhMJhCYLHza7HqTrGMxOgDOfQhu8XKMd/4ogHEUtoK2kMUO8bAipq1eNW2objqrA7ULi5+Fm+Wb4jGTWs4uXHa4XEoFLmLb1c1i0ZAEvqCP0HFGxHupgUrSr9n3MWx2QCCIjkyzf4EnmARc1wjLELHpWLYaciuEqAPIpInEN+u4jJF9dRfHElPadkcSj0hynqGSdORCYTCYTCYTCYTCYTCYTCYTCYTCYTCYTCYTCYTCYTCcSnIBTMfO1CXaKvtOm8KR8EImgzXCI2yBOTONm7HwwZlzMvso2Fo13hYC+dWdXwvhotuYQzDd72biFwGIZxMcOFnSUcomPtgHmYAFYTCYTCYTCYTCYTCYTCYTCYTCYTCYTCYTCYTCYTCYTCYTCYSgwrXFPZQwwKAyA8MvcYFXaaDqoQEAttZyhnAS3DHg1KOPrKN4WK7Lj6HxAcyT1EV4IkYlZf8Ar4oxsmG5T1PVJRK5+vhnsL5I/UuAw8dInqsuJgDTNKvRD18TVALxqt+gdJhMJhMJhMJhMJhMJhMJhMJhMJhMJhNCfk0J+TQn5NCfk0J+TQn5NCfk0J+TQn5NCfk0J+TQn5NCfk0J+TQn5NCfk0J+TQn5NCfkB7tqjdruwhhbn/aVnqfJc6QK9m19zrHtqGqfaE34vdMYauZHWANVYODwRfYEI9FkLGo3fsMEmyCIeeNGYZaY70mK4qviEF0CxHYkGq93QHK6OQEsMEdgP/cMHt4EPqJnUKC7l6dwMY9vW2h0tECymVFcwpibJNQMGAZBGFxmV3683F8ixL5aT5IE0J+TQn5NCfk0J+TQn5NCfk0J+TQn5NCfk0J+TQn5NCfk0J+TQn5NCfk0J+TQn5NCfk0J+TQn5NCfk0J+TQn5NCfk0J+TQn5NCfkUQxcB1yLMD1i9dJVQBuqBimN0vRyEICkA3AZeHDnX1vbxCDtk8bkRWetXHr9lZ6zWhnYyEJkRqtVgJYDIBsmhPyaE/JoT8mhPyaE/JoT8mhPyaE/JoT8mhPyaE/JoT8mhPyaE/JoT8mhPyaE/JoT8mhPyaE/JoT8mhPyaE/JoT8mhPyaE/JoT8mhPyaE/JoT8mhPyIIRApdnLeeohl4FEOuLDFrrXmPApCzbY2i9PR8mMMrSk2B2I0nElPer/ANaqsTY2bvFwBbcHevgiDbqW4bjaxTzQN2lt3leI1s8mA7rCgUHvIj0YOBhBtMjYiQF3NPMeNw+V0/rD2mhPyaE/JoT8mhPyaE/JoT8mhPyaE/JoT8mhPyaE/JoT8mhPyaE/JoT8mhPyaE/JoT8mhPz/ACALAQTKkjjVgjCgKDxzghVyA9Uln4k5BAfKwu5imDzcuprBFMxUuwxHOYdzBnO01kXFrBDBMTh2XBzGG5c78TShkA9xFr5Q0dBgDIIgPqIXavwofEvkkCjcXgc6ZV23RhO1MG25XsFjNzYldyUsEMioAMjA16AwCjhqsLJw/WB6TH8joJhy+sPVC8DENo5f6wuCiuIr9Dy2R2vTXileYlOK/jODCQAWvoRGgJMys5Aw96dsGmSGwFB6H8DFDZE/+4PClouZ/XdYHhO268NngPi1jX4b1LFCrbnB7fJdAsF1jXZDLAsTJIa103WeCZQy7Vwwx8BbnqtTc5n0+VG7yjgBPrAa74ddhg9AOkA6K5awhxGnpBIseSnrYnBHb4CmW5YU6iOspfGbaJZ/FcoNWxteAj3+vkZ0kOMtCnzL2jeTjixauqLlK92AiYP4YSzMDiXMQ0I2q2FXa4mzIsoMlJwii+GyHbi307JbgsBIlkFm5j0E5pdn8W4ONq9YMwaRno1Y8SPGOcBSrUAMCboqDjlhhF6o2xuAno3KCYBJBbpAoYN0Vv2ze3pJqJgVZo9Z0Y1dN7smZI1rj7VKAJkKqiGxMLISh4YXNW2EaghqMRRyVx3nkx0iPYlH3l6ef9oF7n+vCQOutk0aC14OcTnDvp12/RMxVDk+qRzILZGCscT3Ig3ot9cWT3hP/nWp44VN6bLyJGHw7ygddFDtlM2Hvb0v4DlKGBR7DVd2D0SwL2Qq9lSEz2wyDAWDbAzzhFBno5AKZKI7xHUIdYLAknfXqI6zcjCgUvOzuD5TTGOxt/PMQbzWaZ65fJKhHRRVuoPuOxNFm2RwMFXYC7InrGLx6j7UeSpfBuIr3JESvz11omJg2NdUFBy9hCwtE+GAednVAjoVVFgHZYVwMyMPnJsEzDMNo0kDIjnZFK5qDfbuZa23re2f8YMTyDiYWvp7RWHf47C43abH7NfAK7o6DF5VAWhspb4SJEoCLiDdcrYiAmYlwEsAoF7/ACEhffTbje/i0UlhQ294wJkWKWsXwVycqrGMbwucCtBbcSUbBG4j6HXRAIiOSeNJ+CI2N57MIVIprDZsun+sKDdC7lXy+UqmwZwfm+J7ByCklORtODe2UhYAd4ie4QSMSOIL7fwYTatFVwm3NIBhbAqPdaqcHCAgAIAZAGARUK8gQpIDhGxASWRn4ZlbfAnKAGFAr39Hp3+VHfYxxT5KQ8KbY5gi3ntlxGzpOM1ehe0oFWvGALNva6vf5QFxOzgC7xWDwHw3ay0eTtoiywVIAFEMAi0Y5qqvh8+5CgPVctkMK1GBbVWwui2oFYS1CscQ9f4pSTl8EHgYrcJgdLYsHFNxResMqgoNx4CLcTsD5eG2KcNmlVdBHO/B3KLDdYD7zPvEbgUegfB3dwTaBOVhfC4oU6cDzZmxM7NuEGy5WcE4G9WUw74UzTmpM3B8FdCLoRTgZvSJ6FHtjtZscGGwDavi1u6O5xzwIv3h2hSRWyhubFp32KfEVkEFW4oV8S91CrsH6VU3Pd/rZotqJQ0Bm1auEEEVip6l2Qby8XcW0HG/8np4KU1AzLGZAVofKCp1ORlwesUBt2YuVcELr/AOU4b4/UI6XHzkXUrVuqL18QU0TeLrDnTHYM5pQHS+YO/wp0vg8kD61Hdb5vAvvfkGYVYyRg8q7hd5RJ3YHND+3qrNE947BzyCBd4hOUyhDjLqnCyzgnktcWu3HyR6eD71AWBwRhUCEu26+MitxccsQETaeNhNsQq26HL1L+KJATQyMzr7h4IwuxpBpTfVnqRQLYGxCwY07JwWyWm/yLRUJbkgeniMA7YAjlt5sr/M8tEDhG0KJlm8W08YbKhFZlZjPYzKI2h3oVgcPVtYXfcvXxBE0GKzbL2dqi+Ily2ffEuCjjU2oRPeDdomYm0cYKivSrGgN6vhYg03m/KI9YSob1iFj/qCXVn631NoGSk8WrYbHcAQGzxwSyRaKFyMHp5EkrDW7e65zHSsm4MXVt6+AgsROH+6xGKWbMGPUcxu8ARADFXZBLAeUopkSlzXBQ+BdPv4sILkNw+TDxuRJV4hC9MXScHEBAoPQmbBWUyVvuWbldpWGF7QBW6WKspAiCEOOFx6/iTKbSG3/TPE1hATjgl3pYceKVX7obtt+rfWPKl4VeI9fCO+2nFSdVQ4m5DKALtCx/xa/nX86/nX86/nX86/nX86/nX86/nX86/nX86/nX86/kZgUst1PiRBHhKmKgvUa3FHgA5sTYOKNtFPRMomLggC6RqpxCGG2YDfYiaSgUEmGya/nX8tf35O0rt0CquFvgJKlgbLYvQx6eLM4RlMXxhStRXlZA9nwaPa8GuaFF5AbVxI1/Ov5uzU2i8YEnmIT4vClRwGGOEwmb1pC4i4FQyG88PAfheTtEpii5N7OBtOVBr+dfzr+dfzr+dfzr+dfzr+dfzr+dfzr+dfzr+dfzr+dfzr+dfzr+dfzr+dfzr+Xhu7VrXbILlsiAREcRPJeuYY5rQ5i+XkJcUCNljc2bcpq+dfzVl6+Nfzr+dfzr+dfzr+dfzr+dfzr+dfzr+dfzr+dfzr+dfzr+dfzr+dfzr+dfzr+dfzr+dfzr+b+3hF3ktuO4F2Q2FipzVb5p5FGzwQQAjgjLxhWAcG4wLwpFcC9hTojGPPptHVmv51/LW/Pg7SBRRuTxOsWGObhZx9P4UCAP1vAvggIqmdZkFQQ4AES3jZGrILwr6/FaF3StBcLRxKb5r+dfySFqR0jmQSMcGSMouDDJG0u4XUAGybPErxDww4FsyAN3DNfzr+dfzr+dfzr+dfzr+dfzr+dfzr+dfzr+dfzr+df/4oukpjY2A8R6x4svmQuzYB6LdIQAuhl7gV4uTBBbs75fSlm+FWEisRN0a2P43wm2jeXhYOaLI/+CEYALMpAOdQ6sAdexPUWhEldLwLNl1B9lXELIFWm3mLUCxS6yiisByAADcSzfBTYqFdGGKjh4cCfXi5RtSJ7mnVL1jFBOXOwH0o6eKEklBivoL9RhlAWI2J/pG2nlyFI9I6UApgsmBRTglrHGWeymJxoRop5yzfEolFgBavQgXgRVaBfjubjDa+RECJxLAVys9v4GOMR02JIdQfG5QXWkm6LibdwbDAm8xVzSvz4uTH1t9pl41vyT4mUdVb0NkvwEpsqOh+CGbPe0Cy4gE4kaRgiFDXFDYOdcfBxKZQPrcX08XKIH1CsRiJtG2LbkrLG9psNmXjVBYTMD6pzkgWyzZIWPp/B5555555555555555XQ4qkAtfSYqKOG8ijKg4V5KPfUg6rjs6y7xeyCAfJzzyJDjX4XrVjilgqjZ9dgGBwr/AMUKk8rM26ErunP6NIGHMhMXvnA+wYcfP+LZZImF/FWTC+6vkRwo3dYejKixcDvjL9wIZnkNzzy4VTEF2jyArAPCwLepOHFKhU5C0Lxxx9z/AKueeeeeeeeeeeeeeeeeeeeeeeeSY4lTmN1KSw3TBcYzfoSqvmvpgPDKCS3bSW31UMDxJ0ChcsR+oIXVdXsZyxA+kK/9088888888888888888888888888888qwGoMAzY+DgqxQuxw5h5DPUXvJx2pWtUhK9vJzzynjEVzjQeiAYpW2+2DYFZhh3rcMRt5FH74EUoXeOL1hbO9zFBUTvF4pudL1mNeO8KekACwmCmoFijYLcd+Agq8CyF+BLWWww+EgLhXdi5V41h5OeeWQGiAsC9HFHTyE8N9mSL6Gx1JUz/SYKXHf6F/g8888888888888888hsCOYe30gw4Ln42gXQgFVkju8ciAGKK42g3J8gYKHKsK/E+8kU+6/wCblBRwHnAD5+nksvBm2CY/oOsaBrCHJ3Pi74phTEumtiWdZUMBiAzjE3pjt/0mM2k9yT9jwcOTKBb8TB3tudB0j5gu3yJuKcGYW/lS6ka9X3bbt9G6zCfNG6hr3/3BwFua2roiMRhHtAFBvoeHV8mMxQTNUbkD6nkfi0bcBbLoVW3NH/zOUPEV0YLff5HctoLK+p5qkwwi5NzknqPi5cCxSN8xVbbqYdWVGGI+o+j+DiC+BFT202otRFNpmGZQp4+NeiOSAqx4CBvRxlMO0SqKuByrPIEtosbCh9C+kK4EDIDAP+gD16goPqXkXcuCzbS5IQ0BxcWDA4gH2+JOipCXg85doM6szfWWdXDbmn+gMiMuhcciYvc7Hz4DnljhsuTa4LDLyYMzFvVhyJj1q5QB9TJQexrAf+4QlnneA/ads3s7Ip64YYE+NXlIbaylzQQ7RcW74ujUJs3XyKjhD2pBXKz0hFAUnIPb/pZeHFvBfG108jEDN4X0QL4WRnVRTEvkXlsHxQSksier8XFdNmz44fwBbrLBB8vrvhhgMgrAK8HzGeoAtXpCsq5Y0WW5zu1c0g0zAFAHk3FsOX5C+n/WiNHAi/4TB5MO8A4BsfP4hvCIikWHAOJIedbPG9rSxSWr1J+bca/oB+/9GitNmX2zuHgO2QMNy/JguEC2Oyd6tAb2Mkl2m5jyKGy/DYfDZWYq81Hof7n0qLmVgHXgBiaWFAz28/GpUitBaRc3cOcEDm0GgCgOnk2aVpvB7yf9QqqFi0EfLAw5mnaLA434ZnSb85dqLPESq4UbE04P7bWM/bxxSvv/AABYKrrLxI5ex4hnLiyNrxkx3gNsXljNovilx9tnlpoEi8XY2WSSBVfsy77KdQdyl/rw2CZiZiOCOI5/8lsItRsxGJbTAZIcI9NpXMENKrrK3GYi5lzB+/I5MUUjGwsuLmFXwJLYFseJ7cBaW2MThiD0mETangC/0BBmkQYECCg+HNkKmZXkJ6r18hBRMgFlm8xaM1G3FjW5JH0kPgFCWjtgD62esGzDL/Y5Q+zMslPxFsHqqaW7o7TcVmkdg4NtjnnZsKPLssDije+Dp/1Cm/XG9gmwzRuoU6OHkMsCkSxItCiBcFtTucei2HjQyBB7wKh7vrMC20nIX+8I6rmENPeYZ0v8xH38OHl0At6xR5R6Ad2FLx5eYX+ZuSLwCypimhNgMtgGJtswlN6CcHPcTBMRSDZZ5mwUHABaq5FRE+x9k37W4MHbrBA+uDgGQBkRylswdJC9g8t1zt8tg4jScpQDbfIs+HuD4qqK6YI/6A5WY3Vk1B6DGds0AtV2EEQ3poKNONJicE8m1XmxTdwDaUNNlysiLVIiNIjiIiI4iJ4Ehl6lDODHzS/7FFcSuaJ8R0SuRgX734PCG9QBavAJRBNtNlitmH0HlMshtY5tPavNYDCjS75Q6hUcA9q8wZjdddyIPRPKzYAto7atiAnKU2a2KHVg3oG7E2eOD6BXAV2s/wDeFdg432fsoeAH2MOwMTzSN3F5nXpC8iWQkCDsUr58aQHgXO1mb6rE2i5BrFAruySmzHco8mfsG0lK8IK4KUJJoyGQb2fIxKDw2Q2RF1O5l/d5qwodG1c3NORkRBGx8Gmlc1pX2P8AoEKwpOcTIgXNLipwTf8AAbgFm0ZKmrFad2D4s3IZswHxQOsMEeWWJRwMBuBMqQLhTcAOuNbf4G40h8xh7pL+/GD6/wBjGODjfZ+yw8L4+XMJTcvHeLbAoryqTT1wC5UswB4lp8zZdKr9L78xoNe+j9TJeOeKnu8w5hQBwR808Rq3l6p/L/eZdiqb1fuYZQtb7tgLX0iHKY5jB0gc781RSreB8h0hBKKG4tr28hBkzjVFNuJ4gjJSGgMXdvHiNjy8j5BLWbOoATbnwUfI7WDHFF93LzZYQokKR6MbC9vEA6vqR8Cn2C7fYj/QOUurhw4B7Elf2cdmBegjARYu5ON4jYohsGh7RTw4voWCZnEzOJLexbe1PQ6MZUbSKy7lgdH+1T3NDefLGGUAWwpQAtWO5p4YmehquPmmurrcfYJ6RgMa3IA+APU8z54VMXD97W3l7JGWtTjkou1l5iHLDkCk9GWVt54APUFzvwAfK/0P9+ceruwL9Sex8LyNhU1g+VuYQAAAGQbPNYbECdjmdPKllMYcD2GACbsjcU2PiHVqxjj0xv8AUXBqk1NuKs02pxXy2sAKeCrzjycvYFCevovBXD29gVuVW6Q/0Y00ZyH4mFZQN8XFOgmGeBh5r7vwK4kjIDFZbAP8xkugPTxFLgU886zFVY7hZUR4ILue/wD2oxFdKzCvrfgMgLQNIPvCZMAFAFAealLvAY8L4exhkuQWoDaWAtkY5GLi8ZWaqfiBPR2+UdTCMgMVj20mmYOPb2+Y7k3GCLORhHBCLVCbaXqBhyMAw8+1odiVcww8EyNHZ2Xp0L9If99AzQM0DNAzQM0DNAzQM0DNAzQM0DNAzQMSxZBoAtYGd+DIqfc1aN78GAMSUYvbjwPrNAzQM0DNAzQM0jDJA+sxquieYhKYNiFIwM68w5BSYXQAI3ZCQkxBOBZvEA45QvnNsqzOIeAc3NfNchhH3dEOx7YBoNPK5oGaBmgZoGaBhAbkW0gc6+sQCIjiJOJBxEUwSvYDSDAvZV1JsmgZoGaBmgZoGaBmgZoGaBmgZoGaBmgZoGaBmgZoGaBmgZoGaBmgZoGDw8i4AXSEYYHsgAW1IAcZiYsTvR7x4IavgcbFPRHSEmINkAUEOgchFXkBbA7QyYLcIHqhLTSMdozdFBxdCDqqDCKAN00DNAzQM0DNAzQM0DNAzQM0DNAzQM0DNAzQM0DNAzQM0DNAzQM0DNAzQM0DNAzQMMPSioDFc4kcIykym9zi/AzkeZiK+QOs0DNAzQM0DNAzQMWUbVl1hdRiy1bRwpOI4WODRtBhW/YrQVlACwsIcMQlGiBHtk8HxK4NIBvVwIxWlAi7BuOwcoWrZFdKblZa4Y6A0JViESRwA126snMlm/wUEgBauyPF3UjadoMrxRbS0R8xDSDo7imwu1WrblveEGZjPSAjY3gug17zQM0DNAzQM0DLKqUlQ761XWDZZBKWi86SrOMulCTTso7BTwjQM0DNAzQM0DNAzQM0DNAzQM0DNAzQM0DOAek4B6TgHpOAek4B6TgHpOAek4B6TgHpOAek4B6TgHpOAek4B6SspTdwlemPE46ceqEe7HAPScA9JwD0nAPScA9IGUAYqwtFcY/mQdPOiARwR2zGzkoF0Rlw87AIGRYbKjuAek4B6TgHpOAek4B6QfSsqzEp+ZYVcrtbXwCEcM7KS/ivQt04B6TgHpOAek4B6TgHpOAek4B6TgHpOAek4B6TgHpOAek4B6TgHpOAek4B6TgHpOAek4B6TgHpOAek4B6TgHpBd0tfprbVdRujpTBNbMOQx6CjPwIi7d4A31DIlSplA/mGQ6qQo1vnAPScA9JwD0nAPScA9JwD0nAPScA9JwD0nAPScA9JwD0nAPScA9JwD0nAPScA9JwD0nAPScA9JwD0nAPScA9JwD0nAPScA9JwD0hAwiwtrKPP0XcgUUeBQHXNS9PfOAek4B6TgHpOAek4B6S0oAtXYREou7c76a+nieTNKbvWF63AuJjX1Z958V0UwSVmy3jVeJFAURUFLcOMc3QAcyQcrhle2Ix6r3j0jVPWcMrjYelSSGX9Fk4BgeDCIG12fZThOAek4B6TgHpOAek4B6QikP8A0y8heBW6HBzOCQVI4pKrMInsDul2n5JbuLHAPScA9JwD0nAPScA9JwD0nAPScA9JwD0nAPScA9JwD0nAPScA9P8AstEs7OWHZZ4hisotuoPXzTe5hbuPgJ7ZMQfTz1vZdaemW/UWThD4ev8AwV/zLLX9T6+epgAqtuLLATDera0MejMUID6DmGnpMNs+7MOkE/zg5VoaSFV7VG64uKhRXsMUp6A4B44Ev/VT7hkeOA9+7wVBtd6l/wBl7a2Ldgjg52dTwSM8CzXAeKAc5WGlzjcsjh5rIRHM/wB4QD6D+AA+POyx0aLD/g0RWj2ynx/MABLeEHaBxcgmoKsJODBekVGIVUEC914cUZpBKMDtCkmWFUJxPzecv+vZqvRBwOxpQOHgqxQE3FN5QEK65xpi1LDwIKODgPQfSOvZl4Jdt0MvKMJiA3lvSwnWHnYsrJW0vfI+kc5bgtpx7U24Gu4E+fOKtgm49jb/ADOUSbNU6qFGeY0cJAJ6CE5YHusr22ekA+CIGxCD1fU/zVWAm2RgcVo6y9cSYtmXECjaQRHHsAOwcOgCF4qo2IgOdNjqlAXHm1M0Gba3Ecou+vfDLxwuXLOKmQuOV/rAGszq7UT4jlbYWNA826eqPbImtgC42grhmwkAfjFCmwRLoDYXjMdnB54n3XzXIxD29H2JMvOrtIHAW/ETRi4d3tiXT/hgFmje15sjBioDuUPo/WILEBNlGXFLOsee9ACoEdkMF6BaY1vE0jbshFAoHaQeeD0f6xcQLBkYh7QRzSbAhToF8XfNozky6oKT/wBw/E4AUehFDfuDG+QKLtLj8qXF81NiL9rV5ygKtG24e8wosvkXciNSGhsa1dQhycm7sAe++vnOMUbnFexJl5kTAhtJsBpgMzKOtkTYVfuOJ4y/qpuk9+SdZdSBaFUJ6KfV/wAyr0qwGAJeAIlnSW3SNjyrLkEzKTpKuzgcinD3K4QpKSguvLz/ADGQ4AODcuNFo4y0mHbwV0E+zyCrkEj3vwSvr/WA9qXJwmZUv23h3BeskYROItWNClBkgttOFVF6Exrw5tqMUFYGMyrHBSgeg81bXAFxfG88iQAtXIIQCzjAX6JdIC5vzhBKGYDRZeJfnw41wc+IOGXlYfbppqte8xkF+RDYiwt8FMmHkfowFW3YvVCFZuq6B9BdOLF9+4OVQs117P8AWdLYozL2nEziOyw0zgNoMDebJShxwtUuZUO240kAjep966QQhLOrY8qC5uLCZcn5SX9+V0rNW6/IowwFV2EGRHAW0yeleF+9ireHskUTAkyIL0rrKCNtxj+naxbxqQoVF/c6+LNrZxdq6ofIDfU8+4mNlywS/vyoYzgBDJhnhDsr5VqLawQ5F15CHatAM1IBxsVDprjirUi4mQ5Qesg+94CYYf5geZB2aTZSmNvDFwhIQNjSSVgYriF+1YwXYmlhEQJtUjltlVwOkACpBaYsN8j7ogHEKqGbONmUIqFxMs9DgKHAeR/2GrHeg2gyho+gKHBJTG+OSuNGYbdTqF2WzA1sEiwMatVXQqqRTCqypKOFUWVSTQhmcxw81Nw7z9iPn3WpqGdyOAsWZlg+0jA1HAb4AMMc1F5uvb0vP7StrX3ETi+XCWfPluXRpRVc4V7kKyL5tQbiXeNy9FKzggoI3DThDA4RHdRQoLtmdZXFjr4J1Y+KWt4hdpu/2ZqkrQmdjeAt4UkOQfAtuXGwQrK73z2/SgB8Ql2ocgcy93DKAAAUHkcoxzGy8DPh8iLMNU00FPUOiBR4K0zLcjfmfaXBKjrezh2mIcEhm3ydQ+4brGo84DquScfHZk7CwpfXo6HkBa0ZvFEZNuwb20PmqVR0CjBG9ZSscQgEYpLAkWUKd/C4wMVRAhFK47NgBs/zNDTbwNPeUkAhZBCWO8POGGs6hNquA4GDV2VDXCrYEKGs3GFTfGGCNkuU508oq5BYt78Vf3/svJ611wODiFA7KztAi6C7ZG8RV5vG/wD4U209DhvVfXzoAzqN9W+0u8bOmyqyO59DEVp07rC+mcuYCZ3lXnQkrXnNER9tJeOJ5a80UC4NnOnEvLwAcWyloACLiKPRCQgMbpYHFsG1lYpX7c1to3u14/8AbRM0TNEzRM0TNEzRM0TNEzRM0TNEzRM0TLGDoSileFe4jKlbqUQGDTiNbxjRM0TNEzRM0TNExp+jHUtihG7Aj48i4m7qsL0R63xdPKV7fvRlXYlriDFeK29ZomHjMZwD7PcU8djhC2qYeoMKOyltRY+j4pZTDPHYNlk+pomaJmiZomaJmiYw7wQbBSgqCUoN0pHAsxIC3u2RxAGGMoOFF2XEmIxGeM0TNEzRM0TNEzRM0TNEzRM0TNEzRM0TNEzRM0TNEzRM0TNEzRMBhiE4AA3rLzbBK3nMhGArRFdtzGC32gEXQ2mNsqQ1/bqhmFi3hWDUdtSHPVFu0CruGzy49VjnJMSbgIgphomaJmiZomaJmiZomaJmiZomaJmiZomaJmiZomaJmiZomaJmiZomaJmiZomaJmgYqTulAq7AYjHYxWxNFZRoDBsQS8Tgxq3RM0TNEzRM0TNExpfgwg0Sojn50Lfh7sswYUal7/rJes0TA/WVQD9MMTLzIIjk4Q6EeJNz6miZomaJmiZomaJh2VAixGXi2IbUEOBSOm0qB7bnYm+aJmiZomaJmiZomaJmiZomaJmiZomaJmiZoj8miPyaI/Joj8miPyaI/Joj8miPyaI/Joj8miPyaI/Joj8miPyB1ikWE9IdMcgg9poj8miPyaI/Joj8miPyaI/Joj8lAyhgcjw9PEQwlTsIq4Gu6w9K+nibm9hZ9UJoj8miPyAb5kYzY4kGXgllOJE4QI4L4hZaqDTXA/U0R+TRH5NEfk0R+TRH5NEfk0R+QJsJ5Joz8miPyaI/Joj8miPyaI/Joj8miPyaI/Joj8miPyaI/Joj8miPyaI/Joj8miPyaI/Joj8miPyaI/Joj8mjPyYJ7yFoyFBui9/nx4qs6Qv0l7Gwk0R+TRH5NEfk0R+TRH5NEfk0R+TRH5NEfk0R+TRH5NEfk0R+TRH5NEfk0R+TRH5NEfk0R+TRH5NEfk0R+TRH5NEfk0R+TRH5NEfkwKwN1Zoj8miPyaI/Joj8miPyaI/Joj8jS/A/IQgAoAy88ZzdF2UoNGfk0R+RMpQBijZweqGR5mKblilY6I/Joj8miPyaI/Joj8miPyaM/IIUO1tYj6TRH5NEfk0R+TRH5NEfk0R+TRH5NEfk0R+TRH5NEfk0R+TRH5NEfn+glG1eI6lDvFIV7ukIkATYBR4psPliPxLnIbgu9mHjtv10n3XjYR+Qv4EhjAEvbzE2efZpNzCRYaCjp/Fxpt+/50+CU/efFBc7fdX6Q8zlEt269P5zkBFS954lz7YOCvd5L2kE8FWPZ47Z6HNhhn7LykvxLf0cqMfc+LKJboy+P8CudoVbkfYcPJZfDUtjRm+56+KusQVvAXsofxe173nLPHkSh8HjVAVErfWSoWAHg+Zy/nzLMYVQ4B4JLFivoXKkWW3Ej28RyiVskTh8keImSz1UPuKpn7cGK8SVaxzcLfZwX5hLzv8APAchBXpFzwa63+BLl7yl+YSg6n1uA/fkFGhw3BGEGBne8cDIq/BbeDeCl9D+K5Q5eGnAD7vOADJc4XvFYGXhm+w+5ZyqSeCPvfmaimNuAthqa5/G/wDOOxwDO8Fvq+GowiS321LzS/HjY0U7gLfiCDWNd5+A8l2mO5D0XXs8Rhe9D0hD5UeQX3XwFVp4ssB6pGTKW+Yj/ACW1lwSn5mfNz2jH4xkvOyAtfSBTdq+LEbxsQb3eOEMq3vXec/4xG2qpvrzCEMC05ARRlqNze5HTxZiYpNOduxNnmp/Pz8e4kyVScgH1/OduUid4vADLoZ8rAD28VEFM546fS/pCTozuAo8itMOLL0c13i4lfKlBfoaT2DweEFJtPzc9f4Wwxe7aleSfE5ouBiHG9BzEAAACgDLwcpbNDZz/ZnX+NQtDW7fs08yrY3LS3QXROBOJAo9jyYqwUXatZz82YTSkbaD0LP+ecmNjPAdZQBEwWSJY+kcoyg4WOSv34qo5NTBniB+UUU3Fmyv1npABBRYjmeCC4Wzo5R72dvmlfnwwPiz2k6Wfwt0YN7AgV3AHX4kTiabMYXAA7S+T42k4tedx7ZKnMHtwH1/GuNkIYoiHO3VLNzjeFns+XBGO0sxy9PSPKEblwYuEet0IIgjY5J5cKFe3LBo4hPV/nlAURkjEFJvwUz8B4FG+AlsiyBa+kU5hdccyeEIcsOQLX0I7tR5lHoydV8pi3U2hTLrBOuJPdeofAHrsHlS/a4omJ2cjN5PuI+3gglyw47IDAvrmwcgA4H8KzI3CO03JmO8lLOE9sxYsQUxIzIc3IqAOIKm0BZVYq0DtQ+gFAGwDxpDfC+/fSdYfxmMpwGcyougeQJoC1WgN8RMVBKR1dQ+X4i5UBE9GCLqngDqvkjXU5HYGLM8XTiVOi6H9C3EPbYZbRcQ4MKayy5shUiDkLz3RdSYzlbwt1qLxIFAwm0Y4EzbHCcyHDghK1yACvMuOBwzPgXtxbwdzjpGgKzTarR13Q6W8iLrG4ESzaY1mif2VtiArtBZXdUAOj0UP4YYcvOL8UZYKmJpayvRvo+S0sRtdXNbL6gIZfx2ruFb5DLRWhmvBOihbyx5AUHoealJTjY27nV6eSo2kLngQD8D0gH9DDzJrmDB5KNq95DpogWopEiSVdAaIsvIF4w1KkkDgMFADAvaqzZ5qDuzwWT1frGHURIY2E6MDaXcDbqab3QABsDAjENN9HLbFuSD7P8AEDAHMDVekBsXx4h9x8CHd437345JUYzcW73Ehl/HVbkhzD9wBaE3ni83iQS7PMbJpIcAIhvxpu5zeYXzAABQYB/QxIyG81YjnFTnY8Kq2DnOvRIt1u8zPY853rQw8z9lFs1l3GTr7PhUdr1+ftcwJvDkKw/hkVy5LZLsisMgtyU+vE9q9GY+1w/jqkyZ5qx0thcrJ8+GcCnkF/Uu+e544efog49OIAewVvW4/Z4rVxU+qRRWAT/R2v8AU7X+p2v9Ttf6na/1O1/qdr/U7X+p2v8AU7X+p2v9Ttf6na/1O1/qdr/U7X+p2v8AU7X+p2v9Ttf6na/1O1/qdr/U7X+o2620jY2CQ9XRK3ZobUS1m01jA6BiMBeRGzl5Wz2FKbTMZzNkO4na/wBTtf6na/1O1/qdr/U7X+pYTE6dJGKcIhFybmijy9nGnq2qv0BlOOhygoirLUKKztlMZgvU+o6FcBXMHdO1/qdr/U7X+p2v9Ttf6na/1O1/qdr/AFO1/qdr/U7X+p2v9Ttf6na/1O1/qdr/AFO1/qdr/U7X+p2v9Ttf6na/1O1/qdr/AFO1/qdr/U7X+p2v9Ttf6na/1O1/qdr/AFO1/qdr/UqYoezhMtuHrLxDzeAnsyrThJu+yLr42rKwXO9BxsIhmtouS7uM7X+p2v8AU7X+p2v9Ttf6na/1O1/qdr/U7X+p2v8AU7X+p2v9Ttf6na/1O1/qdr/U7X+p2v8AU7X+p2v9Ttf6na/1O1/qdr/U7X+p2v8AU7X+p2v9Ttf6na/1O1/qdr/U7X+p2v8AU7X+p2v9Ttf6na/1Ly0hVDiZHGAb9tuG3qkO2ZqGwxIJFsxKV7JzltAVkO4na/1O1/qdr/U7X+p2v9Ttf6i11YM44GKbyWFYwt2q1QMubBWthd4ZMADvUA6y1XaHqv7L1FelzLnU7X+p2v8AU7X+p2v9Ttf6na/1O1/qdr/U7X+p2v8AU7X+p2v9Ttf6na/1O1/qdr/U7X+p2v8AU7X+p2v9Ttf6na/1O1/r/TT+L9+CV6wtsGFZB9xmWMJLLjgfPd6whziJyEfL7+dv6F9Sge6RvC6XdS/MW3ELgB7hlIyy83HzbCkFopzSWZjJ6v3/AIYEAUUjtjqvZDi4h6fUjmnO1BD52fEysPWvuIHJYbBTDOwB6P4xyg2ob0vlJdIUvPDY9x3vfUdg48UWXw9fPQdobe4R6iCXQ+D7RgicFx4kgJltdmAdFH8+oyuAzwCc0RP7dbRl9aRRhaE3Ci/B6eBDQJRSwX6V6RDlJ35+yHXzkKW3pIPYesYBiATpKeKrlWROhUMKwbgAPqRBESxjGuG3Kwxyf1P4h/FKYDQ8qLyQ6Mz7m3wXkcDBGyCa3q1uH8bKye3iNe0v2qbe/shKU84aD4DwNOQ3mNkQCAb8mh9ufnomniGnoSqckcmr+DxB2hA4ETYqx7dZOj+fdNiAPEK+FDMp9231t8gcsGrcaIBpYlj5lKC3eRB7vr5TcslxP+IwFoITeIBwxz3eVgzbg7kGMbL/AIuAMUwzXelYQZeQ3Fohm1hCAIKLE2nmCZaqGWC+nlh7HSHL8kPX+fkTqSS+z6+Unwwu9ige7GyU3AVHofMNtCbeX5/LUetf7LUBOrCx4fwnJ8zmfiLFQET0Y0VRuay/UdT+KY94FRvHHmeXAzgIdT7RcgJbYQPQ+ahXumTy1bjTeyr1K+sK4MhkjifzhnxK4M9nr8rlKsw4YsA4WvL7HXAX6mewa7W1Hq/LV5jluQ+4/NtLhfIv4eMhHE+V9ebAlcX63/iLlMDr4HID1br5XKYuwNzFPtM6eW6EDbgLYSVE/ar+s6eUPqY7wp+ZeC7c7VL3/m1otmJcV7eo8oBaEywlAHBqcWv08tMNKhgeUncgkAWhN55GZgyM3BT8/wAJlRR27xfzFMYJDek+P4hwLYVyJRvWfE8ehRfNrxDsLra/2HluVtqb4UP0itwDw27unC68XKNyMe3AfzYWjfBWYXJufL48AIXV0pHDDJvCPZSHm1935XAWG5oEEVs9YaWLYANZ2djtEcccfKaHAYPHH/CZS4VFY7bX781EjInJgff8T3j4ncNzxpCqLdiXKzxAosQDyUeU4xaEcwmKV4pzbwvEFtdiBfVnMeLk/wA8MbK8St5PryejCXkLFcCKyDAsRBSTseeXBDsETgy5rjBuf3txAIFzgdor5GHdQHJA+P4YBhWN805b6hT6Q9X8S7NpUr+1Hm1e540PAYI4J4ZL6Jt8GZotN34r6zr5QIixwRiWsIbvuF18Cui4YtKwbXKIvsN0hyvLeI7fByYtzBO1zf8ANcpdLBcG4A+XkQdps+SR1yF3Ab0v6Q3gKbAA+PMNistmEZxWxuEwXkL7FHQX9QA9/wBi/wAIy5nzfn9d5VJNQoAtXpGkJOwQbiWeN/xGIhX61Qt2CiFpWOZCjCVFAb1hQvalUEFOQPAVnGnABMBo6DEceERm7AraA2Jl0YsNcGHp0F5FAnok4AHx5netDsAEM4sgZYVqaAjfiLKU3nAQbneIyd6Ayqx3Bk30ERopgIOLCMZ39RyDNJsC1iKMyVRh6V/O2BAvfcaUEFLcuPjjRV+hfqD0ED6rB6h50eIWMQJetAj6vHBKF+54qCCheXGe22W/MJ7ZcwH1/CYqQoINwo9h5a7xWcLxOAH2xIFH8VM8t000mY5o3yjstnr1/ZBBtQKA3B4Ao6lGGTRM7EcbbIbMqwjJiNJW5UrN846znscNDbiw5OTKzfWBcavlyshzhfD/ADzvXNdrj4Zc1Ssm5cRwWW9m7gbSEXlhFIVylD5X/ON5hzKN9pIaNDMz5B9niblrE+ZzA8rpjg9J6jzlnZTkhSejLTV0fNK2+vir2hjciyeoj24Mm8H3GH8NNDQVwBvqeQ/0T5KjcabciX+hOKrLdqHX+MOP47ruldPIoCrQZsCbb0TEvX6rr5x3NIyRwSXqLN2ipdU+vkG/VucR5/OvS2PmRw5wFdixhGmtg4dAdvir+Ge+gg80F7gA+P8AgdaWaZPsILr40SEhNmYfWLXDPs1vblfR/iYoa53MO1l5MrmNLsT0Nukx3irnOvyp1/jYRMXG75fIy8b1VvaoIcm/SCBQ5uAD2P8AhuAe7LfmeRakoluwz6/zyNkeG3x7KMyKLE3eP0wkvb3/AIqGfYjH0ryAGwXeK/b+IGuKd1APuN0h42HUBuASuKghUVK/MB97/jAG47t37CCJY2Pji0t0G9dls/44R+dYeSIO3yeofYfz8Lrw7mn3LnbVOTfvfi93hdmV/wAUccfdzEPxZE3iX4OUru3+Rvn+Id5p0cRPZsgF/fid0o5fFIP42C1+9J9xmG+bCb978cNt9c7uef8AxJyx7hc51lQYG3iWeJr2w5Eh/PDlLOMANz4GcpTbBHl84/8AECZYv1T7l3t2rgI+4+DBV+xlH2P8T2T4ET7iY65yWPfxKyMfKCH8gYxZfwBvYPBymHmJW8P7/wDGE2wDgKfmL3yZPcXgwDs7zhR9n+gtn4Bwpex8aHyJ5XH/ABG0dpUxM43+H53gTpQFrHzEn8SJh01R9eIK41fB+AX8dygnZKcvCWO/q1ja/ef8kE5EbjwglWQWyg2KfP8AoSwtkH7+1eDMeNzFM7X/AJOjZU27G+/CrWsQ5NmBFLZy/ihDIWW+NY5bCDn+f8jNakJ28ybQMF1eNRjAd99W/wCLlGA771RgFoDesrhRvjg2HvyOf9Awhkp5p/A8RVrajerf+VhjdUe778HCzo9UQxqCDhR/EY6+w8KwM9nxOKm6f5AX/wBk5p5ryfwu+GYRyGXvoP8Ai5MsPCrdSH1CRTqMNg2zf+g5w0kEH9AtaRTc48sBzTwJsDIZtC/U42N9W/8AjhbwhmQvNj/6PC9MUpvCvng5pHZSlauh/EJ8krssfqJyBoYlCnqsYcuHNBdQeSxNolkKvdqdUPn/ACEY4UVsU9xCI2K5SIeIW4waCszuON/xcpaqpW6x+M+SXgDKK0BtZJp7pLo2A9v9Hcf1O4/qdx/U7j+p3H9TuP6ncf1O4/qdx/U7j+p3H9TuP6ncf1O4/qdx/U7j+p3H9TuP6ncf1O4/qdx/U7j+p3H9TuP6lebihYy071PAbQhSO0jCF4MS22G1k7j+p3H9TuP6ncf1O4/qdx/U7j+p3H9QTMJVwT0jqAXdmN7fhTehYaXrHBCbo6W3HCdx/U7j+p3H9TuP6ncf1O4/qdx/U7j+p3H9TuP6ncf1O4/qdx/U7j+p3H9TuP6ncf1O4/qdx/U7j+p3H9TuP6ncf1O4/qdx/U7j+p3H9TuP6ncf1O4/qdx/U7j+p3H9TuP6ncf1FIx9rWivdgbTg8WTy+Cj0anCR84G9YDo4L6TuP6ncf1O4/qdx/U7j+p3H9TuP6ncf1O4/qdx/U7j+p3H9TuP6ncf1O4/qdx/U7j+p3H9TuP6ncf1O4/qdx/U7j+p3H9TuP6ncf1O4/qdx/U7j+p3H9TuP6ncf1O4/qdx/U7j+p3H9TuP6ncf1O4/qVd20KCop6QDl11z+UCSKUbGiPuJLUd0Q41YcJ3H9TuP6ncf1O4/qdx/U7j+p3H9TuP6ncf1LJ6phSAyenvgT7izGmsdFQHuA/BsHogx0OpbMXDlO4/qdx/U7j+p3H9TuP6ncf1O4/qdx/U7j+p3H9TuP6ncf1O4/qdx/U7j+p3H9TuP6ncf1O4/qdx/U7j+p3H9TuP6/wBO0qebcV4VjxPAzPWYs3LdQPX/AIjvjuQlRQNhKptvuA9fBPU+clxnMKcRAmA53CE/hZNYlDhjt4ZsMP8AKDjej1MaVun2+7FfBgUYeC0RyDZLP1pA3hOSQ02ArZBNnC36fyD+DQVmG/sPIloDHvwdJUUXe+jOMIXbczU9B/xYkyl1yGfRj3miOxp+bxhVrhbSY1xqzrMHmBDZYa/n2FFW4LfYlb0JvXsE8BBBLEqVaghGz5I/8Q5AU6C/UPktVNoVfEWhV/Hd9N/g8ddAFY6T1TYLhMQGhKcJcne8XAw8hAylDG11g041BtDKoAoDpEzINwbfQDBo63qkwdGzp/GuWPuwLX0lhRBrJrHSzo8RVlIbgVf+IxSrHuY/UZNCt4N+9+OZVjB7+v54pC0NLqrXPCPAXscRKL9sbOP8DIAp7kdGaoViKOCjTtJifSE313Def8VBdoxmoDqpCwzZfAPqGLV3pEhOl8klRcKHFIcsWCHo0dwnmv8AdxOzEVGdOKG1wDakxl3yDqTVoHwTc3WI5o4yoDqXvRXxCr53KXHyU3kJ0/jFVZkRprfrJ0PIGoUMeK//ABIfubfb+yhgeNirMeMMZPSvU/nrEhthQWFoWNORvgYHfKwlAicFe1VxAKoyz24NqxAIUCAgQrHGsDO0hc88QDjkYEE3F/8AEsdEAvYVtwcBVsNfe4NpaAQccymABRYYhdaVuN4vg3EinYJhjxgW5ViSMq1I6hs2Nw6wANonz/qvHSugS/Lo1jBdnnBCVCO1SFjVZNq8mVsHC326FTcMNgEtoppCbwsyGO44TFDKqHlQTqv/AAbyxCgGau6AZQ0UqU3ARwH8bBK2Gsy1yBzk7PJVxcfc/n/xIoUI8gfAAXJdZwsgmJHcUl7E2I4JsT+dFFFFFFFFFFFFFFFFFFFFFFkteR2k7GNsLRwwic9ZcuAsXuuzfWyWeyW0IacEF3hg4wHT2eIcrLGtzhI4xC2iAKMcXCv+EUUUUUUURlxYQMKZlVPBYCVVWBXIFJe08ATOBlKAHFzwl5WQzjVu52a2uMPtuJWRRFAJWN3bhjBA21UlkUNjgH+qKKKKKKKKKKKKKKKKKKKKKKKKIuY8ByAutgGnBrGEGsM5hCNgAGO2quGYiN9V6gQQCtzjiwSkzADSUGWIlk9dRx6CHLAO9hRUbFOnmsIwHHd4ZPx9QElO7nQnvC03/wC3LlkY5+iiCKSSfX1R6S02SVj10DFHKmlkIFwxNowQGBQGT+NiiiiiiiiiiiiiiiiiiiiiiiiiiiiiiiiiiiiyCcFdBABVGhA2O/GVlEPpBo9WVcJvL7MyEob07wAXdbUJTFXZqmjaLaAAAYf8YoooooootpGoEmw3hB6RomM98EpYWeImRSGO1BVQjdgztTnHGqvdFN0YGFpQLRjcPJweFZqKhawP/wANeKKKKKKKKKKKKKKKKKKKKKL/2Q==&quot;,&quot;width&quot;:&quot;1280&quot;,&quot;height&quot;:&quot;829&quot;,&quot;x&quot;:0,&quot;y&quot;:0}" math="0" shadow="0">
      <root>
        <mxCell id="0" />
        <mxCell id="1" parent="0" />
        <mxCell id="N7AXFsf2d0O0gjxx270S-13" value="" style="endArrow=classic;html=1;rounded=0;strokeColor=#000000;fontFamily=Helvetica;fontSize=12;fontColor=default;strokeWidth=1.5;" edge="1" parent="1">
          <mxGeometry relative="1" as="geometry">
            <mxPoint x="310" y="40" as="sourcePoint" />
            <mxPoint x="270" y="60" as="targetPoint" />
          </mxGeometry>
        </mxCell>
        <mxCell id="N7AXFsf2d0O0gjxx270S-15" value="&lt;font style=&quot;font-size: 20px;&quot;&gt;1&lt;/font&gt;" style="edgeLabel;resizable=0;html=1;align=left;verticalAlign=bottom;fontFamily=Helvetica;fontSize=16;fontColor=#000000;fillColor=none;gradientColor=none;labelBackgroundColor=none;labelBorderColor=none;fontStyle=5" connectable="0" vertex="1" parent="N7AXFsf2d0O0gjxx270S-13">
          <mxGeometry x="-1" relative="1" as="geometry" />
        </mxCell>
      </root>
    </mxGraphModel>
  </diagram>
</mxfile>
